<?xml version="1.0" encoding="utf-8" standalone="no"?>
<!DOCTYPE svg PUBLIC "-//W3C//DTD SVG 1.1//EN"
  "http://www.w3.org/Graphics/SVG/1.1/DTD/svg11.dtd">
<svg xmlns:xlink="http://www.w3.org/1999/xlink" width="283.728125pt" height="213.359274pt" viewBox="0 0 283.728125 213.359274" xmlns="http://www.w3.org/2000/svg" version="1.1">
 <metadata>
  <rdf:RDF xmlns:dc="http://purl.org/dc/elements/1.1/" xmlns:cc="http://creativecommons.org/ns#" xmlns:rdf="http://www.w3.org/1999/02/22-rdf-syntax-ns#">
   <cc:Work>
    <dc:type rdf:resource="http://purl.org/dc/dcmitype/StillImage"/>
    <dc:date>2025-03-04T14:00:40.922515</dc:date>
    <dc:format>image/svg+xml</dc:format>
    <dc:creator>
     <cc:Agent>
      <dc:title>Matplotlib v3.10.1, https://matplotlib.org/</dc:title>
     </cc:Agent>
    </dc:creator>
   </cc:Work>
  </rdf:RDF>
 </metadata>
 <defs>
  <style type="text/css">*{stroke-linejoin: round; stroke-linecap: butt}</style>
 </defs>
 <g id="figure_1">
  <g id="patch_1">
   <path d="M 0 213.359274
L 283.728125 213.359274
L 283.728125 0
L 0 0
z
" style="fill: #ffffff"/>
  </g>
  <g id="axes_1">
   <g id="patch_2">
    <path d="M 53.328125 175.803024
L 276.528125 175.803024
L 276.528125 9.483024
L 53.328125 9.483024
z
" style="fill: #ffffff"/>
   </g>
   <g id="patch_3">
    <path d="M 63.47358 175.803024
L 65.747256 175.803024
L 65.747256 156.968303
L 63.47358 156.968303
z
" clip-path="url(#p49fa349267)" style="fill: #2ca02c; opacity: 0.8"/>
   </g>
   <g id="patch_4">
    <path d="M 65.747256 175.803024
L 68.020933 175.803024
L 68.020933 116.473654
L 65.747256 116.473654
z
" clip-path="url(#p49fa349267)" style="fill: #2ca02c; opacity: 0.8"/>
   </g>
   <g id="patch_5">
    <path d="M 68.020933 175.803024
L 70.29461 175.803024
L 70.29461 107.244641
L 68.020933 107.244641
z
" clip-path="url(#p49fa349267)" style="fill: #2ca02c; opacity: 0.8"/>
   </g>
   <g id="patch_6">
    <path d="M 70.29461 175.803024
L 72.568286 175.803024
L 72.568286 137.003499
L 70.29461 137.003499
z
" clip-path="url(#p49fa349267)" style="fill: #2ca02c; opacity: 0.8"/>
   </g>
   <g id="patch_7">
    <path d="M 72.568286 175.803024
L 74.841963 175.803024
L 74.841963 154.143095
L 72.568286 154.143095
z
" clip-path="url(#p49fa349267)" style="fill: #2ca02c; opacity: 0.8"/>
   </g>
   <g id="patch_8">
    <path d="M 74.841963 175.803024
L 77.11564 175.803024
L 77.11564 156.87413
L 74.841963 156.87413
z
" clip-path="url(#p49fa349267)" style="fill: #2ca02c; opacity: 0.8"/>
   </g>
   <g id="patch_9">
    <path d="M 77.11564 175.803024
L 79.389317 175.803024
L 79.389317 154.708137
L 77.11564 154.708137
z
" clip-path="url(#p49fa349267)" style="fill: #2ca02c; opacity: 0.8"/>
   </g>
   <g id="patch_10">
    <path d="M 79.389317 175.803024
L 81.662993 175.803024
L 81.662993 148.492679
L 79.389317 148.492679
z
" clip-path="url(#p49fa349267)" style="fill: #2ca02c; opacity: 0.8"/>
   </g>
   <g id="patch_11">
    <path d="M 81.662993 175.803024
L 83.93667 175.803024
L 83.93667 156.497435
L 81.662993 156.497435
z
" clip-path="url(#p49fa349267)" style="fill: #2ca02c; opacity: 0.8"/>
   </g>
   <g id="patch_12">
    <path d="M 83.93667 175.803024
L 86.210347 175.803024
L 86.210347 157.815866
L 83.93667 157.815866
z
" clip-path="url(#p49fa349267)" style="fill: #2ca02c; opacity: 0.8"/>
   </g>
   <g id="patch_13">
    <path d="M 86.210347 175.803024
L 88.484024 175.803024
L 88.484024 163.748803
L 86.210347 163.748803
z
" clip-path="url(#p49fa349267)" style="fill: #2ca02c; opacity: 0.8"/>
   </g>
   <g id="patch_14">
    <path d="M 88.484024 175.803024
L 90.7577 175.803024
L 90.7577 162.90124
L 88.484024 162.90124
z
" clip-path="url(#p49fa349267)" style="fill: #2ca02c; opacity: 0.8"/>
   </g>
   <g id="patch_15">
    <path d="M 90.7577 175.803024
L 93.031377 175.803024
L 93.031377 161.488636
L 90.7577 161.488636
z
" clip-path="url(#p49fa349267)" style="fill: #2ca02c; opacity: 0.8"/>
   </g>
   <g id="patch_16">
    <path d="M 93.031377 175.803024
L 95.305054 175.803024
L 95.305054 162.618719
L 93.031377 162.618719
z
" clip-path="url(#p49fa349267)" style="fill: #2ca02c; opacity: 0.8"/>
   </g>
   <g id="patch_17">
    <path d="M 95.305054 175.803024
L 97.578731 175.803024
L 97.578731 164.690539
L 95.305054 164.690539
z
" clip-path="url(#p49fa349267)" style="fill: #2ca02c; opacity: 0.8"/>
   </g>
   <g id="patch_18">
    <path d="M 97.578731 175.803024
L 99.852407 175.803024
L 99.852407 166.950705
L 97.578731 166.950705
z
" clip-path="url(#p49fa349267)" style="fill: #2ca02c; opacity: 0.8"/>
   </g>
   <g id="patch_19">
    <path d="M 99.852407 175.803024
L 102.126084 175.803024
L 102.126084 167.515747
L 99.852407 167.515747
z
" clip-path="url(#p49fa349267)" style="fill: #2ca02c; opacity: 0.8"/>
   </g>
   <g id="patch_20">
    <path d="M 102.126084 175.803024
L 104.399761 175.803024
L 104.399761 167.704094
L 102.126084 167.704094
z
" clip-path="url(#p49fa349267)" style="fill: #2ca02c; opacity: 0.8"/>
   </g>
   <g id="patch_21">
    <path d="M 104.399761 175.803024
L 106.673437 175.803024
L 106.673437 167.986615
L 104.399761 167.986615
z
" clip-path="url(#p49fa349267)" style="fill: #2ca02c; opacity: 0.8"/>
   </g>
   <g id="patch_22">
    <path d="M 106.673437 175.803024
L 108.947114 175.803024
L 108.947114 167.892441
L 106.673437 167.892441
z
" clip-path="url(#p49fa349267)" style="fill: #2ca02c; opacity: 0.8"/>
   </g>
   <g id="patch_23">
    <path d="M 108.947114 175.803024
L 111.220791 175.803024
L 111.220791 169.96426
L 108.947114 169.96426
z
" clip-path="url(#p49fa349267)" style="fill: #2ca02c; opacity: 0.8"/>
   </g>
   <g id="patch_24">
    <path d="M 111.220791 175.803024
L 113.494468 175.803024
L 113.494468 172.3186
L 111.220791 172.3186
z
" clip-path="url(#p49fa349267)" style="fill: #2ca02c; opacity: 0.8"/>
   </g>
   <g id="patch_25">
    <path d="M 113.494468 175.803024
L 115.768144 175.803024
L 115.768144 172.03608
L 113.494468 172.03608
z
" clip-path="url(#p49fa349267)" style="fill: #2ca02c; opacity: 0.8"/>
   </g>
   <g id="patch_26">
    <path d="M 115.768144 175.803024
L 118.041821 175.803024
L 118.041821 172.506948
L 115.768144 172.506948
z
" clip-path="url(#p49fa349267)" style="fill: #2ca02c; opacity: 0.8"/>
   </g>
   <g id="patch_27">
    <path d="M 118.041821 175.803024
L 120.315498 175.803024
L 120.315498 171.941906
L 118.041821 171.941906
z
" clip-path="url(#p49fa349267)" style="fill: #2ca02c; opacity: 0.8"/>
   </g>
   <g id="patch_28">
    <path d="M 120.315498 175.803024
L 122.589175 175.803024
L 122.589175 171.753559
L 120.315498 171.753559
z
" clip-path="url(#p49fa349267)" style="fill: #2ca02c; opacity: 0.8"/>
   </g>
   <g id="patch_29">
    <path d="M 122.589175 175.803024
L 124.862851 175.803024
L 124.862851 172.130253
L 122.589175 172.130253
z
" clip-path="url(#p49fa349267)" style="fill: #2ca02c; opacity: 0.8"/>
   </g>
   <g id="patch_30">
    <path d="M 124.862851 175.803024
L 127.136528 175.803024
L 127.136528 173.448684
L 124.862851 173.448684
z
" clip-path="url(#p49fa349267)" style="fill: #2ca02c; opacity: 0.8"/>
   </g>
   <g id="patch_31">
    <path d="M 127.136528 175.803024
L 129.410205 175.803024
L 129.410205 173.919552
L 127.136528 173.919552
z
" clip-path="url(#p49fa349267)" style="fill: #2ca02c; opacity: 0.8"/>
   </g>
   <g id="patch_32">
    <path d="M 129.410205 175.803024
L 131.683881 175.803024
L 131.683881 173.448684
L 129.410205 173.448684
z
" clip-path="url(#p49fa349267)" style="fill: #2ca02c; opacity: 0.8"/>
   </g>
   <g id="patch_33">
    <path d="M 131.683881 175.803024
L 133.957558 175.803024
L 133.957558 173.637031
L 131.683881 173.637031
z
" clip-path="url(#p49fa349267)" style="fill: #2ca02c; opacity: 0.8"/>
   </g>
   <g id="patch_34">
    <path d="M 133.957558 175.803024
L 136.231235 175.803024
L 136.231235 174.013725
L 133.957558 174.013725
z
" clip-path="url(#p49fa349267)" style="fill: #2ca02c; opacity: 0.8"/>
   </g>
   <g id="patch_35">
    <path d="M 136.231235 175.803024
L 138.504912 175.803024
L 138.504912 174.672941
L 136.231235 174.672941
z
" clip-path="url(#p49fa349267)" style="fill: #2ca02c; opacity: 0.8"/>
   </g>
   <g id="patch_36">
    <path d="M 138.504912 175.803024
L 140.778588 175.803024
L 140.778588 174.202072
L 138.504912 174.202072
z
" clip-path="url(#p49fa349267)" style="fill: #2ca02c; opacity: 0.8"/>
   </g>
   <g id="patch_37">
    <path d="M 140.778588 175.803024
L 143.052265 175.803024
L 143.052265 174.578767
L 140.778588 174.578767
z
" clip-path="url(#p49fa349267)" style="fill: #2ca02c; opacity: 0.8"/>
   </g>
   <g id="patch_38">
    <path d="M 143.052265 175.803024
L 145.325942 175.803024
L 145.325942 174.672941
L 143.052265 174.672941
z
" clip-path="url(#p49fa349267)" style="fill: #2ca02c; opacity: 0.8"/>
   </g>
   <g id="patch_39">
    <path d="M 145.325942 175.803024
L 147.599619 175.803024
L 147.599619 174.672941
L 145.325942 174.672941
z
" clip-path="url(#p49fa349267)" style="fill: #2ca02c; opacity: 0.8"/>
   </g>
   <g id="patch_40">
    <path d="M 147.599619 175.803024
L 149.873295 175.803024
L 149.873295 174.672941
L 147.599619 174.672941
z
" clip-path="url(#p49fa349267)" style="fill: #2ca02c; opacity: 0.8"/>
   </g>
   <g id="patch_41">
    <path d="M 149.873295 175.803024
L 152.146972 175.803024
L 152.146972 174.955461
L 149.873295 174.955461
z
" clip-path="url(#p49fa349267)" style="fill: #2ca02c; opacity: 0.8"/>
   </g>
   <g id="patch_42">
    <path d="M 152.146972 175.803024
L 154.420649 175.803024
L 154.420649 175.143809
L 152.146972 175.143809
z
" clip-path="url(#p49fa349267)" style="fill: #2ca02c; opacity: 0.8"/>
   </g>
   <g id="patch_43">
    <path d="M 154.420649 175.803024
L 156.694326 175.803024
L 156.694326 174.767114
L 154.420649 174.767114
z
" clip-path="url(#p49fa349267)" style="fill: #2ca02c; opacity: 0.8"/>
   </g>
   <g id="patch_44">
    <path d="M 156.694326 175.803024
L 158.968002 175.803024
L 158.968002 175.332156
L 156.694326 175.332156
z
" clip-path="url(#p49fa349267)" style="fill: #2ca02c; opacity: 0.8"/>
   </g>
   <g id="patch_45">
    <path d="M 158.968002 175.803024
L 161.241679 175.803024
L 161.241679 175.237982
L 158.968002 175.237982
z
" clip-path="url(#p49fa349267)" style="fill: #2ca02c; opacity: 0.8"/>
   </g>
   <g id="patch_46">
    <path d="M 161.241679 175.803024
L 163.515356 175.803024
L 163.515356 175.143809
L 161.241679 175.143809
z
" clip-path="url(#p49fa349267)" style="fill: #2ca02c; opacity: 0.8"/>
   </g>
   <g id="patch_47">
    <path d="M 163.515356 175.803024
L 165.789032 175.803024
L 165.789032 175.049635
L 163.515356 175.049635
z
" clip-path="url(#p49fa349267)" style="fill: #2ca02c; opacity: 0.8"/>
   </g>
   <g id="patch_48">
    <path d="M 165.789032 175.803024
L 168.062709 175.803024
L 168.062709 175.426329
L 165.789032 175.426329
z
" clip-path="url(#p49fa349267)" style="fill: #2ca02c; opacity: 0.8"/>
   </g>
   <g id="patch_49">
    <path d="M 168.062709 175.803024
L 170.336386 175.803024
L 170.336386 175.049635
L 168.062709 175.049635
z
" clip-path="url(#p49fa349267)" style="fill: #2ca02c; opacity: 0.8"/>
   </g>
   <g id="patch_50">
    <path d="M 170.336386 175.803024
L 172.610063 175.803024
L 172.610063 175.426329
L 170.336386 175.426329
z
" clip-path="url(#p49fa349267)" style="fill: #2ca02c; opacity: 0.8"/>
   </g>
   <g id="patch_51">
    <path d="M 172.610063 175.803024
L 174.883739 175.803024
L 174.883739 175.520503
L 172.610063 175.520503
z
" clip-path="url(#p49fa349267)" style="fill: #2ca02c; opacity: 0.8"/>
   </g>
   <g id="patch_52">
    <path d="M 174.883739 175.803024
L 177.157416 175.803024
L 177.157416 175.614677
L 174.883739 175.614677
z
" clip-path="url(#p49fa349267)" style="fill: #2ca02c; opacity: 0.8"/>
   </g>
   <g id="patch_53">
    <path d="M 177.157416 175.803024
L 179.431093 175.803024
L 179.431093 175.803024
L 177.157416 175.803024
z
" clip-path="url(#p49fa349267)" style="fill: #2ca02c; opacity: 0.8"/>
   </g>
   <g id="patch_54">
    <path d="M 179.431093 175.803024
L 181.70477 175.803024
L 181.70477 175.426329
L 179.431093 175.426329
z
" clip-path="url(#p49fa349267)" style="fill: #2ca02c; opacity: 0.8"/>
   </g>
   <g id="patch_55">
    <path d="M 181.70477 175.803024
L 183.978446 175.803024
L 183.978446 175.70885
L 181.70477 175.70885
z
" clip-path="url(#p49fa349267)" style="fill: #2ca02c; opacity: 0.8"/>
   </g>
   <g id="patch_56">
    <path d="M 183.978446 175.803024
L 186.252123 175.803024
L 186.252123 175.70885
L 183.978446 175.70885
z
" clip-path="url(#p49fa349267)" style="fill: #2ca02c; opacity: 0.8"/>
   </g>
   <g id="patch_57">
    <path d="M 186.252123 175.803024
L 188.5258 175.803024
L 188.5258 175.70885
L 186.252123 175.70885
z
" clip-path="url(#p49fa349267)" style="fill: #2ca02c; opacity: 0.8"/>
   </g>
   <g id="patch_58">
    <path d="M 188.5258 175.803024
L 190.799476 175.803024
L 190.799476 175.70885
L 188.5258 175.70885
z
" clip-path="url(#p49fa349267)" style="fill: #2ca02c; opacity: 0.8"/>
   </g>
   <g id="patch_59">
    <path d="M 190.799476 175.803024
L 193.073153 175.803024
L 193.073153 175.803024
L 190.799476 175.803024
z
" clip-path="url(#p49fa349267)" style="fill: #2ca02c; opacity: 0.8"/>
   </g>
   <g id="patch_60">
    <path d="M 193.073153 175.803024
L 195.34683 175.803024
L 195.34683 175.70885
L 193.073153 175.70885
z
" clip-path="url(#p49fa349267)" style="fill: #2ca02c; opacity: 0.8"/>
   </g>
   <g id="patch_61">
    <path d="M 195.34683 175.803024
L 197.620507 175.803024
L 197.620507 175.70885
L 195.34683 175.70885
z
" clip-path="url(#p49fa349267)" style="fill: #2ca02c; opacity: 0.8"/>
   </g>
   <g id="patch_62">
    <path d="M 197.620507 175.803024
L 199.894183 175.803024
L 199.894183 175.803024
L 197.620507 175.803024
z
" clip-path="url(#p49fa349267)" style="fill: #2ca02c; opacity: 0.8"/>
   </g>
   <g id="patch_63">
    <path d="M 199.894183 175.803024
L 202.16786 175.803024
L 202.16786 175.614677
L 199.894183 175.614677
z
" clip-path="url(#p49fa349267)" style="fill: #2ca02c; opacity: 0.8"/>
   </g>
   <g id="patch_64">
    <path d="M 202.16786 175.803024
L 204.441537 175.803024
L 204.441537 175.70885
L 202.16786 175.70885
z
" clip-path="url(#p49fa349267)" style="fill: #2ca02c; opacity: 0.8"/>
   </g>
   <g id="patch_65">
    <path d="M 204.441537 175.803024
L 206.715214 175.803024
L 206.715214 175.803024
L 204.441537 175.803024
z
" clip-path="url(#p49fa349267)" style="fill: #2ca02c; opacity: 0.8"/>
   </g>
   <g id="patch_66">
    <path d="M 206.715214 175.803024
L 208.98889 175.803024
L 208.98889 175.426329
L 206.715214 175.426329
z
" clip-path="url(#p49fa349267)" style="fill: #2ca02c; opacity: 0.8"/>
   </g>
   <g id="patch_67">
    <path d="M 119.260838 175.803024
L 120.662839 175.803024
L 120.662839 175.70885
L 119.260838 175.70885
z
" clip-path="url(#p49fa349267)" style="fill: #d62728; opacity: 0.8"/>
   </g>
   <g id="patch_68">
    <path d="M 120.662839 175.803024
L 122.06484 175.803024
L 122.06484 175.70885
L 120.662839 175.70885
z
" clip-path="url(#p49fa349267)" style="fill: #d62728; opacity: 0.8"/>
   </g>
   <g id="patch_69">
    <path d="M 122.06484 175.803024
L 123.466841 175.803024
L 123.466841 175.803024
L 122.06484 175.803024
z
" clip-path="url(#p49fa349267)" style="fill: #d62728; opacity: 0.8"/>
   </g>
   <g id="patch_70">
    <path d="M 123.466841 175.803024
L 124.868841 175.803024
L 124.868841 175.70885
L 123.466841 175.70885
z
" clip-path="url(#p49fa349267)" style="fill: #d62728; opacity: 0.8"/>
   </g>
   <g id="patch_71">
    <path d="M 124.868841 175.803024
L 126.270842 175.803024
L 126.270842 175.70885
L 124.868841 175.70885
z
" clip-path="url(#p49fa349267)" style="fill: #d62728; opacity: 0.8"/>
   </g>
   <g id="patch_72">
    <path d="M 126.270842 175.803024
L 127.672843 175.803024
L 127.672843 175.803024
L 126.270842 175.803024
z
" clip-path="url(#p49fa349267)" style="fill: #d62728; opacity: 0.8"/>
   </g>
   <g id="patch_73">
    <path d="M 127.672843 175.803024
L 129.074844 175.803024
L 129.074844 175.70885
L 127.672843 175.70885
z
" clip-path="url(#p49fa349267)" style="fill: #d62728; opacity: 0.8"/>
   </g>
   <g id="patch_74">
    <path d="M 129.074844 175.803024
L 130.476845 175.803024
L 130.476845 175.70885
L 129.074844 175.70885
z
" clip-path="url(#p49fa349267)" style="fill: #d62728; opacity: 0.8"/>
   </g>
   <g id="patch_75">
    <path d="M 130.476845 175.803024
L 131.878846 175.803024
L 131.878846 175.237982
L 130.476845 175.237982
z
" clip-path="url(#p49fa349267)" style="fill: #d62728; opacity: 0.8"/>
   </g>
   <g id="patch_76">
    <path d="M 131.878846 175.803024
L 133.280846 175.803024
L 133.280846 175.049635
L 131.878846 175.049635
z
" clip-path="url(#p49fa349267)" style="fill: #d62728; opacity: 0.8"/>
   </g>
   <g id="patch_77">
    <path d="M 133.280846 175.803024
L 134.682847 175.803024
L 134.682847 173.166163
L 133.280846 173.166163
z
" clip-path="url(#p49fa349267)" style="fill: #d62728; opacity: 0.8"/>
   </g>
   <g id="patch_78">
    <path d="M 134.682847 175.803024
L 136.084848 175.803024
L 136.084848 172.883642
L 134.682847 172.883642
z
" clip-path="url(#p49fa349267)" style="fill: #d62728; opacity: 0.8"/>
   </g>
   <g id="patch_79">
    <path d="M 136.084848 175.803024
L 137.486849 175.803024
L 137.486849 168.363309
L 136.084848 168.363309
z
" clip-path="url(#p49fa349267)" style="fill: #d62728; opacity: 0.8"/>
   </g>
   <g id="patch_80">
    <path d="M 137.486849 175.803024
L 138.88885 175.803024
L 138.88885 166.008969
L 137.486849 166.008969
z
" clip-path="url(#p49fa349267)" style="fill: #d62728; opacity: 0.8"/>
   </g>
   <g id="patch_81">
    <path d="M 138.88885 175.803024
L 140.29085 175.803024
L 140.29085 167.421573
L 138.88885 167.421573
z
" clip-path="url(#p49fa349267)" style="fill: #d62728; opacity: 0.8"/>
   </g>
   <g id="patch_82">
    <path d="M 140.29085 175.803024
L 141.692851 175.803024
L 141.692851 163.748803
L 140.29085 163.748803
z
" clip-path="url(#p49fa349267)" style="fill: #d62728; opacity: 0.8"/>
   </g>
   <g id="patch_83">
    <path d="M 141.692851 175.803024
L 143.094852 175.803024
L 143.094852 161.206115
L 141.692851 161.206115
z
" clip-path="url(#p49fa349267)" style="fill: #d62728; opacity: 0.8"/>
   </g>
   <g id="patch_84">
    <path d="M 143.094852 175.803024
L 144.496853 175.803024
L 144.496853 161.771157
L 143.094852 161.771157
z
" clip-path="url(#p49fa349267)" style="fill: #d62728; opacity: 0.8"/>
   </g>
   <g id="patch_85">
    <path d="M 144.496853 175.803024
L 145.898854 175.803024
L 145.898854 161.771157
L 144.496853 161.771157
z
" clip-path="url(#p49fa349267)" style="fill: #d62728; opacity: 0.8"/>
   </g>
   <g id="patch_86">
    <path d="M 145.898854 175.803024
L 147.300854 175.803024
L 147.300854 160.5469
L 145.898854 160.5469
z
" clip-path="url(#p49fa349267)" style="fill: #d62728; opacity: 0.8"/>
   </g>
   <g id="patch_87">
    <path d="M 147.300854 175.803024
L 148.702855 175.803024
L 148.702855 161.111942
L 147.300854 161.111942
z
" clip-path="url(#p49fa349267)" style="fill: #d62728; opacity: 0.8"/>
   </g>
   <g id="patch_88">
    <path d="M 148.702855 175.803024
L 150.104856 175.803024
L 150.104856 163.372108
L 148.702855 163.372108
z
" clip-path="url(#p49fa349267)" style="fill: #d62728; opacity: 0.8"/>
   </g>
   <g id="patch_89">
    <path d="M 150.104856 175.803024
L 151.506857 175.803024
L 151.506857 164.125497
L 150.104856 164.125497
z
" clip-path="url(#p49fa349267)" style="fill: #d62728; opacity: 0.8"/>
   </g>
   <g id="patch_90">
    <path d="M 151.506857 175.803024
L 152.908858 175.803024
L 152.908858 164.219671
L 151.506857 164.219671
z
" clip-path="url(#p49fa349267)" style="fill: #d62728; opacity: 0.8"/>
   </g>
   <g id="patch_91">
    <path d="M 152.908858 175.803024
L 154.310859 175.803024
L 154.310859 168.64583
L 152.908858 168.64583
z
" clip-path="url(#p49fa349267)" style="fill: #d62728; opacity: 0.8"/>
   </g>
   <g id="patch_92">
    <path d="M 154.310859 175.803024
L 155.712859 175.803024
L 155.712859 169.116698
L 154.310859 169.116698
z
" clip-path="url(#p49fa349267)" style="fill: #d62728; opacity: 0.8"/>
   </g>
   <g id="patch_93">
    <path d="M 155.712859 175.803024
L 157.11486 175.803024
L 157.11486 171.00017
L 155.712859 171.00017
z
" clip-path="url(#p49fa349267)" style="fill: #d62728; opacity: 0.8"/>
   </g>
   <g id="patch_94">
    <path d="M 157.11486 175.803024
L 158.516861 175.803024
L 158.516861 170.623476
L 157.11486 170.623476
z
" clip-path="url(#p49fa349267)" style="fill: #d62728; opacity: 0.8"/>
   </g>
   <g id="patch_95">
    <path d="M 158.516861 175.803024
L 159.918862 175.803024
L 159.918862 172.412774
L 158.516861 172.412774
z
" clip-path="url(#p49fa349267)" style="fill: #d62728; opacity: 0.8"/>
   </g>
   <g id="patch_96">
    <path d="M 159.918862 175.803024
L 161.320863 175.803024
L 161.320863 172.695295
L 159.918862 172.695295
z
" clip-path="url(#p49fa349267)" style="fill: #d62728; opacity: 0.8"/>
   </g>
   <g id="patch_97">
    <path d="M 161.320863 175.803024
L 162.722863 175.803024
L 162.722863 173.166163
L 161.320863 173.166163
z
" clip-path="url(#p49fa349267)" style="fill: #d62728; opacity: 0.8"/>
   </g>
   <g id="patch_98">
    <path d="M 162.722863 175.803024
L 164.124864 175.803024
L 164.124864 173.260336
L 162.722863 173.260336
z
" clip-path="url(#p49fa349267)" style="fill: #d62728; opacity: 0.8"/>
   </g>
   <g id="patch_99">
    <path d="M 164.124864 175.803024
L 165.526865 175.803024
L 165.526865 173.448684
L 164.124864 173.448684
z
" clip-path="url(#p49fa349267)" style="fill: #d62728; opacity: 0.8"/>
   </g>
   <g id="patch_100">
    <path d="M 165.526865 175.803024
L 166.928866 175.803024
L 166.928866 174.013725
L 165.526865 174.013725
z
" clip-path="url(#p49fa349267)" style="fill: #d62728; opacity: 0.8"/>
   </g>
   <g id="patch_101">
    <path d="M 166.928866 175.803024
L 168.330867 175.803024
L 168.330867 173.637031
L 166.928866 173.637031
z
" clip-path="url(#p49fa349267)" style="fill: #d62728; opacity: 0.8"/>
   </g>
   <g id="patch_102">
    <path d="M 168.330867 175.803024
L 169.732868 175.803024
L 169.732868 174.39042
L 168.330867 174.39042
z
" clip-path="url(#p49fa349267)" style="fill: #d62728; opacity: 0.8"/>
   </g>
   <g id="patch_103">
    <path d="M 169.732868 175.803024
L 171.134868 175.803024
L 171.134868 174.296246
L 169.732868 174.296246
z
" clip-path="url(#p49fa349267)" style="fill: #d62728; opacity: 0.8"/>
   </g>
   <g id="patch_104">
    <path d="M 171.134868 175.803024
L 172.536869 175.803024
L 172.536869 174.013725
L 171.134868 174.013725
z
" clip-path="url(#p49fa349267)" style="fill: #d62728; opacity: 0.8"/>
   </g>
   <g id="patch_105">
    <path d="M 172.536869 175.803024
L 173.93887 175.803024
L 173.93887 173.260336
L 172.536869 173.260336
z
" clip-path="url(#p49fa349267)" style="fill: #d62728; opacity: 0.8"/>
   </g>
   <g id="patch_106">
    <path d="M 173.93887 175.803024
L 175.340871 175.803024
L 175.340871 172.789468
L 173.93887 172.789468
z
" clip-path="url(#p49fa349267)" style="fill: #d62728; opacity: 0.8"/>
   </g>
   <g id="patch_107">
    <path d="M 175.340871 175.803024
L 176.742872 175.803024
L 176.742872 172.789468
L 175.340871 172.789468
z
" clip-path="url(#p49fa349267)" style="fill: #d62728; opacity: 0.8"/>
   </g>
   <g id="patch_108">
    <path d="M 176.742872 175.803024
L 178.144872 175.803024
L 178.144872 171.376864
L 176.742872 171.376864
z
" clip-path="url(#p49fa349267)" style="fill: #d62728; opacity: 0.8"/>
   </g>
   <g id="patch_109">
    <path d="M 178.144872 175.803024
L 179.546873 175.803024
L 179.546873 170.905996
L 178.144872 170.905996
z
" clip-path="url(#p49fa349267)" style="fill: #d62728; opacity: 0.8"/>
   </g>
   <g id="patch_110">
    <path d="M 179.546873 175.803024
L 180.948874 175.803024
L 180.948874 170.529302
L 179.546873 170.529302
z
" clip-path="url(#p49fa349267)" style="fill: #d62728; opacity: 0.8"/>
   </g>
   <g id="patch_111">
    <path d="M 180.948874 175.803024
L 182.350875 175.803024
L 182.350875 169.96426
L 180.948874 169.96426
z
" clip-path="url(#p49fa349267)" style="fill: #d62728; opacity: 0.8"/>
   </g>
   <g id="patch_112">
    <path d="M 182.350875 175.803024
L 183.752876 175.803024
L 183.752876 170.340955
L 182.350875 170.340955
z
" clip-path="url(#p49fa349267)" style="fill: #d62728; opacity: 0.8"/>
   </g>
   <g id="patch_113">
    <path d="M 183.752876 175.803024
L 185.154876 175.803024
L 185.154876 168.174962
L 183.752876 168.174962
z
" clip-path="url(#p49fa349267)" style="fill: #d62728; opacity: 0.8"/>
   </g>
   <g id="patch_114">
    <path d="M 185.154876 175.803024
L 186.556877 175.803024
L 186.556877 168.834177
L 185.154876 168.834177
z
" clip-path="url(#p49fa349267)" style="fill: #d62728; opacity: 0.8"/>
   </g>
   <g id="patch_115">
    <path d="M 186.556877 175.803024
L 187.958878 175.803024
L 187.958878 171.094344
L 186.556877 171.094344
z
" clip-path="url(#p49fa349267)" style="fill: #d62728; opacity: 0.8"/>
   </g>
   <g id="patch_116">
    <path d="M 187.958878 175.803024
L 189.360879 175.803024
L 189.360879 169.775913
L 187.958878 169.775913
z
" clip-path="url(#p49fa349267)" style="fill: #d62728; opacity: 0.8"/>
   </g>
   <g id="patch_117">
    <path d="M 189.360879 175.803024
L 190.76288 175.803024
L 190.76288 169.116698
L 189.360879 169.116698
z
" clip-path="url(#p49fa349267)" style="fill: #d62728; opacity: 0.8"/>
   </g>
   <g id="patch_118">
    <path d="M 190.76288 175.803024
L 192.164881 175.803024
L 192.164881 168.269136
L 190.76288 168.269136
z
" clip-path="url(#p49fa349267)" style="fill: #d62728; opacity: 0.8"/>
   </g>
   <g id="patch_119">
    <path d="M 192.164881 175.803024
L 193.566881 175.803024
L 193.566881 168.64583
L 192.164881 168.64583
z
" clip-path="url(#p49fa349267)" style="fill: #d62728; opacity: 0.8"/>
   </g>
   <g id="patch_120">
    <path d="M 193.566881 175.803024
L 194.968882 175.803024
L 194.968882 170.905996
L 193.566881 170.905996
z
" clip-path="url(#p49fa349267)" style="fill: #d62728; opacity: 0.8"/>
   </g>
   <g id="patch_121">
    <path d="M 194.968882 175.803024
L 196.370883 175.803024
L 196.370883 171.941906
L 194.968882 171.941906
z
" clip-path="url(#p49fa349267)" style="fill: #d62728; opacity: 0.8"/>
   </g>
   <g id="patch_122">
    <path d="M 196.370883 175.803024
L 197.772884 175.803024
L 197.772884 171.00017
L 196.370883 171.00017
z
" clip-path="url(#p49fa349267)" style="fill: #d62728; opacity: 0.8"/>
   </g>
   <g id="patch_123">
    <path d="M 197.772884 175.803024
L 199.174885 175.803024
L 199.174885 172.03608
L 197.772884 172.03608
z
" clip-path="url(#p49fa349267)" style="fill: #d62728; opacity: 0.8"/>
   </g>
   <g id="patch_124">
    <path d="M 199.174885 175.803024
L 200.576885 175.803024
L 200.576885 172.130253
L 199.174885 172.130253
z
" clip-path="url(#p49fa349267)" style="fill: #d62728; opacity: 0.8"/>
   </g>
   <g id="patch_125">
    <path d="M 200.576885 175.803024
L 201.978886 175.803024
L 201.978886 173.260336
L 200.576885 173.260336
z
" clip-path="url(#p49fa349267)" style="fill: #d62728; opacity: 0.8"/>
   </g>
   <g id="patch_126">
    <path d="M 201.978886 175.803024
L 203.380887 175.803024
L 203.380887 172.695295
L 201.978886 172.695295
z
" clip-path="url(#p49fa349267)" style="fill: #d62728; opacity: 0.8"/>
   </g>
   <g id="patch_127">
    <path d="M 203.380887 175.803024
L 204.782888 175.803024
L 204.782888 174.202072
L 203.380887 174.202072
z
" clip-path="url(#p49fa349267)" style="fill: #d62728; opacity: 0.8"/>
   </g>
   <g id="patch_128">
    <path d="M 204.782888 175.803024
L 206.184889 175.803024
L 206.184889 174.013725
L 204.782888 174.013725
z
" clip-path="url(#p49fa349267)" style="fill: #d62728; opacity: 0.8"/>
   </g>
   <g id="patch_129">
    <path d="M 206.184889 175.803024
L 207.58689 175.803024
L 207.58689 174.578767
L 206.184889 174.578767
z
" clip-path="url(#p49fa349267)" style="fill: #d62728; opacity: 0.8"/>
   </g>
   <g id="patch_130">
    <path d="M 207.58689 175.803024
L 208.98889 175.803024
L 208.98889 17.403024
L 207.58689 17.403024
z
" clip-path="url(#p49fa349267)" style="fill: #d62728; opacity: 0.8"/>
   </g>
   <g id="matplotlib.axis_1">
    <g id="xtick_1">
     <g id="line2d_1">
      <defs>
       <path id="m4a36a6bdda" d="M 0 0
L 0 3.5
" style="stroke: #000000; stroke-width: 0.8"/>
      </defs>
      <g>
       <use xlink:href="#m4a36a6bdda" x="58.822851" y="175.803024" style="stroke: #000000; stroke-width: 0.8"/>
      </g>
     </g>
     <g id="text_1">
      <!-- 0.00 -->
      <g transform="translate(47.690039 190.401461) scale(0.1 -0.1)">
       <defs>
        <path id="DejaVuSans-30" d="M 2034 4250
Q 1547 4250 1301 3770
Q 1056 3291 1056 2328
Q 1056 1369 1301 889
Q 1547 409 2034 409
Q 2525 409 2770 889
Q 3016 1369 3016 2328
Q 3016 3291 2770 3770
Q 2525 4250 2034 4250
z
M 2034 4750
Q 2819 4750 3233 4129
Q 3647 3509 3647 2328
Q 3647 1150 3233 529
Q 2819 -91 2034 -91
Q 1250 -91 836 529
Q 422 1150 422 2328
Q 422 3509 836 4129
Q 1250 4750 2034 4750
z
" transform="scale(0.015625)"/>
        <path id="DejaVuSans-2e" d="M 684 794
L 1344 794
L 1344 0
L 684 0
L 684 794
z
" transform="scale(0.015625)"/>
       </defs>
       <use xlink:href="#DejaVuSans-30"/>
       <use xlink:href="#DejaVuSans-2e" transform="translate(63.623047 0)"/>
       <use xlink:href="#DejaVuSans-30" transform="translate(95.410156 0)"/>
       <use xlink:href="#DejaVuSans-30" transform="translate(159.033203 0)"/>
      </g>
     </g>
    </g>
    <g id="xtick_2">
     <g id="line2d_2">
      <g>
       <use xlink:href="#m4a36a6bdda" x="96.364361" y="175.803024" style="stroke: #000000; stroke-width: 0.8"/>
      </g>
     </g>
     <g id="text_2">
      <!-- 0.01 -->
      <g transform="translate(85.231548 190.401461) scale(0.1 -0.1)">
       <defs>
        <path id="DejaVuSans-31" d="M 794 531
L 1825 531
L 1825 4091
L 703 3866
L 703 4441
L 1819 4666
L 2450 4666
L 2450 531
L 3481 531
L 3481 0
L 794 0
L 794 531
z
" transform="scale(0.015625)"/>
       </defs>
       <use xlink:href="#DejaVuSans-30"/>
       <use xlink:href="#DejaVuSans-2e" transform="translate(63.623047 0)"/>
       <use xlink:href="#DejaVuSans-30" transform="translate(95.410156 0)"/>
       <use xlink:href="#DejaVuSans-31" transform="translate(159.033203 0)"/>
      </g>
     </g>
    </g>
    <g id="xtick_3">
     <g id="line2d_3">
      <g>
       <use xlink:href="#m4a36a6bdda" x="133.905871" y="175.803024" style="stroke: #000000; stroke-width: 0.8"/>
      </g>
     </g>
     <g id="text_3">
      <!-- 0.02 -->
      <g transform="translate(122.773058 190.401461) scale(0.1 -0.1)">
       <defs>
        <path id="DejaVuSans-32" d="M 1228 531
L 3431 531
L 3431 0
L 469 0
L 469 531
Q 828 903 1448 1529
Q 2069 2156 2228 2338
Q 2531 2678 2651 2914
Q 2772 3150 2772 3378
Q 2772 3750 2511 3984
Q 2250 4219 1831 4219
Q 1534 4219 1204 4116
Q 875 4013 500 3803
L 500 4441
Q 881 4594 1212 4672
Q 1544 4750 1819 4750
Q 2544 4750 2975 4387
Q 3406 4025 3406 3419
Q 3406 3131 3298 2873
Q 3191 2616 2906 2266
Q 2828 2175 2409 1742
Q 1991 1309 1228 531
z
" transform="scale(0.015625)"/>
       </defs>
       <use xlink:href="#DejaVuSans-30"/>
       <use xlink:href="#DejaVuSans-2e" transform="translate(63.623047 0)"/>
       <use xlink:href="#DejaVuSans-30" transform="translate(95.410156 0)"/>
       <use xlink:href="#DejaVuSans-32" transform="translate(159.033203 0)"/>
      </g>
     </g>
    </g>
    <g id="xtick_4">
     <g id="line2d_4">
      <g>
       <use xlink:href="#m4a36a6bdda" x="171.447381" y="175.803024" style="stroke: #000000; stroke-width: 0.8"/>
      </g>
     </g>
     <g id="text_4">
      <!-- 0.03 -->
      <g transform="translate(160.314568 190.401461) scale(0.1 -0.1)">
       <defs>
        <path id="DejaVuSans-33" d="M 2597 2516
Q 3050 2419 3304 2112
Q 3559 1806 3559 1356
Q 3559 666 3084 287
Q 2609 -91 1734 -91
Q 1441 -91 1130 -33
Q 819 25 488 141
L 488 750
Q 750 597 1062 519
Q 1375 441 1716 441
Q 2309 441 2620 675
Q 2931 909 2931 1356
Q 2931 1769 2642 2001
Q 2353 2234 1838 2234
L 1294 2234
L 1294 2753
L 1863 2753
Q 2328 2753 2575 2939
Q 2822 3125 2822 3475
Q 2822 3834 2567 4026
Q 2313 4219 1838 4219
Q 1578 4219 1281 4162
Q 984 4106 628 3988
L 628 4550
Q 988 4650 1302 4700
Q 1616 4750 1894 4750
Q 2613 4750 3031 4423
Q 3450 4097 3450 3541
Q 3450 3153 3228 2886
Q 3006 2619 2597 2516
z
" transform="scale(0.015625)"/>
       </defs>
       <use xlink:href="#DejaVuSans-30"/>
       <use xlink:href="#DejaVuSans-2e" transform="translate(63.623047 0)"/>
       <use xlink:href="#DejaVuSans-30" transform="translate(95.410156 0)"/>
       <use xlink:href="#DejaVuSans-33" transform="translate(159.033203 0)"/>
      </g>
     </g>
    </g>
    <g id="xtick_5">
     <g id="line2d_5">
      <g>
       <use xlink:href="#m4a36a6bdda" x="208.98889" y="175.803024" style="stroke: #000000; stroke-width: 0.8"/>
      </g>
     </g>
     <g id="text_5">
      <!-- 0.04 -->
      <g transform="translate(197.856078 190.401461) scale(0.1 -0.1)">
       <defs>
        <path id="DejaVuSans-34" d="M 2419 4116
L 825 1625
L 2419 1625
L 2419 4116
z
M 2253 4666
L 3047 4666
L 3047 1625
L 3713 1625
L 3713 1100
L 3047 1100
L 3047 0
L 2419 0
L 2419 1100
L 313 1100
L 313 1709
L 2253 4666
z
" transform="scale(0.015625)"/>
       </defs>
       <use xlink:href="#DejaVuSans-30"/>
       <use xlink:href="#DejaVuSans-2e" transform="translate(63.623047 0)"/>
       <use xlink:href="#DejaVuSans-30" transform="translate(95.410156 0)"/>
       <use xlink:href="#DejaVuSans-34" transform="translate(159.033203 0)"/>
      </g>
     </g>
    </g>
    <g id="xtick_6">
     <g id="line2d_6">
      <g>
       <use xlink:href="#m4a36a6bdda" x="246.5304" y="175.803024" style="stroke: #000000; stroke-width: 0.8"/>
      </g>
     </g>
     <g id="text_6">
      <!-- 0.05 -->
      <g transform="translate(235.397588 190.401461) scale(0.1 -0.1)">
       <defs>
        <path id="DejaVuSans-35" d="M 691 4666
L 3169 4666
L 3169 4134
L 1269 4134
L 1269 2991
Q 1406 3038 1543 3061
Q 1681 3084 1819 3084
Q 2600 3084 3056 2656
Q 3513 2228 3513 1497
Q 3513 744 3044 326
Q 2575 -91 1722 -91
Q 1428 -91 1123 -41
Q 819 9 494 109
L 494 744
Q 775 591 1075 516
Q 1375 441 1709 441
Q 2250 441 2565 725
Q 2881 1009 2881 1497
Q 2881 1984 2565 2268
Q 2250 2553 1709 2553
Q 1456 2553 1204 2497
Q 953 2441 691 2322
L 691 4666
z
" transform="scale(0.015625)"/>
       </defs>
       <use xlink:href="#DejaVuSans-30"/>
       <use xlink:href="#DejaVuSans-2e" transform="translate(63.623047 0)"/>
       <use xlink:href="#DejaVuSans-30" transform="translate(95.410156 0)"/>
       <use xlink:href="#DejaVuSans-35" transform="translate(159.033203 0)"/>
      </g>
     </g>
    </g>
    <g id="text_7">
     <!-- Duration (s) -->
     <g transform="translate(135.117188 204.079586) scale(0.1 -0.1)">
      <defs>
       <path id="DejaVuSans-44" d="M 1259 4147
L 1259 519
L 2022 519
Q 2988 519 3436 956
Q 3884 1394 3884 2338
Q 3884 3275 3436 3711
Q 2988 4147 2022 4147
L 1259 4147
z
M 628 4666
L 1925 4666
Q 3281 4666 3915 4102
Q 4550 3538 4550 2338
Q 4550 1131 3912 565
Q 3275 0 1925 0
L 628 0
L 628 4666
z
" transform="scale(0.015625)"/>
       <path id="DejaVuSans-75" d="M 544 1381
L 544 3500
L 1119 3500
L 1119 1403
Q 1119 906 1312 657
Q 1506 409 1894 409
Q 2359 409 2629 706
Q 2900 1003 2900 1516
L 2900 3500
L 3475 3500
L 3475 0
L 2900 0
L 2900 538
Q 2691 219 2414 64
Q 2138 -91 1772 -91
Q 1169 -91 856 284
Q 544 659 544 1381
z
M 1991 3584
L 1991 3584
z
" transform="scale(0.015625)"/>
       <path id="DejaVuSans-72" d="M 2631 2963
Q 2534 3019 2420 3045
Q 2306 3072 2169 3072
Q 1681 3072 1420 2755
Q 1159 2438 1159 1844
L 1159 0
L 581 0
L 581 3500
L 1159 3500
L 1159 2956
Q 1341 3275 1631 3429
Q 1922 3584 2338 3584
Q 2397 3584 2469 3576
Q 2541 3569 2628 3553
L 2631 2963
z
" transform="scale(0.015625)"/>
       <path id="DejaVuSans-61" d="M 2194 1759
Q 1497 1759 1228 1600
Q 959 1441 959 1056
Q 959 750 1161 570
Q 1363 391 1709 391
Q 2188 391 2477 730
Q 2766 1069 2766 1631
L 2766 1759
L 2194 1759
z
M 3341 1997
L 3341 0
L 2766 0
L 2766 531
Q 2569 213 2275 61
Q 1981 -91 1556 -91
Q 1019 -91 701 211
Q 384 513 384 1019
Q 384 1609 779 1909
Q 1175 2209 1959 2209
L 2766 2209
L 2766 2266
Q 2766 2663 2505 2880
Q 2244 3097 1772 3097
Q 1472 3097 1187 3025
Q 903 2953 641 2809
L 641 3341
Q 956 3463 1253 3523
Q 1550 3584 1831 3584
Q 2591 3584 2966 3190
Q 3341 2797 3341 1997
z
" transform="scale(0.015625)"/>
       <path id="DejaVuSans-74" d="M 1172 4494
L 1172 3500
L 2356 3500
L 2356 3053
L 1172 3053
L 1172 1153
Q 1172 725 1289 603
Q 1406 481 1766 481
L 2356 481
L 2356 0
L 1766 0
Q 1100 0 847 248
Q 594 497 594 1153
L 594 3053
L 172 3053
L 172 3500
L 594 3500
L 594 4494
L 1172 4494
z
" transform="scale(0.015625)"/>
       <path id="DejaVuSans-69" d="M 603 3500
L 1178 3500
L 1178 0
L 603 0
L 603 3500
z
M 603 4863
L 1178 4863
L 1178 4134
L 603 4134
L 603 4863
z
" transform="scale(0.015625)"/>
       <path id="DejaVuSans-6f" d="M 1959 3097
Q 1497 3097 1228 2736
Q 959 2375 959 1747
Q 959 1119 1226 758
Q 1494 397 1959 397
Q 2419 397 2687 759
Q 2956 1122 2956 1747
Q 2956 2369 2687 2733
Q 2419 3097 1959 3097
z
M 1959 3584
Q 2709 3584 3137 3096
Q 3566 2609 3566 1747
Q 3566 888 3137 398
Q 2709 -91 1959 -91
Q 1206 -91 779 398
Q 353 888 353 1747
Q 353 2609 779 3096
Q 1206 3584 1959 3584
z
" transform="scale(0.015625)"/>
       <path id="DejaVuSans-6e" d="M 3513 2113
L 3513 0
L 2938 0
L 2938 2094
Q 2938 2591 2744 2837
Q 2550 3084 2163 3084
Q 1697 3084 1428 2787
Q 1159 2491 1159 1978
L 1159 0
L 581 0
L 581 3500
L 1159 3500
L 1159 2956
Q 1366 3272 1645 3428
Q 1925 3584 2291 3584
Q 2894 3584 3203 3211
Q 3513 2838 3513 2113
z
" transform="scale(0.015625)"/>
       <path id="DejaVuSans-20" transform="scale(0.015625)"/>
       <path id="DejaVuSans-28" d="M 1984 4856
Q 1566 4138 1362 3434
Q 1159 2731 1159 2009
Q 1159 1288 1364 580
Q 1569 -128 1984 -844
L 1484 -844
Q 1016 -109 783 600
Q 550 1309 550 2009
Q 550 2706 781 3412
Q 1013 4119 1484 4856
L 1984 4856
z
" transform="scale(0.015625)"/>
       <path id="DejaVuSans-73" d="M 2834 3397
L 2834 2853
Q 2591 2978 2328 3040
Q 2066 3103 1784 3103
Q 1356 3103 1142 2972
Q 928 2841 928 2578
Q 928 2378 1081 2264
Q 1234 2150 1697 2047
L 1894 2003
Q 2506 1872 2764 1633
Q 3022 1394 3022 966
Q 3022 478 2636 193
Q 2250 -91 1575 -91
Q 1294 -91 989 -36
Q 684 19 347 128
L 347 722
Q 666 556 975 473
Q 1284 391 1588 391
Q 1994 391 2212 530
Q 2431 669 2431 922
Q 2431 1156 2273 1281
Q 2116 1406 1581 1522
L 1381 1569
Q 847 1681 609 1914
Q 372 2147 372 2553
Q 372 3047 722 3315
Q 1072 3584 1716 3584
Q 2034 3584 2315 3537
Q 2597 3491 2834 3397
z
" transform="scale(0.015625)"/>
       <path id="DejaVuSans-29" d="M 513 4856
L 1013 4856
Q 1481 4119 1714 3412
Q 1947 2706 1947 2009
Q 1947 1309 1714 600
Q 1481 -109 1013 -844
L 513 -844
Q 928 -128 1133 580
Q 1338 1288 1338 2009
Q 1338 2731 1133 3434
Q 928 4138 513 4856
z
" transform="scale(0.015625)"/>
      </defs>
      <use xlink:href="#DejaVuSans-44"/>
      <use xlink:href="#DejaVuSans-75" transform="translate(77.001953 0)"/>
      <use xlink:href="#DejaVuSans-72" transform="translate(140.380859 0)"/>
      <use xlink:href="#DejaVuSans-61" transform="translate(181.494141 0)"/>
      <use xlink:href="#DejaVuSans-74" transform="translate(242.773438 0)"/>
      <use xlink:href="#DejaVuSans-69" transform="translate(281.982422 0)"/>
      <use xlink:href="#DejaVuSans-6f" transform="translate(309.765625 0)"/>
      <use xlink:href="#DejaVuSans-6e" transform="translate(370.947266 0)"/>
      <use xlink:href="#DejaVuSans-20" transform="translate(434.326172 0)"/>
      <use xlink:href="#DejaVuSans-28" transform="translate(466.113281 0)"/>
      <use xlink:href="#DejaVuSans-73" transform="translate(505.126953 0)"/>
      <use xlink:href="#DejaVuSans-29" transform="translate(557.226562 0)"/>
     </g>
    </g>
   </g>
   <g id="matplotlib.axis_2">
    <g id="ytick_1">
     <g id="line2d_7">
      <defs>
       <path id="m5f7c0d5363" d="M 0 0
L -3.5 0
" style="stroke: #000000; stroke-width: 0.8"/>
      </defs>
      <g>
       <use xlink:href="#m5f7c0d5363" x="53.328125" y="175.803024" style="stroke: #000000; stroke-width: 0.8"/>
      </g>
     </g>
     <g id="text_8">
      <!-- 0 -->
      <g transform="translate(39.965625 179.602242) scale(0.1 -0.1)">
       <use xlink:href="#DejaVuSans-30"/>
      </g>
     </g>
    </g>
    <g id="ytick_2">
     <g id="line2d_8">
      <g>
       <use xlink:href="#m5f7c0d5363" x="53.328125" y="152.259623" style="stroke: #000000; stroke-width: 0.8"/>
      </g>
     </g>
     <g id="text_9">
      <!-- 250 -->
      <g transform="translate(27.240625 156.058842) scale(0.1 -0.1)">
       <use xlink:href="#DejaVuSans-32"/>
       <use xlink:href="#DejaVuSans-35" transform="translate(63.623047 0)"/>
       <use xlink:href="#DejaVuSans-30" transform="translate(127.246094 0)"/>
      </g>
     </g>
    </g>
    <g id="ytick_3">
     <g id="line2d_9">
      <g>
       <use xlink:href="#m5f7c0d5363" x="53.328125" y="128.716222" style="stroke: #000000; stroke-width: 0.8"/>
      </g>
     </g>
     <g id="text_10">
      <!-- 500 -->
      <g transform="translate(27.240625 132.515441) scale(0.1 -0.1)">
       <use xlink:href="#DejaVuSans-35"/>
       <use xlink:href="#DejaVuSans-30" transform="translate(63.623047 0)"/>
       <use xlink:href="#DejaVuSans-30" transform="translate(127.246094 0)"/>
      </g>
     </g>
    </g>
    <g id="ytick_4">
     <g id="line2d_10">
      <g>
       <use xlink:href="#m5f7c0d5363" x="53.328125" y="105.172822" style="stroke: #000000; stroke-width: 0.8"/>
      </g>
     </g>
     <g id="text_11">
      <!-- 750 -->
      <g transform="translate(27.240625 108.97204) scale(0.1 -0.1)">
       <defs>
        <path id="DejaVuSans-37" d="M 525 4666
L 3525 4666
L 3525 4397
L 1831 0
L 1172 0
L 2766 4134
L 525 4134
L 525 4666
z
" transform="scale(0.015625)"/>
       </defs>
       <use xlink:href="#DejaVuSans-37"/>
       <use xlink:href="#DejaVuSans-35" transform="translate(63.623047 0)"/>
       <use xlink:href="#DejaVuSans-30" transform="translate(127.246094 0)"/>
      </g>
     </g>
    </g>
    <g id="ytick_5">
     <g id="line2d_11">
      <g>
       <use xlink:href="#m5f7c0d5363" x="53.328125" y="81.629421" style="stroke: #000000; stroke-width: 0.8"/>
      </g>
     </g>
     <g id="text_12">
      <!-- 1000 -->
      <g transform="translate(20.878125 85.42864) scale(0.1 -0.1)">
       <use xlink:href="#DejaVuSans-31"/>
       <use xlink:href="#DejaVuSans-30" transform="translate(63.623047 0)"/>
       <use xlink:href="#DejaVuSans-30" transform="translate(127.246094 0)"/>
       <use xlink:href="#DejaVuSans-30" transform="translate(190.869141 0)"/>
      </g>
     </g>
    </g>
    <g id="ytick_6">
     <g id="line2d_12">
      <g>
       <use xlink:href="#m5f7c0d5363" x="53.328125" y="58.08602" style="stroke: #000000; stroke-width: 0.8"/>
      </g>
     </g>
     <g id="text_13">
      <!-- 1250 -->
      <g transform="translate(20.878125 61.885239) scale(0.1 -0.1)">
       <use xlink:href="#DejaVuSans-31"/>
       <use xlink:href="#DejaVuSans-32" transform="translate(63.623047 0)"/>
       <use xlink:href="#DejaVuSans-35" transform="translate(127.246094 0)"/>
       <use xlink:href="#DejaVuSans-30" transform="translate(190.869141 0)"/>
      </g>
     </g>
    </g>
    <g id="ytick_7">
     <g id="line2d_13">
      <g>
       <use xlink:href="#m5f7c0d5363" x="53.328125" y="34.542619" style="stroke: #000000; stroke-width: 0.8"/>
      </g>
     </g>
     <g id="text_14">
      <!-- 1500 -->
      <g transform="translate(20.878125 38.341838) scale(0.1 -0.1)">
       <use xlink:href="#DejaVuSans-31"/>
       <use xlink:href="#DejaVuSans-35" transform="translate(63.623047 0)"/>
       <use xlink:href="#DejaVuSans-30" transform="translate(127.246094 0)"/>
       <use xlink:href="#DejaVuSans-30" transform="translate(190.869141 0)"/>
      </g>
     </g>
    </g>
    <g id="ytick_8">
     <g id="line2d_14">
      <g>
       <use xlink:href="#m5f7c0d5363" x="53.328125" y="10.999219" style="stroke: #000000; stroke-width: 0.8"/>
      </g>
     </g>
     <g id="text_15">
      <!-- 1750 -->
      <g transform="translate(20.878125 14.798438) scale(0.1 -0.1)">
       <use xlink:href="#DejaVuSans-31"/>
       <use xlink:href="#DejaVuSans-37" transform="translate(63.623047 0)"/>
       <use xlink:href="#DejaVuSans-35" transform="translate(127.246094 0)"/>
       <use xlink:href="#DejaVuSans-30" transform="translate(190.869141 0)"/>
      </g>
     </g>
    </g>
    <g id="text_16">
     <!-- Frequency -->
     <g transform="translate(14.798437 118.472711) rotate(-90) scale(0.1 -0.1)">
      <defs>
       <path id="DejaVuSans-46" d="M 628 4666
L 3309 4666
L 3309 4134
L 1259 4134
L 1259 2759
L 3109 2759
L 3109 2228
L 1259 2228
L 1259 0
L 628 0
L 628 4666
z
" transform="scale(0.015625)"/>
       <path id="DejaVuSans-65" d="M 3597 1894
L 3597 1613
L 953 1613
Q 991 1019 1311 708
Q 1631 397 2203 397
Q 2534 397 2845 478
Q 3156 559 3463 722
L 3463 178
Q 3153 47 2828 -22
Q 2503 -91 2169 -91
Q 1331 -91 842 396
Q 353 884 353 1716
Q 353 2575 817 3079
Q 1281 3584 2069 3584
Q 2775 3584 3186 3129
Q 3597 2675 3597 1894
z
M 3022 2063
Q 3016 2534 2758 2815
Q 2500 3097 2075 3097
Q 1594 3097 1305 2825
Q 1016 2553 972 2059
L 3022 2063
z
" transform="scale(0.015625)"/>
       <path id="DejaVuSans-71" d="M 947 1747
Q 947 1113 1208 752
Q 1469 391 1925 391
Q 2381 391 2643 752
Q 2906 1113 2906 1747
Q 2906 2381 2643 2742
Q 2381 3103 1925 3103
Q 1469 3103 1208 2742
Q 947 2381 947 1747
z
M 2906 525
Q 2725 213 2448 61
Q 2172 -91 1784 -91
Q 1150 -91 751 415
Q 353 922 353 1747
Q 353 2572 751 3078
Q 1150 3584 1784 3584
Q 2172 3584 2448 3432
Q 2725 3281 2906 2969
L 2906 3500
L 3481 3500
L 3481 -1331
L 2906 -1331
L 2906 525
z
" transform="scale(0.015625)"/>
       <path id="DejaVuSans-63" d="M 3122 3366
L 3122 2828
Q 2878 2963 2633 3030
Q 2388 3097 2138 3097
Q 1578 3097 1268 2742
Q 959 2388 959 1747
Q 959 1106 1268 751
Q 1578 397 2138 397
Q 2388 397 2633 464
Q 2878 531 3122 666
L 3122 134
Q 2881 22 2623 -34
Q 2366 -91 2075 -91
Q 1284 -91 818 406
Q 353 903 353 1747
Q 353 2603 823 3093
Q 1294 3584 2113 3584
Q 2378 3584 2631 3529
Q 2884 3475 3122 3366
z
" transform="scale(0.015625)"/>
       <path id="DejaVuSans-79" d="M 2059 -325
Q 1816 -950 1584 -1140
Q 1353 -1331 966 -1331
L 506 -1331
L 506 -850
L 844 -850
Q 1081 -850 1212 -737
Q 1344 -625 1503 -206
L 1606 56
L 191 3500
L 800 3500
L 1894 763
L 2988 3500
L 3597 3500
L 2059 -325
z
" transform="scale(0.015625)"/>
      </defs>
      <use xlink:href="#DejaVuSans-46"/>
      <use xlink:href="#DejaVuSans-72" transform="translate(50.269531 0)"/>
      <use xlink:href="#DejaVuSans-65" transform="translate(89.132812 0)"/>
      <use xlink:href="#DejaVuSans-71" transform="translate(150.65625 0)"/>
      <use xlink:href="#DejaVuSans-75" transform="translate(214.132812 0)"/>
      <use xlink:href="#DejaVuSans-65" transform="translate(277.511719 0)"/>
      <use xlink:href="#DejaVuSans-6e" transform="translate(339.035156 0)"/>
      <use xlink:href="#DejaVuSans-63" transform="translate(402.414062 0)"/>
      <use xlink:href="#DejaVuSans-79" transform="translate(457.394531 0)"/>
     </g>
    </g>
   </g>
   <g id="line2d_15">
    <path d="M 84.750922 175.803024
L 84.750922 9.483024
" clip-path="url(#p49fa349267)" style="fill: none; stroke: #2ca02c; stroke-opacity: 0.7; stroke-linecap: square"/>
   </g>
   <g id="line2d_16">
    <path d="M 95.369866 175.803024
L 95.369866 9.483024
" clip-path="url(#p49fa349267)" style="fill: none; stroke-dasharray: 3.7,1.6; stroke-dashoffset: 0; stroke: #2ca02c; stroke-opacity: 0.1"/>
   </g>
   <g id="line2d_17">
    <path d="M 74.131977 175.803024
L 74.131977 9.483024
" clip-path="url(#p49fa349267)" style="fill: none; stroke-dasharray: 3.7,1.6; stroke-dashoffset: 0; stroke: #2ca02c; stroke-opacity: 0.1"/>
   </g>
   <g id="line2d_18">
    <path d="M 212.635766 175.803024
L 212.635766 9.483024
" clip-path="url(#p49fa349267)" style="fill: none; stroke: #d62728; stroke-opacity: 0.7; stroke-linecap: square"/>
   </g>
   <g id="line2d_19">
    <path d="M 266.38267 175.803024
L 266.38267 9.483024
" clip-path="url(#p49fa349267)" style="fill: none; stroke-dasharray: 3.7,1.6; stroke-dashoffset: 0; stroke: #d62728; stroke-opacity: 0.1"/>
   </g>
   <g id="line2d_20">
    <path d="M 158.888861 175.803024
L 158.888861 9.483024
" clip-path="url(#p49fa349267)" style="fill: none; stroke-dasharray: 3.7,1.6; stroke-dashoffset: 0; stroke: #d62728; stroke-opacity: 0.1"/>
   </g>
   <g id="patch_131">
    <path d="M 53.328125 175.803024
L 53.328125 9.483024
" style="fill: none; stroke: #000000; stroke-width: 0.8; stroke-linejoin: miter; stroke-linecap: square"/>
   </g>
   <g id="patch_132">
    <path d="M 276.528125 175.803024
L 276.528125 9.483024
" style="fill: none; stroke: #000000; stroke-width: 0.8; stroke-linejoin: miter; stroke-linecap: square"/>
   </g>
   <g id="patch_133">
    <path d="M 53.328125 175.803024
L 276.528125 175.803024
" style="fill: none; stroke: #000000; stroke-width: 0.8; stroke-linejoin: miter; stroke-linecap: square"/>
   </g>
   <g id="patch_134">
    <path d="M 53.328125 9.483024
L 276.528125 9.483024
" style="fill: none; stroke: #000000; stroke-width: 0.8; stroke-linejoin: miter; stroke-linecap: square"/>
   </g>
   <g id="legend_1">
    <g id="patch_135">
     <path d="M 103.86875 46.839274
L 225.9875 46.839274
Q 227.9875 46.839274 227.9875 44.839274
L 227.9875 16.483024
Q 227.9875 14.483024 225.9875 14.483024
L 103.86875 14.483024
Q 101.86875 14.483024 101.86875 16.483024
L 101.86875 44.839274
Q 101.86875 46.839274 103.86875 46.839274
z
" style="fill: #ffffff; opacity: 0.8; stroke: #cccccc; stroke-linejoin: miter"/>
    </g>
    <g id="patch_136">
     <path d="M 105.86875 26.081461
L 125.86875 26.081461
L 125.86875 19.081461
L 105.86875 19.081461
z
" style="fill: #2ca02c; opacity: 0.8"/>
    </g>
    <g id="text_17">
     <!-- ILP - 2Q sequence -->
     <g transform="translate(133.86875 26.081461) scale(0.1 -0.1)">
      <defs>
       <path id="DejaVuSans-49" d="M 628 4666
L 1259 4666
L 1259 0
L 628 0
L 628 4666
z
" transform="scale(0.015625)"/>
       <path id="DejaVuSans-4c" d="M 628 4666
L 1259 4666
L 1259 531
L 3531 531
L 3531 0
L 628 0
L 628 4666
z
" transform="scale(0.015625)"/>
       <path id="DejaVuSans-50" d="M 1259 4147
L 1259 2394
L 2053 2394
Q 2494 2394 2734 2622
Q 2975 2850 2975 3272
Q 2975 3691 2734 3919
Q 2494 4147 2053 4147
L 1259 4147
z
M 628 4666
L 2053 4666
Q 2838 4666 3239 4311
Q 3641 3956 3641 3272
Q 3641 2581 3239 2228
Q 2838 1875 2053 1875
L 1259 1875
L 1259 0
L 628 0
L 628 4666
z
" transform="scale(0.015625)"/>
       <path id="DejaVuSans-2d" d="M 313 2009
L 1997 2009
L 1997 1497
L 313 1497
L 313 2009
z
" transform="scale(0.015625)"/>
       <path id="DejaVuSans-51" d="M 2522 4238
Q 1834 4238 1429 3725
Q 1025 3213 1025 2328
Q 1025 1447 1429 934
Q 1834 422 2522 422
Q 3209 422 3611 934
Q 4013 1447 4013 2328
Q 4013 3213 3611 3725
Q 3209 4238 2522 4238
z
M 3406 84
L 4238 -825
L 3475 -825
L 2784 -78
Q 2681 -84 2626 -87
Q 2572 -91 2522 -91
Q 1538 -91 948 567
Q 359 1225 359 2328
Q 359 3434 948 4092
Q 1538 4750 2522 4750
Q 3503 4750 4090 4092
Q 4678 3434 4678 2328
Q 4678 1516 4351 937
Q 4025 359 3406 84
z
" transform="scale(0.015625)"/>
      </defs>
      <use xlink:href="#DejaVuSans-49"/>
      <use xlink:href="#DejaVuSans-4c" transform="translate(29.492188 0)"/>
      <use xlink:href="#DejaVuSans-50" transform="translate(85.205078 0)"/>
      <use xlink:href="#DejaVuSans-20" transform="translate(145.507812 0)"/>
      <use xlink:href="#DejaVuSans-2d" transform="translate(177.294922 0)"/>
      <use xlink:href="#DejaVuSans-20" transform="translate(213.378906 0)"/>
      <use xlink:href="#DejaVuSans-32" transform="translate(245.166016 0)"/>
      <use xlink:href="#DejaVuSans-51" transform="translate(308.789062 0)"/>
      <use xlink:href="#DejaVuSans-20" transform="translate(387.5 0)"/>
      <use xlink:href="#DejaVuSans-73" transform="translate(419.287109 0)"/>
      <use xlink:href="#DejaVuSans-65" transform="translate(471.386719 0)"/>
      <use xlink:href="#DejaVuSans-71" transform="translate(532.910156 0)"/>
      <use xlink:href="#DejaVuSans-75" transform="translate(596.386719 0)"/>
      <use xlink:href="#DejaVuSans-65" transform="translate(659.765625 0)"/>
      <use xlink:href="#DejaVuSans-6e" transform="translate(721.289062 0)"/>
      <use xlink:href="#DejaVuSans-63" transform="translate(784.667969 0)"/>
      <use xlink:href="#DejaVuSans-65" transform="translate(839.648438 0)"/>
     </g>
    </g>
    <g id="patch_137">
     <path d="M 105.86875 40.759586
L 125.86875 40.759586
L 125.86875 33.759586
L 105.86875 33.759586
z
" style="fill: #d62728; opacity: 0.8"/>
    </g>
    <g id="text_18">
     <!-- LM - 1Q numerics -->
     <g transform="translate(133.86875 40.759586) scale(0.1 -0.1)">
      <defs>
       <path id="DejaVuSans-4d" d="M 628 4666
L 1569 4666
L 2759 1491
L 3956 4666
L 4897 4666
L 4897 0
L 4281 0
L 4281 4097
L 3078 897
L 2444 897
L 1241 4097
L 1241 0
L 628 0
L 628 4666
z
" transform="scale(0.015625)"/>
       <path id="DejaVuSans-6d" d="M 3328 2828
Q 3544 3216 3844 3400
Q 4144 3584 4550 3584
Q 5097 3584 5394 3201
Q 5691 2819 5691 2113
L 5691 0
L 5113 0
L 5113 2094
Q 5113 2597 4934 2840
Q 4756 3084 4391 3084
Q 3944 3084 3684 2787
Q 3425 2491 3425 1978
L 3425 0
L 2847 0
L 2847 2094
Q 2847 2600 2669 2842
Q 2491 3084 2119 3084
Q 1678 3084 1418 2786
Q 1159 2488 1159 1978
L 1159 0
L 581 0
L 581 3500
L 1159 3500
L 1159 2956
Q 1356 3278 1631 3431
Q 1906 3584 2284 3584
Q 2666 3584 2933 3390
Q 3200 3197 3328 2828
z
" transform="scale(0.015625)"/>
      </defs>
      <use xlink:href="#DejaVuSans-4c"/>
      <use xlink:href="#DejaVuSans-4d" transform="translate(55.712891 0)"/>
      <use xlink:href="#DejaVuSans-20" transform="translate(141.992188 0)"/>
      <use xlink:href="#DejaVuSans-2d" transform="translate(173.779297 0)"/>
      <use xlink:href="#DejaVuSans-20" transform="translate(209.863281 0)"/>
      <use xlink:href="#DejaVuSans-31" transform="translate(241.650391 0)"/>
      <use xlink:href="#DejaVuSans-51" transform="translate(305.273438 0)"/>
      <use xlink:href="#DejaVuSans-20" transform="translate(383.984375 0)"/>
      <use xlink:href="#DejaVuSans-6e" transform="translate(415.771484 0)"/>
      <use xlink:href="#DejaVuSans-75" transform="translate(479.150391 0)"/>
      <use xlink:href="#DejaVuSans-6d" transform="translate(542.529297 0)"/>
      <use xlink:href="#DejaVuSans-65" transform="translate(639.941406 0)"/>
      <use xlink:href="#DejaVuSans-72" transform="translate(701.464844 0)"/>
      <use xlink:href="#DejaVuSans-69" transform="translate(742.578125 0)"/>
      <use xlink:href="#DejaVuSans-63" transform="translate(770.361328 0)"/>
      <use xlink:href="#DejaVuSans-73" transform="translate(825.341797 0)"/>
     </g>
    </g>
   </g>
  </g>
 </g>
 <defs>
  <clipPath id="p49fa349267">
   <rect x="53.328125" y="9.483024" width="223.2" height="166.32"/>
  </clipPath>
 </defs>
</svg>
