<?xml version="1.0" encoding="utf-8" standalone="no"?>
<!DOCTYPE svg PUBLIC "-//W3C//DTD SVG 1.1//EN"
  "http://www.w3.org/Graphics/SVG/1.1/DTD/svg11.dtd">
<svg xmlns:xlink="http://www.w3.org/1999/xlink" width="277.365625pt" height="212.870821pt" viewBox="0 0 277.365625 212.870821" xmlns="http://www.w3.org/2000/svg" version="1.1">
 <metadata>
  <rdf:RDF xmlns:dc="http://purl.org/dc/elements/1.1/" xmlns:cc="http://creativecommons.org/ns#" xmlns:rdf="http://www.w3.org/1999/02/22-rdf-syntax-ns#">
   <cc:Work>
    <dc:type rdf:resource="http://purl.org/dc/dcmitype/StillImage"/>
    <dc:date>2025-03-04T12:57:47.801098</dc:date>
    <dc:format>image/svg+xml</dc:format>
    <dc:creator>
     <cc:Agent>
      <dc:title>Matplotlib v3.10.1, https://matplotlib.org/</dc:title>
     </cc:Agent>
    </dc:creator>
   </cc:Work>
  </rdf:RDF>
 </metadata>
 <defs>
  <style type="text/css">*{stroke-linejoin: round; stroke-linecap: butt}</style>
 </defs>
 <g id="figure_1">
  <g id="patch_1">
   <path d="M 0 212.870821
L 277.365625 212.870821
L 277.365625 0
L 0 0
z
" style="fill: #ffffff"/>
  </g>
  <g id="axes_1">
   <g id="patch_2">
    <path d="M 46.965625 175.314571
L 270.165625 175.314571
L 270.165625 8.994571
L 46.965625 8.994571
z
" style="fill: #ffffff"/>
   </g>
   <g id="patch_3">
    <path d="M 60.810318 175.314571
L 62.757814 175.314571
L 62.757814 167.756065
L 60.810318 167.756065
z
" clip-path="url(#p362d07f2cd)" style="fill: #1f77b4; opacity: 0.8"/>
   </g>
   <g id="patch_4">
    <path d="M 62.757814 175.314571
L 64.705309 175.314571
L 64.705309 140.151086
L 62.757814 140.151086
z
" clip-path="url(#p362d07f2cd)" style="fill: #1f77b4; opacity: 0.8"/>
   </g>
   <g id="patch_5">
    <path d="M 64.705309 175.314571
L 66.652805 175.314571
L 66.652805 113.86063
L 64.705309 113.86063
z
" clip-path="url(#p362d07f2cd)" style="fill: #1f77b4; opacity: 0.8"/>
   </g>
   <g id="patch_6">
    <path d="M 66.652805 175.314571
L 68.600301 175.314571
L 68.600301 86.584281
L 66.652805 86.584281
z
" clip-path="url(#p362d07f2cd)" style="fill: #1f77b4; opacity: 0.8"/>
   </g>
   <g id="patch_7">
    <path d="M 68.600301 175.314571
L 70.547797 175.314571
L 70.547797 111.888845
L 68.600301 111.888845
z
" clip-path="url(#p362d07f2cd)" style="fill: #1f77b4; opacity: 0.8"/>
   </g>
   <g id="patch_8">
    <path d="M 70.547797 175.314571
L 72.495293 175.314571
L 72.495293 134.892995
L 70.547797 134.892995
z
" clip-path="url(#p362d07f2cd)" style="fill: #1f77b4; opacity: 0.8"/>
   </g>
   <g id="patch_9">
    <path d="M 72.495293 175.314571
L 74.442788 175.314571
L 74.442788 156.582621
L 72.495293 156.582621
z
" clip-path="url(#p362d07f2cd)" style="fill: #1f77b4; opacity: 0.8"/>
   </g>
   <g id="patch_10">
    <path d="M 74.442788 175.314571
L 76.390284 175.314571
L 76.390284 168.084696
L 74.442788 168.084696
z
" clip-path="url(#p362d07f2cd)" style="fill: #1f77b4; opacity: 0.8"/>
   </g>
   <g id="patch_11">
    <path d="M 76.390284 175.314571
L 78.33778 175.314571
L 78.33778 171.699634
L 76.390284 171.699634
z
" clip-path="url(#p362d07f2cd)" style="fill: #1f77b4; opacity: 0.8"/>
   </g>
   <g id="patch_12">
    <path d="M 78.33778 175.314571
L 80.285276 175.314571
L 80.285276 174.65731
L 78.33778 174.65731
z
" clip-path="url(#p362d07f2cd)" style="fill: #1f77b4; opacity: 0.8"/>
   </g>
   <g id="patch_13">
    <path d="M 80.285276 175.314571
L 82.232772 175.314571
L 82.232772 174.65731
L 80.285276 174.65731
z
" clip-path="url(#p362d07f2cd)" style="fill: #1f77b4; opacity: 0.8"/>
   </g>
   <g id="patch_14">
    <path d="M 82.232772 175.314571
L 84.180267 175.314571
L 84.180267 174.985941
L 82.232772 174.985941
z
" clip-path="url(#p362d07f2cd)" style="fill: #1f77b4; opacity: 0.8"/>
   </g>
   <g id="patch_15">
    <path d="M 84.180267 175.314571
L 86.127763 175.314571
L 86.127763 174.985941
L 84.180267 174.985941
z
" clip-path="url(#p362d07f2cd)" style="fill: #1f77b4; opacity: 0.8"/>
   </g>
   <g id="patch_16">
    <path d="M 86.127763 175.314571
L 88.075259 175.314571
L 88.075259 175.314571
L 86.127763 175.314571
z
" clip-path="url(#p362d07f2cd)" style="fill: #1f77b4; opacity: 0.8"/>
   </g>
   <g id="patch_17">
    <path d="M 88.075259 175.314571
L 90.022755 175.314571
L 90.022755 175.314571
L 88.075259 175.314571
z
" clip-path="url(#p362d07f2cd)" style="fill: #1f77b4; opacity: 0.8"/>
   </g>
   <g id="patch_18">
    <path d="M 90.022755 175.314571
L 91.970251 175.314571
L 91.970251 175.314571
L 90.022755 175.314571
z
" clip-path="url(#p362d07f2cd)" style="fill: #1f77b4; opacity: 0.8"/>
   </g>
   <g id="patch_19">
    <path d="M 91.970251 175.314571
L 93.917747 175.314571
L 93.917747 175.314571
L 91.970251 175.314571
z
" clip-path="url(#p362d07f2cd)" style="fill: #1f77b4; opacity: 0.8"/>
   </g>
   <g id="patch_20">
    <path d="M 93.917747 175.314571
L 95.865242 175.314571
L 95.865242 175.314571
L 93.917747 175.314571
z
" clip-path="url(#p362d07f2cd)" style="fill: #1f77b4; opacity: 0.8"/>
   </g>
   <g id="patch_21">
    <path d="M 95.865242 175.314571
L 97.812738 175.314571
L 97.812738 175.314571
L 95.865242 175.314571
z
" clip-path="url(#p362d07f2cd)" style="fill: #1f77b4; opacity: 0.8"/>
   </g>
   <g id="patch_22">
    <path d="M 97.812738 175.314571
L 99.760234 175.314571
L 99.760234 175.314571
L 97.812738 175.314571
z
" clip-path="url(#p362d07f2cd)" style="fill: #1f77b4; opacity: 0.8"/>
   </g>
   <g id="patch_23">
    <path d="M 99.760234 175.314571
L 101.70773 175.314571
L 101.70773 175.314571
L 99.760234 175.314571
z
" clip-path="url(#p362d07f2cd)" style="fill: #1f77b4; opacity: 0.8"/>
   </g>
   <g id="patch_24">
    <path d="M 101.70773 175.314571
L 103.655226 175.314571
L 103.655226 175.314571
L 101.70773 175.314571
z
" clip-path="url(#p362d07f2cd)" style="fill: #1f77b4; opacity: 0.8"/>
   </g>
   <g id="patch_25">
    <path d="M 103.655226 175.314571
L 105.602721 175.314571
L 105.602721 175.314571
L 103.655226 175.314571
z
" clip-path="url(#p362d07f2cd)" style="fill: #1f77b4; opacity: 0.8"/>
   </g>
   <g id="patch_26">
    <path d="M 105.602721 175.314571
L 107.550217 175.314571
L 107.550217 175.314571
L 105.602721 175.314571
z
" clip-path="url(#p362d07f2cd)" style="fill: #1f77b4; opacity: 0.8"/>
   </g>
   <g id="patch_27">
    <path d="M 107.550217 175.314571
L 109.497713 175.314571
L 109.497713 175.314571
L 107.550217 175.314571
z
" clip-path="url(#p362d07f2cd)" style="fill: #1f77b4; opacity: 0.8"/>
   </g>
   <g id="patch_28">
    <path d="M 109.497713 175.314571
L 111.445209 175.314571
L 111.445209 175.314571
L 109.497713 175.314571
z
" clip-path="url(#p362d07f2cd)" style="fill: #1f77b4; opacity: 0.8"/>
   </g>
   <g id="patch_29">
    <path d="M 111.445209 175.314571
L 113.392705 175.314571
L 113.392705 175.314571
L 111.445209 175.314571
z
" clip-path="url(#p362d07f2cd)" style="fill: #1f77b4; opacity: 0.8"/>
   </g>
   <g id="patch_30">
    <path d="M 113.392705 175.314571
L 115.3402 175.314571
L 115.3402 175.314571
L 113.392705 175.314571
z
" clip-path="url(#p362d07f2cd)" style="fill: #1f77b4; opacity: 0.8"/>
   </g>
   <g id="patch_31">
    <path d="M 115.3402 175.314571
L 117.287696 175.314571
L 117.287696 175.314571
L 115.3402 175.314571
z
" clip-path="url(#p362d07f2cd)" style="fill: #1f77b4; opacity: 0.8"/>
   </g>
   <g id="patch_32">
    <path d="M 117.287696 175.314571
L 119.235192 175.314571
L 119.235192 175.314571
L 117.287696 175.314571
z
" clip-path="url(#p362d07f2cd)" style="fill: #1f77b4; opacity: 0.8"/>
   </g>
   <g id="patch_33">
    <path d="M 119.235192 175.314571
L 121.182688 175.314571
L 121.182688 175.314571
L 119.235192 175.314571
z
" clip-path="url(#p362d07f2cd)" style="fill: #1f77b4; opacity: 0.8"/>
   </g>
   <g id="patch_34">
    <path d="M 121.182688 175.314571
L 123.130184 175.314571
L 123.130184 175.314571
L 121.182688 175.314571
z
" clip-path="url(#p362d07f2cd)" style="fill: #1f77b4; opacity: 0.8"/>
   </g>
   <g id="patch_35">
    <path d="M 123.130184 175.314571
L 125.077679 175.314571
L 125.077679 175.314571
L 123.130184 175.314571
z
" clip-path="url(#p362d07f2cd)" style="fill: #1f77b4; opacity: 0.8"/>
   </g>
   <g id="patch_36">
    <path d="M 125.077679 175.314571
L 127.025175 175.314571
L 127.025175 175.314571
L 125.077679 175.314571
z
" clip-path="url(#p362d07f2cd)" style="fill: #1f77b4; opacity: 0.8"/>
   </g>
   <g id="patch_37">
    <path d="M 127.025175 175.314571
L 128.972671 175.314571
L 128.972671 175.314571
L 127.025175 175.314571
z
" clip-path="url(#p362d07f2cd)" style="fill: #1f77b4; opacity: 0.8"/>
   </g>
   <g id="patch_38">
    <path d="M 128.972671 175.314571
L 130.920167 175.314571
L 130.920167 175.314571
L 128.972671 175.314571
z
" clip-path="url(#p362d07f2cd)" style="fill: #1f77b4; opacity: 0.8"/>
   </g>
   <g id="patch_39">
    <path d="M 130.920167 175.314571
L 132.867663 175.314571
L 132.867663 175.314571
L 130.920167 175.314571
z
" clip-path="url(#p362d07f2cd)" style="fill: #1f77b4; opacity: 0.8"/>
   </g>
   <g id="patch_40">
    <path d="M 132.867663 175.314571
L 134.815158 175.314571
L 134.815158 175.314571
L 132.867663 175.314571
z
" clip-path="url(#p362d07f2cd)" style="fill: #1f77b4; opacity: 0.8"/>
   </g>
   <g id="patch_41">
    <path d="M 134.815158 175.314571
L 136.762654 175.314571
L 136.762654 175.314571
L 134.815158 175.314571
z
" clip-path="url(#p362d07f2cd)" style="fill: #1f77b4; opacity: 0.8"/>
   </g>
   <g id="patch_42">
    <path d="M 136.762654 175.314571
L 138.71015 175.314571
L 138.71015 175.314571
L 136.762654 175.314571
z
" clip-path="url(#p362d07f2cd)" style="fill: #1f77b4; opacity: 0.8"/>
   </g>
   <g id="patch_43">
    <path d="M 138.71015 175.314571
L 140.657646 175.314571
L 140.657646 175.314571
L 138.71015 175.314571
z
" clip-path="url(#p362d07f2cd)" style="fill: #1f77b4; opacity: 0.8"/>
   </g>
   <g id="patch_44">
    <path d="M 140.657646 175.314571
L 142.605142 175.314571
L 142.605142 175.314571
L 140.657646 175.314571
z
" clip-path="url(#p362d07f2cd)" style="fill: #1f77b4; opacity: 0.8"/>
   </g>
   <g id="patch_45">
    <path d="M 142.605142 175.314571
L 144.552638 175.314571
L 144.552638 175.314571
L 142.605142 175.314571
z
" clip-path="url(#p362d07f2cd)" style="fill: #1f77b4; opacity: 0.8"/>
   </g>
   <g id="patch_46">
    <path d="M 144.552638 175.314571
L 146.500133 175.314571
L 146.500133 175.314571
L 144.552638 175.314571
z
" clip-path="url(#p362d07f2cd)" style="fill: #1f77b4; opacity: 0.8"/>
   </g>
   <g id="patch_47">
    <path d="M 146.500133 175.314571
L 148.447629 175.314571
L 148.447629 175.314571
L 146.500133 175.314571
z
" clip-path="url(#p362d07f2cd)" style="fill: #1f77b4; opacity: 0.8"/>
   </g>
   <g id="patch_48">
    <path d="M 148.447629 175.314571
L 150.395125 175.314571
L 150.395125 175.314571
L 148.447629 175.314571
z
" clip-path="url(#p362d07f2cd)" style="fill: #1f77b4; opacity: 0.8"/>
   </g>
   <g id="patch_49">
    <path d="M 150.395125 175.314571
L 152.342621 175.314571
L 152.342621 175.314571
L 150.395125 175.314571
z
" clip-path="url(#p362d07f2cd)" style="fill: #1f77b4; opacity: 0.8"/>
   </g>
   <g id="patch_50">
    <path d="M 152.342621 175.314571
L 154.290117 175.314571
L 154.290117 175.314571
L 152.342621 175.314571
z
" clip-path="url(#p362d07f2cd)" style="fill: #1f77b4; opacity: 0.8"/>
   </g>
   <g id="patch_51">
    <path d="M 154.290117 175.314571
L 156.237612 175.314571
L 156.237612 175.314571
L 154.290117 175.314571
z
" clip-path="url(#p362d07f2cd)" style="fill: #1f77b4; opacity: 0.8"/>
   </g>
   <g id="patch_52">
    <path d="M 156.237612 175.314571
L 158.185108 175.314571
L 158.185108 175.314571
L 156.237612 175.314571
z
" clip-path="url(#p362d07f2cd)" style="fill: #1f77b4; opacity: 0.8"/>
   </g>
   <g id="patch_53">
    <path d="M 158.185108 175.314571
L 160.132604 175.314571
L 160.132604 175.314571
L 158.185108 175.314571
z
" clip-path="url(#p362d07f2cd)" style="fill: #1f77b4; opacity: 0.8"/>
   </g>
   <g id="patch_54">
    <path d="M 160.132604 175.314571
L 162.0801 175.314571
L 162.0801 175.314571
L 160.132604 175.314571
z
" clip-path="url(#p362d07f2cd)" style="fill: #1f77b4; opacity: 0.8"/>
   </g>
   <g id="patch_55">
    <path d="M 162.0801 175.314571
L 164.027596 175.314571
L 164.027596 175.314571
L 162.0801 175.314571
z
" clip-path="url(#p362d07f2cd)" style="fill: #1f77b4; opacity: 0.8"/>
   </g>
   <g id="patch_56">
    <path d="M 164.027596 175.314571
L 165.975091 175.314571
L 165.975091 175.314571
L 164.027596 175.314571
z
" clip-path="url(#p362d07f2cd)" style="fill: #1f77b4; opacity: 0.8"/>
   </g>
   <g id="patch_57">
    <path d="M 165.975091 175.314571
L 167.922587 175.314571
L 167.922587 175.314571
L 165.975091 175.314571
z
" clip-path="url(#p362d07f2cd)" style="fill: #1f77b4; opacity: 0.8"/>
   </g>
   <g id="patch_58">
    <path d="M 167.922587 175.314571
L 169.870083 175.314571
L 169.870083 175.314571
L 167.922587 175.314571
z
" clip-path="url(#p362d07f2cd)" style="fill: #1f77b4; opacity: 0.8"/>
   </g>
   <g id="patch_59">
    <path d="M 169.870083 175.314571
L 171.817579 175.314571
L 171.817579 175.314571
L 169.870083 175.314571
z
" clip-path="url(#p362d07f2cd)" style="fill: #1f77b4; opacity: 0.8"/>
   </g>
   <g id="patch_60">
    <path d="M 171.817579 175.314571
L 173.765075 175.314571
L 173.765075 175.314571
L 171.817579 175.314571
z
" clip-path="url(#p362d07f2cd)" style="fill: #1f77b4; opacity: 0.8"/>
   </g>
   <g id="patch_61">
    <path d="M 173.765075 175.314571
L 175.71257 175.314571
L 175.71257 175.314571
L 173.765075 175.314571
z
" clip-path="url(#p362d07f2cd)" style="fill: #1f77b4; opacity: 0.8"/>
   </g>
   <g id="patch_62">
    <path d="M 175.71257 175.314571
L 177.660066 175.314571
L 177.660066 175.314571
L 175.71257 175.314571
z
" clip-path="url(#p362d07f2cd)" style="fill: #1f77b4; opacity: 0.8"/>
   </g>
   <g id="patch_63">
    <path d="M 177.660066 175.314571
L 179.607562 175.314571
L 179.607562 175.314571
L 177.660066 175.314571
z
" clip-path="url(#p362d07f2cd)" style="fill: #1f77b4; opacity: 0.8"/>
   </g>
   <g id="patch_64">
    <path d="M 179.607562 175.314571
L 181.555058 175.314571
L 181.555058 175.314571
L 179.607562 175.314571
z
" clip-path="url(#p362d07f2cd)" style="fill: #1f77b4; opacity: 0.8"/>
   </g>
   <g id="patch_65">
    <path d="M 181.555058 175.314571
L 183.502554 175.314571
L 183.502554 175.314571
L 181.555058 175.314571
z
" clip-path="url(#p362d07f2cd)" style="fill: #1f77b4; opacity: 0.8"/>
   </g>
   <g id="patch_66">
    <path d="M 183.502554 175.314571
L 185.45005 175.314571
L 185.45005 174.985941
L 183.502554 174.985941
z
" clip-path="url(#p362d07f2cd)" style="fill: #1f77b4; opacity: 0.8"/>
   </g>
   <g id="patch_67">
    <path d="M 118.971833 175.314571
L 120.010556 175.314571
L 120.010556 174.985941
L 118.971833 174.985941
z
" clip-path="url(#p362d07f2cd)" style="fill: #ff7f0e; opacity: 0.8"/>
   </g>
   <g id="patch_68">
    <path d="M 120.010556 175.314571
L 121.049278 175.314571
L 121.049278 175.314571
L 120.010556 175.314571
z
" clip-path="url(#p362d07f2cd)" style="fill: #ff7f0e; opacity: 0.8"/>
   </g>
   <g id="patch_69">
    <path d="M 121.049278 175.314571
L 122.088 175.314571
L 122.088 175.314571
L 121.049278 175.314571
z
" clip-path="url(#p362d07f2cd)" style="fill: #ff7f0e; opacity: 0.8"/>
   </g>
   <g id="patch_70">
    <path d="M 122.088 175.314571
L 123.126722 175.314571
L 123.126722 175.314571
L 122.088 175.314571
z
" clip-path="url(#p362d07f2cd)" style="fill: #ff7f0e; opacity: 0.8"/>
   </g>
   <g id="patch_71">
    <path d="M 123.126722 175.314571
L 124.165444 175.314571
L 124.165444 175.314571
L 123.126722 175.314571
z
" clip-path="url(#p362d07f2cd)" style="fill: #ff7f0e; opacity: 0.8"/>
   </g>
   <g id="patch_72">
    <path d="M 124.165444 175.314571
L 125.204166 175.314571
L 125.204166 175.314571
L 124.165444 175.314571
z
" clip-path="url(#p362d07f2cd)" style="fill: #ff7f0e; opacity: 0.8"/>
   </g>
   <g id="patch_73">
    <path d="M 125.204166 175.314571
L 126.242888 175.314571
L 126.242888 175.314571
L 125.204166 175.314571
z
" clip-path="url(#p362d07f2cd)" style="fill: #ff7f0e; opacity: 0.8"/>
   </g>
   <g id="patch_74">
    <path d="M 126.242888 175.314571
L 127.28161 175.314571
L 127.28161 175.314571
L 126.242888 175.314571
z
" clip-path="url(#p362d07f2cd)" style="fill: #ff7f0e; opacity: 0.8"/>
   </g>
   <g id="patch_75">
    <path d="M 127.28161 175.314571
L 128.320333 175.314571
L 128.320333 174.985941
L 127.28161 174.985941
z
" clip-path="url(#p362d07f2cd)" style="fill: #ff7f0e; opacity: 0.8"/>
   </g>
   <g id="patch_76">
    <path d="M 128.320333 175.314571
L 129.359055 175.314571
L 129.359055 174.328679
L 128.320333 174.328679
z
" clip-path="url(#p362d07f2cd)" style="fill: #ff7f0e; opacity: 0.8"/>
   </g>
   <g id="patch_77">
    <path d="M 129.359055 175.314571
L 130.397777 175.314571
L 130.397777 174.65731
L 129.359055 174.65731
z
" clip-path="url(#p362d07f2cd)" style="fill: #ff7f0e; opacity: 0.8"/>
   </g>
   <g id="patch_78">
    <path d="M 130.397777 175.314571
L 131.436499 175.314571
L 131.436499 174.000049
L 130.397777 174.000049
z
" clip-path="url(#p362d07f2cd)" style="fill: #ff7f0e; opacity: 0.8"/>
   </g>
   <g id="patch_79">
    <path d="M 131.436499 175.314571
L 132.475221 175.314571
L 132.475221 173.671418
L 131.436499 173.671418
z
" clip-path="url(#p362d07f2cd)" style="fill: #ff7f0e; opacity: 0.8"/>
   </g>
   <g id="patch_80">
    <path d="M 132.475221 175.314571
L 133.513943 175.314571
L 133.513943 171.371003
L 132.475221 171.371003
z
" clip-path="url(#p362d07f2cd)" style="fill: #ff7f0e; opacity: 0.8"/>
   </g>
   <g id="patch_81">
    <path d="M 133.513943 175.314571
L 134.552665 175.314571
L 134.552665 171.042372
L 133.513943 171.042372
z
" clip-path="url(#p362d07f2cd)" style="fill: #ff7f0e; opacity: 0.8"/>
   </g>
   <g id="patch_82">
    <path d="M 134.552665 175.314571
L 135.591387 175.314571
L 135.591387 168.084696
L 134.552665 168.084696
z
" clip-path="url(#p362d07f2cd)" style="fill: #ff7f0e; opacity: 0.8"/>
   </g>
   <g id="patch_83">
    <path d="M 135.591387 175.314571
L 136.63011 175.314571
L 136.63011 172.028264
L 135.591387 172.028264
z
" clip-path="url(#p362d07f2cd)" style="fill: #ff7f0e; opacity: 0.8"/>
   </g>
   <g id="patch_84">
    <path d="M 136.63011 175.314571
L 137.668832 175.314571
L 137.668832 166.770173
L 136.63011 166.770173
z
" clip-path="url(#p362d07f2cd)" style="fill: #ff7f0e; opacity: 0.8"/>
   </g>
   <g id="patch_85">
    <path d="M 137.668832 175.314571
L 138.707554 175.314571
L 138.707554 169.399219
L 137.668832 169.399219
z
" clip-path="url(#p362d07f2cd)" style="fill: #ff7f0e; opacity: 0.8"/>
   </g>
   <g id="patch_86">
    <path d="M 138.707554 175.314571
L 139.746276 175.314571
L 139.746276 168.741957
L 138.707554 168.741957
z
" clip-path="url(#p362d07f2cd)" style="fill: #ff7f0e; opacity: 0.8"/>
   </g>
   <g id="patch_87">
    <path d="M 139.746276 175.314571
L 140.784998 175.314571
L 140.784998 171.699634
L 139.746276 171.699634
z
" clip-path="url(#p362d07f2cd)" style="fill: #ff7f0e; opacity: 0.8"/>
   </g>
   <g id="patch_88">
    <path d="M 140.784998 175.314571
L 141.82372 175.314571
L 141.82372 168.084696
L 140.784998 168.084696
z
" clip-path="url(#p362d07f2cd)" style="fill: #ff7f0e; opacity: 0.8"/>
   </g>
   <g id="patch_89">
    <path d="M 141.82372 175.314571
L 142.862442 175.314571
L 142.862442 167.756065
L 141.82372 167.756065
z
" clip-path="url(#p362d07f2cd)" style="fill: #ff7f0e; opacity: 0.8"/>
   </g>
   <g id="patch_90">
    <path d="M 142.862442 175.314571
L 143.901164 175.314571
L 143.901164 172.028264
L 142.862442 172.028264
z
" clip-path="url(#p362d07f2cd)" style="fill: #ff7f0e; opacity: 0.8"/>
   </g>
   <g id="patch_91">
    <path d="M 143.901164 175.314571
L 144.939887 175.314571
L 144.939887 168.413327
L 143.901164 168.413327
z
" clip-path="url(#p362d07f2cd)" style="fill: #ff7f0e; opacity: 0.8"/>
   </g>
   <g id="patch_92">
    <path d="M 144.939887 175.314571
L 145.978609 175.314571
L 145.978609 169.727849
L 144.939887 169.727849
z
" clip-path="url(#p362d07f2cd)" style="fill: #ff7f0e; opacity: 0.8"/>
   </g>
   <g id="patch_93">
    <path d="M 145.978609 175.314571
L 147.017331 175.314571
L 147.017331 170.05648
L 145.978609 170.05648
z
" clip-path="url(#p362d07f2cd)" style="fill: #ff7f0e; opacity: 0.8"/>
   </g>
   <g id="patch_94">
    <path d="M 147.017331 175.314571
L 148.056053 175.314571
L 148.056053 171.042372
L 147.017331 171.042372
z
" clip-path="url(#p362d07f2cd)" style="fill: #ff7f0e; opacity: 0.8"/>
   </g>
   <g id="patch_95">
    <path d="M 148.056053 175.314571
L 149.094775 175.314571
L 149.094775 170.05648
L 148.056053 170.05648
z
" clip-path="url(#p362d07f2cd)" style="fill: #ff7f0e; opacity: 0.8"/>
   </g>
   <g id="patch_96">
    <path d="M 149.094775 175.314571
L 150.133497 175.314571
L 150.133497 170.385111
L 149.094775 170.385111
z
" clip-path="url(#p362d07f2cd)" style="fill: #ff7f0e; opacity: 0.8"/>
   </g>
   <g id="patch_97">
    <path d="M 150.133497 175.314571
L 151.172219 175.314571
L 151.172219 170.385111
L 150.133497 170.385111
z
" clip-path="url(#p362d07f2cd)" style="fill: #ff7f0e; opacity: 0.8"/>
   </g>
   <g id="patch_98">
    <path d="M 151.172219 175.314571
L 152.210941 175.314571
L 152.210941 173.342787
L 151.172219 173.342787
z
" clip-path="url(#p362d07f2cd)" style="fill: #ff7f0e; opacity: 0.8"/>
   </g>
   <g id="patch_99">
    <path d="M 152.210941 175.314571
L 153.249664 175.314571
L 153.249664 170.713742
L 152.210941 170.713742
z
" clip-path="url(#p362d07f2cd)" style="fill: #ff7f0e; opacity: 0.8"/>
   </g>
   <g id="patch_100">
    <path d="M 153.249664 175.314571
L 154.288386 175.314571
L 154.288386 172.356895
L 153.249664 172.356895
z
" clip-path="url(#p362d07f2cd)" style="fill: #ff7f0e; opacity: 0.8"/>
   </g>
   <g id="patch_101">
    <path d="M 154.288386 175.314571
L 155.327108 175.314571
L 155.327108 172.028264
L 154.288386 172.028264
z
" clip-path="url(#p362d07f2cd)" style="fill: #ff7f0e; opacity: 0.8"/>
   </g>
   <g id="patch_102">
    <path d="M 155.327108 175.314571
L 156.36583 175.314571
L 156.36583 174.000049
L 155.327108 174.000049
z
" clip-path="url(#p362d07f2cd)" style="fill: #ff7f0e; opacity: 0.8"/>
   </g>
   <g id="patch_103">
    <path d="M 156.36583 175.314571
L 157.404552 175.314571
L 157.404552 174.000049
L 156.36583 174.000049
z
" clip-path="url(#p362d07f2cd)" style="fill: #ff7f0e; opacity: 0.8"/>
   </g>
   <g id="patch_104">
    <path d="M 157.404552 175.314571
L 158.443274 175.314571
L 158.443274 173.014157
L 157.404552 173.014157
z
" clip-path="url(#p362d07f2cd)" style="fill: #ff7f0e; opacity: 0.8"/>
   </g>
   <g id="patch_105">
    <path d="M 158.443274 175.314571
L 159.481996 175.314571
L 159.481996 174.328679
L 158.443274 174.328679
z
" clip-path="url(#p362d07f2cd)" style="fill: #ff7f0e; opacity: 0.8"/>
   </g>
   <g id="patch_106">
    <path d="M 159.481996 175.314571
L 160.520718 175.314571
L 160.520718 173.671418
L 159.481996 173.671418
z
" clip-path="url(#p362d07f2cd)" style="fill: #ff7f0e; opacity: 0.8"/>
   </g>
   <g id="patch_107">
    <path d="M 160.520718 175.314571
L 161.559441 175.314571
L 161.559441 174.65731
L 160.520718 174.65731
z
" clip-path="url(#p362d07f2cd)" style="fill: #ff7f0e; opacity: 0.8"/>
   </g>
   <g id="patch_108">
    <path d="M 161.559441 175.314571
L 162.598163 175.314571
L 162.598163 173.342787
L 161.559441 173.342787
z
" clip-path="url(#p362d07f2cd)" style="fill: #ff7f0e; opacity: 0.8"/>
   </g>
   <g id="patch_109">
    <path d="M 162.598163 175.314571
L 163.636885 175.314571
L 163.636885 174.000049
L 162.598163 174.000049
z
" clip-path="url(#p362d07f2cd)" style="fill: #ff7f0e; opacity: 0.8"/>
   </g>
   <g id="patch_110">
    <path d="M 163.636885 175.314571
L 164.675607 175.314571
L 164.675607 174.328679
L 163.636885 174.328679
z
" clip-path="url(#p362d07f2cd)" style="fill: #ff7f0e; opacity: 0.8"/>
   </g>
   <g id="patch_111">
    <path d="M 164.675607 175.314571
L 165.714329 175.314571
L 165.714329 174.328679
L 164.675607 174.328679
z
" clip-path="url(#p362d07f2cd)" style="fill: #ff7f0e; opacity: 0.8"/>
   </g>
   <g id="patch_112">
    <path d="M 165.714329 175.314571
L 166.753051 175.314571
L 166.753051 173.342787
L 165.714329 173.342787
z
" clip-path="url(#p362d07f2cd)" style="fill: #ff7f0e; opacity: 0.8"/>
   </g>
   <g id="patch_113">
    <path d="M 166.753051 175.314571
L 167.791773 175.314571
L 167.791773 173.671418
L 166.753051 173.671418
z
" clip-path="url(#p362d07f2cd)" style="fill: #ff7f0e; opacity: 0.8"/>
   </g>
   <g id="patch_114">
    <path d="M 167.791773 175.314571
L 168.830495 175.314571
L 168.830495 174.65731
L 167.791773 174.65731
z
" clip-path="url(#p362d07f2cd)" style="fill: #ff7f0e; opacity: 0.8"/>
   </g>
   <g id="patch_115">
    <path d="M 168.830495 175.314571
L 169.869218 175.314571
L 169.869218 173.014157
L 168.830495 173.014157
z
" clip-path="url(#p362d07f2cd)" style="fill: #ff7f0e; opacity: 0.8"/>
   </g>
   <g id="patch_116">
    <path d="M 169.869218 175.314571
L 170.90794 175.314571
L 170.90794 172.356895
L 169.869218 172.356895
z
" clip-path="url(#p362d07f2cd)" style="fill: #ff7f0e; opacity: 0.8"/>
   </g>
   <g id="patch_117">
    <path d="M 170.90794 175.314571
L 171.946662 175.314571
L 171.946662 172.028264
L 170.90794 172.028264
z
" clip-path="url(#p362d07f2cd)" style="fill: #ff7f0e; opacity: 0.8"/>
   </g>
   <g id="patch_118">
    <path d="M 171.946662 175.314571
L 172.985384 175.314571
L 172.985384 173.342787
L 171.946662 173.342787
z
" clip-path="url(#p362d07f2cd)" style="fill: #ff7f0e; opacity: 0.8"/>
   </g>
   <g id="patch_119">
    <path d="M 172.985384 175.314571
L 174.024106 175.314571
L 174.024106 174.328679
L 172.985384 174.328679
z
" clip-path="url(#p362d07f2cd)" style="fill: #ff7f0e; opacity: 0.8"/>
   </g>
   <g id="patch_120">
    <path d="M 174.024106 175.314571
L 175.062828 175.314571
L 175.062828 173.671418
L 174.024106 173.671418
z
" clip-path="url(#p362d07f2cd)" style="fill: #ff7f0e; opacity: 0.8"/>
   </g>
   <g id="patch_121">
    <path d="M 175.062828 175.314571
L 176.10155 175.314571
L 176.10155 173.342787
L 175.062828 173.342787
z
" clip-path="url(#p362d07f2cd)" style="fill: #ff7f0e; opacity: 0.8"/>
   </g>
   <g id="patch_122">
    <path d="M 176.10155 175.314571
L 177.140273 175.314571
L 177.140273 171.042372
L 176.10155 171.042372
z
" clip-path="url(#p362d07f2cd)" style="fill: #ff7f0e; opacity: 0.8"/>
   </g>
   <g id="patch_123">
    <path d="M 177.140273 175.314571
L 178.178995 175.314571
L 178.178995 172.356895
L 177.140273 172.356895
z
" clip-path="url(#p362d07f2cd)" style="fill: #ff7f0e; opacity: 0.8"/>
   </g>
   <g id="patch_124">
    <path d="M 178.178995 175.314571
L 179.217717 175.314571
L 179.217717 173.014157
L 178.178995 173.014157
z
" clip-path="url(#p362d07f2cd)" style="fill: #ff7f0e; opacity: 0.8"/>
   </g>
   <g id="patch_125">
    <path d="M 179.217717 175.314571
L 180.256439 175.314571
L 180.256439 174.000049
L 179.217717 174.000049
z
" clip-path="url(#p362d07f2cd)" style="fill: #ff7f0e; opacity: 0.8"/>
   </g>
   <g id="patch_126">
    <path d="M 180.256439 175.314571
L 181.295161 175.314571
L 181.295161 172.685526
L 180.256439 172.685526
z
" clip-path="url(#p362d07f2cd)" style="fill: #ff7f0e; opacity: 0.8"/>
   </g>
   <g id="patch_127">
    <path d="M 181.295161 175.314571
L 182.333883 175.314571
L 182.333883 173.014157
L 181.295161 173.014157
z
" clip-path="url(#p362d07f2cd)" style="fill: #ff7f0e; opacity: 0.8"/>
   </g>
   <g id="patch_128">
    <path d="M 182.333883 175.314571
L 183.372605 175.314571
L 183.372605 173.014157
L 182.333883 173.014157
z
" clip-path="url(#p362d07f2cd)" style="fill: #ff7f0e; opacity: 0.8"/>
   </g>
   <g id="patch_129">
    <path d="M 183.372605 175.314571
L 184.411327 175.314571
L 184.411327 173.014157
L 183.372605 173.014157
z
" clip-path="url(#p362d07f2cd)" style="fill: #ff7f0e; opacity: 0.8"/>
   </g>
   <g id="patch_130">
    <path d="M 184.411327 175.314571
L 185.45005 175.314571
L 185.45005 16.914571
L 184.411327 16.914571
z
" clip-path="url(#p362d07f2cd)" style="fill: #ff7f0e; opacity: 0.8"/>
   </g>
   <g id="matplotlib.axis_1">
    <g id="xtick_1">
     <g id="line2d_1">
      <defs>
       <path id="m4526a8c096" d="M 0 0
L 0 3.5
" style="stroke: #000000; stroke-width: 0.8"/>
      </defs>
      <g>
       <use xlink:href="#m4526a8c096" x="52.33696" y="175.314571" style="stroke: #000000; stroke-width: 0.8"/>
      </g>
     </g>
     <g id="text_1">
      <!-- 0 -->
      <g transform="translate(49.15571 189.913009) scale(0.1 -0.1)">
       <defs>
        <path id="DejaVuSans-30" d="M 2034 4250
Q 1547 4250 1301 3770
Q 1056 3291 1056 2328
Q 1056 1369 1301 889
Q 1547 409 2034 409
Q 2525 409 2770 889
Q 3016 1369 3016 2328
Q 3016 3291 2770 3770
Q 2525 4250 2034 4250
z
M 2034 4750
Q 2819 4750 3233 4129
Q 3647 3509 3647 2328
Q 3647 1150 3233 529
Q 2819 -91 2034 -91
Q 1250 -91 836 529
Q 422 1150 422 2328
Q 422 3509 836 4129
Q 1250 4750 2034 4750
z
" transform="scale(0.015625)"/>
       </defs>
       <use xlink:href="#DejaVuSans-30"/>
      </g>
     </g>
    </g>
    <g id="xtick_2">
     <g id="line2d_2">
      <g>
       <use xlink:href="#m4526a8c096" x="85.615232" y="175.314571" style="stroke: #000000; stroke-width: 0.8"/>
      </g>
     </g>
     <g id="text_2">
      <!-- 2 -->
      <g transform="translate(82.433982 189.913009) scale(0.1 -0.1)">
       <defs>
        <path id="DejaVuSans-32" d="M 1228 531
L 3431 531
L 3431 0
L 469 0
L 469 531
Q 828 903 1448 1529
Q 2069 2156 2228 2338
Q 2531 2678 2651 2914
Q 2772 3150 2772 3378
Q 2772 3750 2511 3984
Q 2250 4219 1831 4219
Q 1534 4219 1204 4116
Q 875 4013 500 3803
L 500 4441
Q 881 4594 1212 4672
Q 1544 4750 1819 4750
Q 2544 4750 2975 4387
Q 3406 4025 3406 3419
Q 3406 3131 3298 2873
Q 3191 2616 2906 2266
Q 2828 2175 2409 1742
Q 1991 1309 1228 531
z
" transform="scale(0.015625)"/>
       </defs>
       <use xlink:href="#DejaVuSans-32"/>
      </g>
     </g>
    </g>
    <g id="xtick_3">
     <g id="line2d_3">
      <g>
       <use xlink:href="#m4526a8c096" x="118.893505" y="175.314571" style="stroke: #000000; stroke-width: 0.8"/>
      </g>
     </g>
     <g id="text_3">
      <!-- 4 -->
      <g transform="translate(115.712255 189.913009) scale(0.1 -0.1)">
       <defs>
        <path id="DejaVuSans-34" d="M 2419 4116
L 825 1625
L 2419 1625
L 2419 4116
z
M 2253 4666
L 3047 4666
L 3047 1625
L 3713 1625
L 3713 1100
L 3047 1100
L 3047 0
L 2419 0
L 2419 1100
L 313 1100
L 313 1709
L 2253 4666
z
" transform="scale(0.015625)"/>
       </defs>
       <use xlink:href="#DejaVuSans-34"/>
      </g>
     </g>
    </g>
    <g id="xtick_4">
     <g id="line2d_4">
      <g>
       <use xlink:href="#m4526a8c096" x="152.171777" y="175.314571" style="stroke: #000000; stroke-width: 0.8"/>
      </g>
     </g>
     <g id="text_4">
      <!-- 6 -->
      <g transform="translate(148.990527 189.913009) scale(0.1 -0.1)">
       <defs>
        <path id="DejaVuSans-36" d="M 2113 2584
Q 1688 2584 1439 2293
Q 1191 2003 1191 1497
Q 1191 994 1439 701
Q 1688 409 2113 409
Q 2538 409 2786 701
Q 3034 994 3034 1497
Q 3034 2003 2786 2293
Q 2538 2584 2113 2584
z
M 3366 4563
L 3366 3988
Q 3128 4100 2886 4159
Q 2644 4219 2406 4219
Q 1781 4219 1451 3797
Q 1122 3375 1075 2522
Q 1259 2794 1537 2939
Q 1816 3084 2150 3084
Q 2853 3084 3261 2657
Q 3669 2231 3669 1497
Q 3669 778 3244 343
Q 2819 -91 2113 -91
Q 1303 -91 875 529
Q 447 1150 447 2328
Q 447 3434 972 4092
Q 1497 4750 2381 4750
Q 2619 4750 2861 4703
Q 3103 4656 3366 4563
z
" transform="scale(0.015625)"/>
       </defs>
       <use xlink:href="#DejaVuSans-36"/>
      </g>
     </g>
    </g>
    <g id="xtick_5">
     <g id="line2d_5">
      <g>
       <use xlink:href="#m4526a8c096" x="185.45005" y="175.314571" style="stroke: #000000; stroke-width: 0.8"/>
      </g>
     </g>
     <g id="text_5">
      <!-- 8 -->
      <g transform="translate(182.2688 189.913009) scale(0.1 -0.1)">
       <defs>
        <path id="DejaVuSans-38" d="M 2034 2216
Q 1584 2216 1326 1975
Q 1069 1734 1069 1313
Q 1069 891 1326 650
Q 1584 409 2034 409
Q 2484 409 2743 651
Q 3003 894 3003 1313
Q 3003 1734 2745 1975
Q 2488 2216 2034 2216
z
M 1403 2484
Q 997 2584 770 2862
Q 544 3141 544 3541
Q 544 4100 942 4425
Q 1341 4750 2034 4750
Q 2731 4750 3128 4425
Q 3525 4100 3525 3541
Q 3525 3141 3298 2862
Q 3072 2584 2669 2484
Q 3125 2378 3379 2068
Q 3634 1759 3634 1313
Q 3634 634 3220 271
Q 2806 -91 2034 -91
Q 1263 -91 848 271
Q 434 634 434 1313
Q 434 1759 690 2068
Q 947 2378 1403 2484
z
M 1172 3481
Q 1172 3119 1398 2916
Q 1625 2713 2034 2713
Q 2441 2713 2670 2916
Q 2900 3119 2900 3481
Q 2900 3844 2670 4047
Q 2441 4250 2034 4250
Q 1625 4250 1398 4047
Q 1172 3844 1172 3481
z
" transform="scale(0.015625)"/>
       </defs>
       <use xlink:href="#DejaVuSans-38"/>
      </g>
     </g>
    </g>
    <g id="xtick_6">
     <g id="line2d_6">
      <g>
       <use xlink:href="#m4526a8c096" x="218.728322" y="175.314571" style="stroke: #000000; stroke-width: 0.8"/>
      </g>
     </g>
     <g id="text_6">
      <!-- 10 -->
      <g transform="translate(212.365822 189.913009) scale(0.1 -0.1)">
       <defs>
        <path id="DejaVuSans-31" d="M 794 531
L 1825 531
L 1825 4091
L 703 3866
L 703 4441
L 1819 4666
L 2450 4666
L 2450 531
L 3481 531
L 3481 0
L 794 0
L 794 531
z
" transform="scale(0.015625)"/>
       </defs>
       <use xlink:href="#DejaVuSans-31"/>
       <use xlink:href="#DejaVuSans-30" transform="translate(63.623047 0)"/>
      </g>
     </g>
    </g>
    <g id="xtick_7">
     <g id="line2d_7">
      <g>
       <use xlink:href="#m4526a8c096" x="252.006594" y="175.314571" style="stroke: #000000; stroke-width: 0.8"/>
      </g>
     </g>
     <g id="text_7">
      <!-- 12 -->
      <g transform="translate(245.644094 189.913009) scale(0.1 -0.1)">
       <use xlink:href="#DejaVuSans-31"/>
       <use xlink:href="#DejaVuSans-32" transform="translate(63.623047 0)"/>
      </g>
     </g>
    </g>
    <g id="text_8">
     <!-- Normalized duration -->
     <g transform="translate(107.58125 203.591134) scale(0.1 -0.1)">
      <defs>
       <path id="DejaVuSans-4e" d="M 628 4666
L 1478 4666
L 3547 763
L 3547 4666
L 4159 4666
L 4159 0
L 3309 0
L 1241 3903
L 1241 0
L 628 0
L 628 4666
z
" transform="scale(0.015625)"/>
       <path id="DejaVuSans-6f" d="M 1959 3097
Q 1497 3097 1228 2736
Q 959 2375 959 1747
Q 959 1119 1226 758
Q 1494 397 1959 397
Q 2419 397 2687 759
Q 2956 1122 2956 1747
Q 2956 2369 2687 2733
Q 2419 3097 1959 3097
z
M 1959 3584
Q 2709 3584 3137 3096
Q 3566 2609 3566 1747
Q 3566 888 3137 398
Q 2709 -91 1959 -91
Q 1206 -91 779 398
Q 353 888 353 1747
Q 353 2609 779 3096
Q 1206 3584 1959 3584
z
" transform="scale(0.015625)"/>
       <path id="DejaVuSans-72" d="M 2631 2963
Q 2534 3019 2420 3045
Q 2306 3072 2169 3072
Q 1681 3072 1420 2755
Q 1159 2438 1159 1844
L 1159 0
L 581 0
L 581 3500
L 1159 3500
L 1159 2956
Q 1341 3275 1631 3429
Q 1922 3584 2338 3584
Q 2397 3584 2469 3576
Q 2541 3569 2628 3553
L 2631 2963
z
" transform="scale(0.015625)"/>
       <path id="DejaVuSans-6d" d="M 3328 2828
Q 3544 3216 3844 3400
Q 4144 3584 4550 3584
Q 5097 3584 5394 3201
Q 5691 2819 5691 2113
L 5691 0
L 5113 0
L 5113 2094
Q 5113 2597 4934 2840
Q 4756 3084 4391 3084
Q 3944 3084 3684 2787
Q 3425 2491 3425 1978
L 3425 0
L 2847 0
L 2847 2094
Q 2847 2600 2669 2842
Q 2491 3084 2119 3084
Q 1678 3084 1418 2786
Q 1159 2488 1159 1978
L 1159 0
L 581 0
L 581 3500
L 1159 3500
L 1159 2956
Q 1356 3278 1631 3431
Q 1906 3584 2284 3584
Q 2666 3584 2933 3390
Q 3200 3197 3328 2828
z
" transform="scale(0.015625)"/>
       <path id="DejaVuSans-61" d="M 2194 1759
Q 1497 1759 1228 1600
Q 959 1441 959 1056
Q 959 750 1161 570
Q 1363 391 1709 391
Q 2188 391 2477 730
Q 2766 1069 2766 1631
L 2766 1759
L 2194 1759
z
M 3341 1997
L 3341 0
L 2766 0
L 2766 531
Q 2569 213 2275 61
Q 1981 -91 1556 -91
Q 1019 -91 701 211
Q 384 513 384 1019
Q 384 1609 779 1909
Q 1175 2209 1959 2209
L 2766 2209
L 2766 2266
Q 2766 2663 2505 2880
Q 2244 3097 1772 3097
Q 1472 3097 1187 3025
Q 903 2953 641 2809
L 641 3341
Q 956 3463 1253 3523
Q 1550 3584 1831 3584
Q 2591 3584 2966 3190
Q 3341 2797 3341 1997
z
" transform="scale(0.015625)"/>
       <path id="DejaVuSans-6c" d="M 603 4863
L 1178 4863
L 1178 0
L 603 0
L 603 4863
z
" transform="scale(0.015625)"/>
       <path id="DejaVuSans-69" d="M 603 3500
L 1178 3500
L 1178 0
L 603 0
L 603 3500
z
M 603 4863
L 1178 4863
L 1178 4134
L 603 4134
L 603 4863
z
" transform="scale(0.015625)"/>
       <path id="DejaVuSans-7a" d="M 353 3500
L 3084 3500
L 3084 2975
L 922 459
L 3084 459
L 3084 0
L 275 0
L 275 525
L 2438 3041
L 353 3041
L 353 3500
z
" transform="scale(0.015625)"/>
       <path id="DejaVuSans-65" d="M 3597 1894
L 3597 1613
L 953 1613
Q 991 1019 1311 708
Q 1631 397 2203 397
Q 2534 397 2845 478
Q 3156 559 3463 722
L 3463 178
Q 3153 47 2828 -22
Q 2503 -91 2169 -91
Q 1331 -91 842 396
Q 353 884 353 1716
Q 353 2575 817 3079
Q 1281 3584 2069 3584
Q 2775 3584 3186 3129
Q 3597 2675 3597 1894
z
M 3022 2063
Q 3016 2534 2758 2815
Q 2500 3097 2075 3097
Q 1594 3097 1305 2825
Q 1016 2553 972 2059
L 3022 2063
z
" transform="scale(0.015625)"/>
       <path id="DejaVuSans-64" d="M 2906 2969
L 2906 4863
L 3481 4863
L 3481 0
L 2906 0
L 2906 525
Q 2725 213 2448 61
Q 2172 -91 1784 -91
Q 1150 -91 751 415
Q 353 922 353 1747
Q 353 2572 751 3078
Q 1150 3584 1784 3584
Q 2172 3584 2448 3432
Q 2725 3281 2906 2969
z
M 947 1747
Q 947 1113 1208 752
Q 1469 391 1925 391
Q 2381 391 2643 752
Q 2906 1113 2906 1747
Q 2906 2381 2643 2742
Q 2381 3103 1925 3103
Q 1469 3103 1208 2742
Q 947 2381 947 1747
z
" transform="scale(0.015625)"/>
       <path id="DejaVuSans-20" transform="scale(0.015625)"/>
       <path id="DejaVuSans-75" d="M 544 1381
L 544 3500
L 1119 3500
L 1119 1403
Q 1119 906 1312 657
Q 1506 409 1894 409
Q 2359 409 2629 706
Q 2900 1003 2900 1516
L 2900 3500
L 3475 3500
L 3475 0
L 2900 0
L 2900 538
Q 2691 219 2414 64
Q 2138 -91 1772 -91
Q 1169 -91 856 284
Q 544 659 544 1381
z
M 1991 3584
L 1991 3584
z
" transform="scale(0.015625)"/>
       <path id="DejaVuSans-74" d="M 1172 4494
L 1172 3500
L 2356 3500
L 2356 3053
L 1172 3053
L 1172 1153
Q 1172 725 1289 603
Q 1406 481 1766 481
L 2356 481
L 2356 0
L 1766 0
Q 1100 0 847 248
Q 594 497 594 1153
L 594 3053
L 172 3053
L 172 3500
L 594 3500
L 594 4494
L 1172 4494
z
" transform="scale(0.015625)"/>
       <path id="DejaVuSans-6e" d="M 3513 2113
L 3513 0
L 2938 0
L 2938 2094
Q 2938 2591 2744 2837
Q 2550 3084 2163 3084
Q 1697 3084 1428 2787
Q 1159 2491 1159 1978
L 1159 0
L 581 0
L 581 3500
L 1159 3500
L 1159 2956
Q 1366 3272 1645 3428
Q 1925 3584 2291 3584
Q 2894 3584 3203 3211
Q 3513 2838 3513 2113
z
" transform="scale(0.015625)"/>
      </defs>
      <use xlink:href="#DejaVuSans-4e"/>
      <use xlink:href="#DejaVuSans-6f" transform="translate(74.804688 0)"/>
      <use xlink:href="#DejaVuSans-72" transform="translate(135.986328 0)"/>
      <use xlink:href="#DejaVuSans-6d" transform="translate(175.349609 0)"/>
      <use xlink:href="#DejaVuSans-61" transform="translate(272.761719 0)"/>
      <use xlink:href="#DejaVuSans-6c" transform="translate(334.041016 0)"/>
      <use xlink:href="#DejaVuSans-69" transform="translate(361.824219 0)"/>
      <use xlink:href="#DejaVuSans-7a" transform="translate(389.607422 0)"/>
      <use xlink:href="#DejaVuSans-65" transform="translate(442.097656 0)"/>
      <use xlink:href="#DejaVuSans-64" transform="translate(503.621094 0)"/>
      <use xlink:href="#DejaVuSans-20" transform="translate(567.097656 0)"/>
      <use xlink:href="#DejaVuSans-64" transform="translate(598.884766 0)"/>
      <use xlink:href="#DejaVuSans-75" transform="translate(662.361328 0)"/>
      <use xlink:href="#DejaVuSans-72" transform="translate(725.740234 0)"/>
      <use xlink:href="#DejaVuSans-61" transform="translate(766.853516 0)"/>
      <use xlink:href="#DejaVuSans-74" transform="translate(828.132812 0)"/>
      <use xlink:href="#DejaVuSans-69" transform="translate(867.341797 0)"/>
      <use xlink:href="#DejaVuSans-6f" transform="translate(895.125 0)"/>
      <use xlink:href="#DejaVuSans-6e" transform="translate(956.306641 0)"/>
     </g>
    </g>
   </g>
   <g id="matplotlib.axis_2">
    <g id="ytick_1">
     <g id="line2d_8">
      <defs>
       <path id="mf5c52cae41" d="M 0 0
L -3.5 0
" style="stroke: #000000; stroke-width: 0.8"/>
      </defs>
      <g>
       <use xlink:href="#mf5c52cae41" x="46.965625" y="175.314571" style="stroke: #000000; stroke-width: 0.8"/>
      </g>
     </g>
     <g id="text_9">
      <!-- 0 -->
      <g transform="translate(33.603125 179.11379) scale(0.1 -0.1)">
       <use xlink:href="#DejaVuSans-30"/>
      </g>
     </g>
    </g>
    <g id="ytick_2">
     <g id="line2d_9">
      <g>
       <use xlink:href="#mf5c52cae41" x="46.965625" y="142.451501" style="stroke: #000000; stroke-width: 0.8"/>
      </g>
     </g>
     <g id="text_10">
      <!-- 100 -->
      <g transform="translate(20.878125 146.25072) scale(0.1 -0.1)">
       <use xlink:href="#DejaVuSans-31"/>
       <use xlink:href="#DejaVuSans-30" transform="translate(63.623047 0)"/>
       <use xlink:href="#DejaVuSans-30" transform="translate(127.246094 0)"/>
      </g>
     </g>
    </g>
    <g id="ytick_3">
     <g id="line2d_10">
      <g>
       <use xlink:href="#mf5c52cae41" x="46.965625" y="109.58843" style="stroke: #000000; stroke-width: 0.8"/>
      </g>
     </g>
     <g id="text_11">
      <!-- 200 -->
      <g transform="translate(20.878125 113.387649) scale(0.1 -0.1)">
       <use xlink:href="#DejaVuSans-32"/>
       <use xlink:href="#DejaVuSans-30" transform="translate(63.623047 0)"/>
       <use xlink:href="#DejaVuSans-30" transform="translate(127.246094 0)"/>
      </g>
     </g>
    </g>
    <g id="ytick_4">
     <g id="line2d_11">
      <g>
       <use xlink:href="#mf5c52cae41" x="46.965625" y="76.72536" style="stroke: #000000; stroke-width: 0.8"/>
      </g>
     </g>
     <g id="text_12">
      <!-- 300 -->
      <g transform="translate(20.878125 80.524579) scale(0.1 -0.1)">
       <defs>
        <path id="DejaVuSans-33" d="M 2597 2516
Q 3050 2419 3304 2112
Q 3559 1806 3559 1356
Q 3559 666 3084 287
Q 2609 -91 1734 -91
Q 1441 -91 1130 -33
Q 819 25 488 141
L 488 750
Q 750 597 1062 519
Q 1375 441 1716 441
Q 2309 441 2620 675
Q 2931 909 2931 1356
Q 2931 1769 2642 2001
Q 2353 2234 1838 2234
L 1294 2234
L 1294 2753
L 1863 2753
Q 2328 2753 2575 2939
Q 2822 3125 2822 3475
Q 2822 3834 2567 4026
Q 2313 4219 1838 4219
Q 1578 4219 1281 4162
Q 984 4106 628 3988
L 628 4550
Q 988 4650 1302 4700
Q 1616 4750 1894 4750
Q 2613 4750 3031 4423
Q 3450 4097 3450 3541
Q 3450 3153 3228 2886
Q 3006 2619 2597 2516
z
" transform="scale(0.015625)"/>
       </defs>
       <use xlink:href="#DejaVuSans-33"/>
       <use xlink:href="#DejaVuSans-30" transform="translate(63.623047 0)"/>
       <use xlink:href="#DejaVuSans-30" transform="translate(127.246094 0)"/>
      </g>
     </g>
    </g>
    <g id="ytick_5">
     <g id="line2d_12">
      <g>
       <use xlink:href="#mf5c52cae41" x="46.965625" y="43.862289" style="stroke: #000000; stroke-width: 0.8"/>
      </g>
     </g>
     <g id="text_13">
      <!-- 400 -->
      <g transform="translate(20.878125 47.661508) scale(0.1 -0.1)">
       <use xlink:href="#DejaVuSans-34"/>
       <use xlink:href="#DejaVuSans-30" transform="translate(63.623047 0)"/>
       <use xlink:href="#DejaVuSans-30" transform="translate(127.246094 0)"/>
      </g>
     </g>
    </g>
    <g id="ytick_6">
     <g id="line2d_13">
      <g>
       <use xlink:href="#mf5c52cae41" x="46.965625" y="10.999219" style="stroke: #000000; stroke-width: 0.8"/>
      </g>
     </g>
     <g id="text_14">
      <!-- 500 -->
      <g transform="translate(20.878125 14.798438) scale(0.1 -0.1)">
       <defs>
        <path id="DejaVuSans-35" d="M 691 4666
L 3169 4666
L 3169 4134
L 1269 4134
L 1269 2991
Q 1406 3038 1543 3061
Q 1681 3084 1819 3084
Q 2600 3084 3056 2656
Q 3513 2228 3513 1497
Q 3513 744 3044 326
Q 2575 -91 1722 -91
Q 1428 -91 1123 -41
Q 819 9 494 109
L 494 744
Q 775 591 1075 516
Q 1375 441 1709 441
Q 2250 441 2565 725
Q 2881 1009 2881 1497
Q 2881 1984 2565 2268
Q 2250 2553 1709 2553
Q 1456 2553 1204 2497
Q 953 2441 691 2322
L 691 4666
z
" transform="scale(0.015625)"/>
       </defs>
       <use xlink:href="#DejaVuSans-35"/>
       <use xlink:href="#DejaVuSans-30" transform="translate(63.623047 0)"/>
       <use xlink:href="#DejaVuSans-30" transform="translate(127.246094 0)"/>
      </g>
     </g>
    </g>
    <g id="text_15">
     <!-- Frequency -->
     <g transform="translate(14.798437 117.984259) rotate(-90) scale(0.1 -0.1)">
      <defs>
       <path id="DejaVuSans-46" d="M 628 4666
L 3309 4666
L 3309 4134
L 1259 4134
L 1259 2759
L 3109 2759
L 3109 2228
L 1259 2228
L 1259 0
L 628 0
L 628 4666
z
" transform="scale(0.015625)"/>
       <path id="DejaVuSans-71" d="M 947 1747
Q 947 1113 1208 752
Q 1469 391 1925 391
Q 2381 391 2643 752
Q 2906 1113 2906 1747
Q 2906 2381 2643 2742
Q 2381 3103 1925 3103
Q 1469 3103 1208 2742
Q 947 2381 947 1747
z
M 2906 525
Q 2725 213 2448 61
Q 2172 -91 1784 -91
Q 1150 -91 751 415
Q 353 922 353 1747
Q 353 2572 751 3078
Q 1150 3584 1784 3584
Q 2172 3584 2448 3432
Q 2725 3281 2906 2969
L 2906 3500
L 3481 3500
L 3481 -1331
L 2906 -1331
L 2906 525
z
" transform="scale(0.015625)"/>
       <path id="DejaVuSans-63" d="M 3122 3366
L 3122 2828
Q 2878 2963 2633 3030
Q 2388 3097 2138 3097
Q 1578 3097 1268 2742
Q 959 2388 959 1747
Q 959 1106 1268 751
Q 1578 397 2138 397
Q 2388 397 2633 464
Q 2878 531 3122 666
L 3122 134
Q 2881 22 2623 -34
Q 2366 -91 2075 -91
Q 1284 -91 818 406
Q 353 903 353 1747
Q 353 2603 823 3093
Q 1294 3584 2113 3584
Q 2378 3584 2631 3529
Q 2884 3475 3122 3366
z
" transform="scale(0.015625)"/>
       <path id="DejaVuSans-79" d="M 2059 -325
Q 1816 -950 1584 -1140
Q 1353 -1331 966 -1331
L 506 -1331
L 506 -850
L 844 -850
Q 1081 -850 1212 -737
Q 1344 -625 1503 -206
L 1606 56
L 191 3500
L 800 3500
L 1894 763
L 2988 3500
L 3597 3500
L 2059 -325
z
" transform="scale(0.015625)"/>
      </defs>
      <use xlink:href="#DejaVuSans-46"/>
      <use xlink:href="#DejaVuSans-72" transform="translate(50.269531 0)"/>
      <use xlink:href="#DejaVuSans-65" transform="translate(89.132812 0)"/>
      <use xlink:href="#DejaVuSans-71" transform="translate(150.65625 0)"/>
      <use xlink:href="#DejaVuSans-75" transform="translate(214.132812 0)"/>
      <use xlink:href="#DejaVuSans-65" transform="translate(277.511719 0)"/>
      <use xlink:href="#DejaVuSans-6e" transform="translate(339.035156 0)"/>
      <use xlink:href="#DejaVuSans-63" transform="translate(402.414062 0)"/>
      <use xlink:href="#DejaVuSans-79" transform="translate(457.394531 0)"/>
     </g>
    </g>
   </g>
   <g id="line2d_14">
    <path d="M 68.976096 175.314571
L 68.976096 8.994571
" clip-path="url(#p362d07f2cd)" style="fill: none; stroke: #1f77b4; stroke-opacity: 0.7; stroke-linecap: square"/>
   </g>
   <g id="line2d_15">
    <path d="M 80.841113 175.314571
L 80.841113 8.994571
" clip-path="url(#p362d07f2cd)" style="fill: none; stroke-dasharray: 3.7,1.6; stroke-dashoffset: 0; stroke: #1f77b4; stroke-opacity: 0.1"/>
   </g>
   <g id="line2d_16">
    <path d="M 57.11108 175.314571
L 57.11108 8.994571
" clip-path="url(#p362d07f2cd)" style="fill: none; stroke-dasharray: 3.7,1.6; stroke-dashoffset: 0; stroke: #1f77b4; stroke-opacity: 0.1"/>
   </g>
   <g id="line2d_17">
    <path d="M 209.619258 175.314571
L 209.619258 8.994571
" clip-path="url(#p362d07f2cd)" style="fill: none; stroke: #ff7f0e; stroke-opacity: 0.7; stroke-linecap: square"/>
   </g>
   <g id="line2d_18">
    <path d="M 260.02017 175.314571
L 260.02017 8.994571
" clip-path="url(#p362d07f2cd)" style="fill: none; stroke-dasharray: 3.7,1.6; stroke-dashoffset: 0; stroke: #ff7f0e; stroke-opacity: 0.1"/>
   </g>
   <g id="line2d_19">
    <path d="M 159.218346 175.314571
L 159.218346 8.994571
" clip-path="url(#p362d07f2cd)" style="fill: none; stroke-dasharray: 3.7,1.6; stroke-dashoffset: 0; stroke: #ff7f0e; stroke-opacity: 0.1"/>
   </g>
   <g id="patch_131">
    <path d="M 46.965625 175.314571
L 46.965625 8.994571
" style="fill: none; stroke: #000000; stroke-width: 0.8; stroke-linejoin: miter; stroke-linecap: square"/>
   </g>
   <g id="patch_132">
    <path d="M 270.165625 175.314571
L 270.165625 8.994571
" style="fill: none; stroke: #000000; stroke-width: 0.8; stroke-linejoin: miter; stroke-linecap: square"/>
   </g>
   <g id="patch_133">
    <path d="M 46.965625 175.314571
L 270.165625 175.314571
" style="fill: none; stroke: #000000; stroke-width: 0.8; stroke-linejoin: miter; stroke-linecap: square"/>
   </g>
   <g id="patch_134">
    <path d="M 46.965625 8.994571
L 270.165625 8.994571
" style="fill: none; stroke: #000000; stroke-width: 0.8; stroke-linejoin: miter; stroke-linecap: square"/>
   </g>
   <g id="legend_1">
    <g id="patch_135">
     <path d="M 193.723437 46.350821
L 263.165625 46.350821
Q 265.165625 46.350821 265.165625 44.350821
L 265.165625 15.994571
Q 265.165625 13.994571 263.165625 13.994571
L 193.723437 13.994571
Q 191.723437 13.994571 191.723437 15.994571
L 191.723437 44.350821
Q 191.723437 46.350821 193.723437 46.350821
z
" style="fill: #ffffff; opacity: 0.8; stroke: #cccccc; stroke-linejoin: miter"/>
    </g>
    <g id="patch_136">
     <path d="M 195.723437 25.593009
L 215.723437 25.593009
L 215.723437 18.593009
L 195.723437 18.593009
z
" style="fill: #1f77b4; opacity: 0.8"/>
    </g>
    <g id="text_16">
     <!-- qiskit -->
     <g transform="translate(223.723437 25.593009) scale(0.1 -0.1)">
      <defs>
       <path id="DejaVuSans-73" d="M 2834 3397
L 2834 2853
Q 2591 2978 2328 3040
Q 2066 3103 1784 3103
Q 1356 3103 1142 2972
Q 928 2841 928 2578
Q 928 2378 1081 2264
Q 1234 2150 1697 2047
L 1894 2003
Q 2506 1872 2764 1633
Q 3022 1394 3022 966
Q 3022 478 2636 193
Q 2250 -91 1575 -91
Q 1294 -91 989 -36
Q 684 19 347 128
L 347 722
Q 666 556 975 473
Q 1284 391 1588 391
Q 1994 391 2212 530
Q 2431 669 2431 922
Q 2431 1156 2273 1281
Q 2116 1406 1581 1522
L 1381 1569
Q 847 1681 609 1914
Q 372 2147 372 2553
Q 372 3047 722 3315
Q 1072 3584 1716 3584
Q 2034 3584 2315 3537
Q 2597 3491 2834 3397
z
" transform="scale(0.015625)"/>
       <path id="DejaVuSans-6b" d="M 581 4863
L 1159 4863
L 1159 1991
L 2875 3500
L 3609 3500
L 1753 1863
L 3688 0
L 2938 0
L 1159 1709
L 1159 0
L 581 0
L 581 4863
z
" transform="scale(0.015625)"/>
      </defs>
      <use xlink:href="#DejaVuSans-71"/>
      <use xlink:href="#DejaVuSans-69" transform="translate(63.476562 0)"/>
      <use xlink:href="#DejaVuSans-73" transform="translate(91.259766 0)"/>
      <use xlink:href="#DejaVuSans-6b" transform="translate(143.359375 0)"/>
      <use xlink:href="#DejaVuSans-69" transform="translate(201.269531 0)"/>
      <use xlink:href="#DejaVuSans-74" transform="translate(229.052734 0)"/>
     </g>
    </g>
    <g id="patch_137">
     <path d="M 195.723437 40.271134
L 215.723437 40.271134
L 215.723437 33.271134
L 195.723437 33.271134
z
" style="fill: #ff7f0e; opacity: 0.8"/>
    </g>
    <g id="text_17">
     <!-- monolp -->
     <g transform="translate(223.723437 40.271134) scale(0.1 -0.1)">
      <defs>
       <path id="DejaVuSans-70" d="M 1159 525
L 1159 -1331
L 581 -1331
L 581 3500
L 1159 3500
L 1159 2969
Q 1341 3281 1617 3432
Q 1894 3584 2278 3584
Q 2916 3584 3314 3078
Q 3713 2572 3713 1747
Q 3713 922 3314 415
Q 2916 -91 2278 -91
Q 1894 -91 1617 61
Q 1341 213 1159 525
z
M 3116 1747
Q 3116 2381 2855 2742
Q 2594 3103 2138 3103
Q 1681 3103 1420 2742
Q 1159 2381 1159 1747
Q 1159 1113 1420 752
Q 1681 391 2138 391
Q 2594 391 2855 752
Q 3116 1113 3116 1747
z
" transform="scale(0.015625)"/>
      </defs>
      <use xlink:href="#DejaVuSans-6d"/>
      <use xlink:href="#DejaVuSans-6f" transform="translate(97.412109 0)"/>
      <use xlink:href="#DejaVuSans-6e" transform="translate(158.59375 0)"/>
      <use xlink:href="#DejaVuSans-6f" transform="translate(221.972656 0)"/>
      <use xlink:href="#DejaVuSans-6c" transform="translate(283.154297 0)"/>
      <use xlink:href="#DejaVuSans-70" transform="translate(310.9375 0)"/>
     </g>
    </g>
   </g>
  </g>
 </g>
 <defs>
  <clipPath id="p362d07f2cd">
   <rect x="46.965625" y="8.994571" width="223.2" height="166.32"/>
  </clipPath>
 </defs>
</svg>
