<?xml version="1.0" encoding="utf-8" standalone="no"?>
<!DOCTYPE svg PUBLIC "-//W3C//DTD SVG 1.1//EN"
  "http://www.w3.org/Graphics/SVG/1.1/DTD/svg11.dtd">
<svg xmlns:xlink="http://www.w3.org/1999/xlink" width="277.365625pt" height="211.07625pt" viewBox="0 0 277.365625 211.07625" xmlns="http://www.w3.org/2000/svg" version="1.1">
 <metadata>
  <rdf:RDF xmlns:dc="http://purl.org/dc/elements/1.1/" xmlns:cc="http://creativecommons.org/ns#" xmlns:rdf="http://www.w3.org/1999/02/22-rdf-syntax-ns#">
   <cc:Work>
    <dc:type rdf:resource="http://purl.org/dc/dcmitype/StillImage"/>
    <dc:date>2025-04-14T09:22:04.782719</dc:date>
    <dc:format>image/svg+xml</dc:format>
    <dc:creator>
     <cc:Agent>
      <dc:title>Matplotlib v3.10.1, https://matplotlib.org/</dc:title>
     </cc:Agent>
    </dc:creator>
   </cc:Work>
  </rdf:RDF>
 </metadata>
 <defs>
  <style type="text/css">*{stroke-linejoin: round; stroke-linecap: butt}</style>
 </defs>
 <g id="figure_1">
  <g id="patch_1">
   <path d="M 0 211.07625
L 277.365625 211.07625
L 277.365625 0
L 0 0
z
" style="fill: #ffffff"/>
  </g>
  <g id="axes_1">
   <g id="patch_2">
    <path d="M 46.965625 173.52
L 270.165625 173.52
L 270.165625 7.2
L 46.965625 7.2
z
" style="fill: #ffffff"/>
   </g>
   <g id="patch_3">
    <path d="M 65.262663 173.52
L 67.125394 173.52
L 67.125394 161.074286
L 65.262663 161.074286
z
" clip-path="url(#pb4238ac201)" style="fill: #1f77b4; opacity: 0.8"/>
   </g>
   <g id="patch_4">
    <path d="M 67.125394 173.52
L 68.988126 173.52
L 68.988126 135.805714
L 67.125394 135.805714
z
" clip-path="url(#pb4238ac201)" style="fill: #1f77b4; opacity: 0.8"/>
   </g>
   <g id="patch_5">
    <path d="M 68.988126 173.52
L 70.850858 173.52
L 70.850858 113.931429
L 68.988126 113.931429
z
" clip-path="url(#pb4238ac201)" style="fill: #1f77b4; opacity: 0.8"/>
   </g>
   <g id="patch_6">
    <path d="M 70.850858 173.52
L 72.71359 173.52
L 72.71359 53.211429
L 70.850858 53.211429
z
" clip-path="url(#pb4238ac201)" style="fill: #1f77b4; opacity: 0.8"/>
   </g>
   <g id="patch_7">
    <path d="M 72.71359 173.52
L 74.576322 173.52
L 74.576322 117.325714
L 72.71359 117.325714
z
" clip-path="url(#pb4238ac201)" style="fill: #1f77b4; opacity: 0.8"/>
   </g>
   <g id="patch_8">
    <path d="M 74.576322 173.52
L 76.439054 173.52
L 76.439054 121.097143
L 74.576322 121.097143
z
" clip-path="url(#pb4238ac201)" style="fill: #1f77b4; opacity: 0.8"/>
   </g>
   <g id="patch_9">
    <path d="M 76.439054 173.52
L 78.301786 173.52
L 78.301786 153.908571
L 76.439054 153.908571
z
" clip-path="url(#pb4238ac201)" style="fill: #1f77b4; opacity: 0.8"/>
   </g>
   <g id="patch_10">
    <path d="M 78.301786 173.52
L 80.164518 173.52
L 80.164518 165.6
L 78.301786 165.6
z
" clip-path="url(#pb4238ac201)" style="fill: #1f77b4; opacity: 0.8"/>
   </g>
   <g id="patch_11">
    <path d="M 80.164518 173.52
L 82.02725 173.52
L 82.02725 167.485714
L 80.164518 167.485714
z
" clip-path="url(#pb4238ac201)" style="fill: #1f77b4; opacity: 0.8"/>
   </g>
   <g id="patch_12">
    <path d="M 82.02725 173.52
L 83.889982 173.52
L 83.889982 171.634286
L 82.02725 171.634286
z
" clip-path="url(#pb4238ac201)" style="fill: #1f77b4; opacity: 0.8"/>
   </g>
   <g id="patch_13">
    <path d="M 83.889982 173.52
L 85.752714 173.52
L 85.752714 172.765714
L 83.889982 172.765714
z
" clip-path="url(#pb4238ac201)" style="fill: #1f77b4; opacity: 0.8"/>
   </g>
   <g id="patch_14">
    <path d="M 85.752714 173.52
L 87.615446 173.52
L 87.615446 172.011429
L 85.752714 172.011429
z
" clip-path="url(#pb4238ac201)" style="fill: #1f77b4; opacity: 0.8"/>
   </g>
   <g id="patch_15">
    <path d="M 87.615446 173.52
L 89.478178 173.52
L 89.478178 173.52
L 87.615446 173.52
z
" clip-path="url(#pb4238ac201)" style="fill: #1f77b4; opacity: 0.8"/>
   </g>
   <g id="patch_16">
    <path d="M 89.478178 173.52
L 91.34091 173.52
L 91.34091 173.52
L 89.478178 173.52
z
" clip-path="url(#pb4238ac201)" style="fill: #1f77b4; opacity: 0.8"/>
   </g>
   <g id="patch_17">
    <path d="M 91.34091 173.52
L 93.203642 173.52
L 93.203642 173.52
L 91.34091 173.52
z
" clip-path="url(#pb4238ac201)" style="fill: #1f77b4; opacity: 0.8"/>
   </g>
   <g id="patch_18">
    <path d="M 93.203642 173.52
L 95.066374 173.52
L 95.066374 173.52
L 93.203642 173.52
z
" clip-path="url(#pb4238ac201)" style="fill: #1f77b4; opacity: 0.8"/>
   </g>
   <g id="patch_19">
    <path d="M 95.066374 173.52
L 96.929106 173.52
L 96.929106 173.142857
L 95.066374 173.142857
z
" clip-path="url(#pb4238ac201)" style="fill: #1f77b4; opacity: 0.8"/>
   </g>
   <g id="patch_20">
    <path d="M 96.929106 173.52
L 98.791837 173.52
L 98.791837 173.52
L 96.929106 173.52
z
" clip-path="url(#pb4238ac201)" style="fill: #1f77b4; opacity: 0.8"/>
   </g>
   <g id="patch_21">
    <path d="M 98.791837 173.52
L 100.654569 173.52
L 100.654569 173.52
L 98.791837 173.52
z
" clip-path="url(#pb4238ac201)" style="fill: #1f77b4; opacity: 0.8"/>
   </g>
   <g id="patch_22">
    <path d="M 100.654569 173.52
L 102.517301 173.52
L 102.517301 173.52
L 100.654569 173.52
z
" clip-path="url(#pb4238ac201)" style="fill: #1f77b4; opacity: 0.8"/>
   </g>
   <g id="patch_23">
    <path d="M 102.517301 173.52
L 104.380033 173.52
L 104.380033 173.52
L 102.517301 173.52
z
" clip-path="url(#pb4238ac201)" style="fill: #1f77b4; opacity: 0.8"/>
   </g>
   <g id="patch_24">
    <path d="M 104.380033 173.52
L 106.242765 173.52
L 106.242765 173.52
L 104.380033 173.52
z
" clip-path="url(#pb4238ac201)" style="fill: #1f77b4; opacity: 0.8"/>
   </g>
   <g id="patch_25">
    <path d="M 106.242765 173.52
L 108.105497 173.52
L 108.105497 173.52
L 106.242765 173.52
z
" clip-path="url(#pb4238ac201)" style="fill: #1f77b4; opacity: 0.8"/>
   </g>
   <g id="patch_26">
    <path d="M 108.105497 173.52
L 109.968229 173.52
L 109.968229 173.52
L 108.105497 173.52
z
" clip-path="url(#pb4238ac201)" style="fill: #1f77b4; opacity: 0.8"/>
   </g>
   <g id="patch_27">
    <path d="M 109.968229 173.52
L 111.830961 173.52
L 111.830961 173.52
L 109.968229 173.52
z
" clip-path="url(#pb4238ac201)" style="fill: #1f77b4; opacity: 0.8"/>
   </g>
   <g id="patch_28">
    <path d="M 111.830961 173.52
L 113.693693 173.52
L 113.693693 173.52
L 111.830961 173.52
z
" clip-path="url(#pb4238ac201)" style="fill: #1f77b4; opacity: 0.8"/>
   </g>
   <g id="patch_29">
    <path d="M 113.693693 173.52
L 115.556425 173.52
L 115.556425 173.52
L 113.693693 173.52
z
" clip-path="url(#pb4238ac201)" style="fill: #1f77b4; opacity: 0.8"/>
   </g>
   <g id="patch_30">
    <path d="M 115.556425 173.52
L 117.419157 173.52
L 117.419157 173.52
L 115.556425 173.52
z
" clip-path="url(#pb4238ac201)" style="fill: #1f77b4; opacity: 0.8"/>
   </g>
   <g id="patch_31">
    <path d="M 117.419157 173.52
L 119.281889 173.52
L 119.281889 173.52
L 117.419157 173.52
z
" clip-path="url(#pb4238ac201)" style="fill: #1f77b4; opacity: 0.8"/>
   </g>
   <g id="patch_32">
    <path d="M 119.281889 173.52
L 121.144621 173.52
L 121.144621 173.52
L 119.281889 173.52
z
" clip-path="url(#pb4238ac201)" style="fill: #1f77b4; opacity: 0.8"/>
   </g>
   <g id="patch_33">
    <path d="M 121.144621 173.52
L 123.007353 173.52
L 123.007353 173.52
L 121.144621 173.52
z
" clip-path="url(#pb4238ac201)" style="fill: #1f77b4; opacity: 0.8"/>
   </g>
   <g id="patch_34">
    <path d="M 123.007353 173.52
L 124.870085 173.52
L 124.870085 173.52
L 123.007353 173.52
z
" clip-path="url(#pb4238ac201)" style="fill: #1f77b4; opacity: 0.8"/>
   </g>
   <g id="patch_35">
    <path d="M 124.870085 173.52
L 126.732817 173.52
L 126.732817 173.52
L 124.870085 173.52
z
" clip-path="url(#pb4238ac201)" style="fill: #1f77b4; opacity: 0.8"/>
   </g>
   <g id="patch_36">
    <path d="M 126.732817 173.52
L 128.595549 173.52
L 128.595549 173.52
L 126.732817 173.52
z
" clip-path="url(#pb4238ac201)" style="fill: #1f77b4; opacity: 0.8"/>
   </g>
   <g id="patch_37">
    <path d="M 128.595549 173.52
L 130.458281 173.52
L 130.458281 173.52
L 128.595549 173.52
z
" clip-path="url(#pb4238ac201)" style="fill: #1f77b4; opacity: 0.8"/>
   </g>
   <g id="patch_38">
    <path d="M 130.458281 173.52
L 132.321012 173.52
L 132.321012 173.52
L 130.458281 173.52
z
" clip-path="url(#pb4238ac201)" style="fill: #1f77b4; opacity: 0.8"/>
   </g>
   <g id="patch_39">
    <path d="M 132.321012 173.52
L 134.183744 173.52
L 134.183744 173.52
L 132.321012 173.52
z
" clip-path="url(#pb4238ac201)" style="fill: #1f77b4; opacity: 0.8"/>
   </g>
   <g id="patch_40">
    <path d="M 134.183744 173.52
L 136.046476 173.52
L 136.046476 173.52
L 134.183744 173.52
z
" clip-path="url(#pb4238ac201)" style="fill: #1f77b4; opacity: 0.8"/>
   </g>
   <g id="patch_41">
    <path d="M 136.046476 173.52
L 137.909208 173.52
L 137.909208 173.52
L 136.046476 173.52
z
" clip-path="url(#pb4238ac201)" style="fill: #1f77b4; opacity: 0.8"/>
   </g>
   <g id="patch_42">
    <path d="M 137.909208 173.52
L 139.77194 173.52
L 139.77194 173.52
L 137.909208 173.52
z
" clip-path="url(#pb4238ac201)" style="fill: #1f77b4; opacity: 0.8"/>
   </g>
   <g id="patch_43">
    <path d="M 139.77194 173.52
L 141.634672 173.52
L 141.634672 173.52
L 139.77194 173.52
z
" clip-path="url(#pb4238ac201)" style="fill: #1f77b4; opacity: 0.8"/>
   </g>
   <g id="patch_44">
    <path d="M 141.634672 173.52
L 143.497404 173.52
L 143.497404 173.52
L 141.634672 173.52
z
" clip-path="url(#pb4238ac201)" style="fill: #1f77b4; opacity: 0.8"/>
   </g>
   <g id="patch_45">
    <path d="M 143.497404 173.52
L 145.360136 173.52
L 145.360136 173.52
L 143.497404 173.52
z
" clip-path="url(#pb4238ac201)" style="fill: #1f77b4; opacity: 0.8"/>
   </g>
   <g id="patch_46">
    <path d="M 145.360136 173.52
L 147.222868 173.52
L 147.222868 173.52
L 145.360136 173.52
z
" clip-path="url(#pb4238ac201)" style="fill: #1f77b4; opacity: 0.8"/>
   </g>
   <g id="patch_47">
    <path d="M 147.222868 173.52
L 149.0856 173.52
L 149.0856 173.52
L 147.222868 173.52
z
" clip-path="url(#pb4238ac201)" style="fill: #1f77b4; opacity: 0.8"/>
   </g>
   <g id="patch_48">
    <path d="M 149.0856 173.52
L 150.948332 173.52
L 150.948332 173.52
L 149.0856 173.52
z
" clip-path="url(#pb4238ac201)" style="fill: #1f77b4; opacity: 0.8"/>
   </g>
   <g id="patch_49">
    <path d="M 150.948332 173.52
L 152.811064 173.52
L 152.811064 173.52
L 150.948332 173.52
z
" clip-path="url(#pb4238ac201)" style="fill: #1f77b4; opacity: 0.8"/>
   </g>
   <g id="patch_50">
    <path d="M 152.811064 173.52
L 154.673796 173.52
L 154.673796 173.52
L 152.811064 173.52
z
" clip-path="url(#pb4238ac201)" style="fill: #1f77b4; opacity: 0.8"/>
   </g>
   <g id="patch_51">
    <path d="M 154.673796 173.52
L 156.536528 173.52
L 156.536528 173.52
L 154.673796 173.52
z
" clip-path="url(#pb4238ac201)" style="fill: #1f77b4; opacity: 0.8"/>
   </g>
   <g id="patch_52">
    <path d="M 156.536528 173.52
L 158.39926 173.52
L 158.39926 173.52
L 156.536528 173.52
z
" clip-path="url(#pb4238ac201)" style="fill: #1f77b4; opacity: 0.8"/>
   </g>
   <g id="patch_53">
    <path d="M 158.39926 173.52
L 160.261992 173.52
L 160.261992 173.52
L 158.39926 173.52
z
" clip-path="url(#pb4238ac201)" style="fill: #1f77b4; opacity: 0.8"/>
   </g>
   <g id="patch_54">
    <path d="M 160.261992 173.52
L 162.124724 173.52
L 162.124724 173.52
L 160.261992 173.52
z
" clip-path="url(#pb4238ac201)" style="fill: #1f77b4; opacity: 0.8"/>
   </g>
   <g id="patch_55">
    <path d="M 162.124724 173.52
L 163.987455 173.52
L 163.987455 173.52
L 162.124724 173.52
z
" clip-path="url(#pb4238ac201)" style="fill: #1f77b4; opacity: 0.8"/>
   </g>
   <g id="patch_56">
    <path d="M 163.987455 173.52
L 165.850187 173.52
L 165.850187 173.52
L 163.987455 173.52
z
" clip-path="url(#pb4238ac201)" style="fill: #1f77b4; opacity: 0.8"/>
   </g>
   <g id="patch_57">
    <path d="M 165.850187 173.52
L 167.712919 173.52
L 167.712919 173.52
L 165.850187 173.52
z
" clip-path="url(#pb4238ac201)" style="fill: #1f77b4; opacity: 0.8"/>
   </g>
   <g id="patch_58">
    <path d="M 167.712919 173.52
L 169.575651 173.52
L 169.575651 173.52
L 167.712919 173.52
z
" clip-path="url(#pb4238ac201)" style="fill: #1f77b4; opacity: 0.8"/>
   </g>
   <g id="patch_59">
    <path d="M 169.575651 173.52
L 171.438383 173.52
L 171.438383 173.52
L 169.575651 173.52
z
" clip-path="url(#pb4238ac201)" style="fill: #1f77b4; opacity: 0.8"/>
   </g>
   <g id="patch_60">
    <path d="M 171.438383 173.52
L 173.301115 173.52
L 173.301115 173.52
L 171.438383 173.52
z
" clip-path="url(#pb4238ac201)" style="fill: #1f77b4; opacity: 0.8"/>
   </g>
   <g id="patch_61">
    <path d="M 173.301115 173.52
L 175.163847 173.52
L 175.163847 173.52
L 173.301115 173.52
z
" clip-path="url(#pb4238ac201)" style="fill: #1f77b4; opacity: 0.8"/>
   </g>
   <g id="patch_62">
    <path d="M 175.163847 173.52
L 177.026579 173.52
L 177.026579 173.52
L 175.163847 173.52
z
" clip-path="url(#pb4238ac201)" style="fill: #1f77b4; opacity: 0.8"/>
   </g>
   <g id="patch_63">
    <path d="M 177.026579 173.52
L 178.889311 173.52
L 178.889311 173.52
L 177.026579 173.52
z
" clip-path="url(#pb4238ac201)" style="fill: #1f77b4; opacity: 0.8"/>
   </g>
   <g id="patch_64">
    <path d="M 178.889311 173.52
L 180.752043 173.52
L 180.752043 173.52
L 178.889311 173.52
z
" clip-path="url(#pb4238ac201)" style="fill: #1f77b4; opacity: 0.8"/>
   </g>
   <g id="patch_65">
    <path d="M 180.752043 173.52
L 182.614775 173.52
L 182.614775 173.52
L 180.752043 173.52
z
" clip-path="url(#pb4238ac201)" style="fill: #1f77b4; opacity: 0.8"/>
   </g>
   <g id="patch_66">
    <path d="M 182.614775 173.52
L 184.477507 173.52
L 184.477507 173.142857
L 182.614775 173.142857
z
" clip-path="url(#pb4238ac201)" style="fill: #1f77b4; opacity: 0.8"/>
   </g>
   <g id="patch_67">
    <path d="M 57.11108 173.52
L 59.10118 173.52
L 59.10118 172.765714
L 57.11108 172.765714
z
" clip-path="url(#pb4238ac201)" style="fill: #ff7f0e; opacity: 0.8"/>
   </g>
   <g id="patch_68">
    <path d="M 59.10118 173.52
L 61.09128 173.52
L 61.09128 173.52
L 59.10118 173.52
z
" clip-path="url(#pb4238ac201)" style="fill: #ff7f0e; opacity: 0.8"/>
   </g>
   <g id="patch_69">
    <path d="M 61.09128 173.52
L 63.081381 173.52
L 63.081381 173.52
L 61.09128 173.52
z
" clip-path="url(#pb4238ac201)" style="fill: #ff7f0e; opacity: 0.8"/>
   </g>
   <g id="patch_70">
    <path d="M 63.081381 173.52
L 65.071481 173.52
L 65.071481 173.52
L 63.081381 173.52
z
" clip-path="url(#pb4238ac201)" style="fill: #ff7f0e; opacity: 0.8"/>
   </g>
   <g id="patch_71">
    <path d="M 65.071481 173.52
L 67.061582 173.52
L 67.061582 173.52
L 65.071481 173.52
z
" clip-path="url(#pb4238ac201)" style="fill: #ff7f0e; opacity: 0.8"/>
   </g>
   <g id="patch_72">
    <path d="M 67.061582 173.52
L 69.051682 173.52
L 69.051682 173.52
L 67.061582 173.52
z
" clip-path="url(#pb4238ac201)" style="fill: #ff7f0e; opacity: 0.8"/>
   </g>
   <g id="patch_73">
    <path d="M 69.051682 173.52
L 71.041783 173.52
L 71.041783 173.52
L 69.051682 173.52
z
" clip-path="url(#pb4238ac201)" style="fill: #ff7f0e; opacity: 0.8"/>
   </g>
   <g id="patch_74">
    <path d="M 71.041783 173.52
L 73.031883 173.52
L 73.031883 173.52
L 71.041783 173.52
z
" clip-path="url(#pb4238ac201)" style="fill: #ff7f0e; opacity: 0.8"/>
   </g>
   <g id="patch_75">
    <path d="M 73.031883 173.52
L 75.021983 173.52
L 75.021983 173.52
L 73.031883 173.52
z
" clip-path="url(#pb4238ac201)" style="fill: #ff7f0e; opacity: 0.8"/>
   </g>
   <g id="patch_76">
    <path d="M 75.021983 173.52
L 77.012084 173.52
L 77.012084 173.52
L 75.021983 173.52
z
" clip-path="url(#pb4238ac201)" style="fill: #ff7f0e; opacity: 0.8"/>
   </g>
   <g id="patch_77">
    <path d="M 77.012084 173.52
L 79.002184 173.52
L 79.002184 173.52
L 77.012084 173.52
z
" clip-path="url(#pb4238ac201)" style="fill: #ff7f0e; opacity: 0.8"/>
   </g>
   <g id="patch_78">
    <path d="M 79.002184 173.52
L 80.992285 173.52
L 80.992285 173.52
L 79.002184 173.52
z
" clip-path="url(#pb4238ac201)" style="fill: #ff7f0e; opacity: 0.8"/>
   </g>
   <g id="patch_79">
    <path d="M 80.992285 173.52
L 82.982385 173.52
L 82.982385 173.52
L 80.992285 173.52
z
" clip-path="url(#pb4238ac201)" style="fill: #ff7f0e; opacity: 0.8"/>
   </g>
   <g id="patch_80">
    <path d="M 82.982385 173.52
L 84.972486 173.52
L 84.972486 173.52
L 82.982385 173.52
z
" clip-path="url(#pb4238ac201)" style="fill: #ff7f0e; opacity: 0.8"/>
   </g>
   <g id="patch_81">
    <path d="M 84.972486 173.52
L 86.962586 173.52
L 86.962586 173.52
L 84.972486 173.52
z
" clip-path="url(#pb4238ac201)" style="fill: #ff7f0e; opacity: 0.8"/>
   </g>
   <g id="patch_82">
    <path d="M 86.962586 173.52
L 88.952686 173.52
L 88.952686 173.52
L 86.962586 173.52
z
" clip-path="url(#pb4238ac201)" style="fill: #ff7f0e; opacity: 0.8"/>
   </g>
   <g id="patch_83">
    <path d="M 88.952686 173.52
L 90.942787 173.52
L 90.942787 173.52
L 88.952686 173.52
z
" clip-path="url(#pb4238ac201)" style="fill: #ff7f0e; opacity: 0.8"/>
   </g>
   <g id="patch_84">
    <path d="M 90.942787 173.52
L 92.932887 173.52
L 92.932887 173.52
L 90.942787 173.52
z
" clip-path="url(#pb4238ac201)" style="fill: #ff7f0e; opacity: 0.8"/>
   </g>
   <g id="patch_85">
    <path d="M 92.932887 173.52
L 94.922988 173.52
L 94.922988 173.52
L 92.932887 173.52
z
" clip-path="url(#pb4238ac201)" style="fill: #ff7f0e; opacity: 0.8"/>
   </g>
   <g id="patch_86">
    <path d="M 94.922988 173.52
L 96.913088 173.52
L 96.913088 173.52
L 94.922988 173.52
z
" clip-path="url(#pb4238ac201)" style="fill: #ff7f0e; opacity: 0.8"/>
   </g>
   <g id="patch_87">
    <path d="M 96.913088 173.52
L 98.903189 173.52
L 98.903189 173.52
L 96.913088 173.52
z
" clip-path="url(#pb4238ac201)" style="fill: #ff7f0e; opacity: 0.8"/>
   </g>
   <g id="patch_88">
    <path d="M 98.903189 173.52
L 100.893289 173.52
L 100.893289 173.52
L 98.903189 173.52
z
" clip-path="url(#pb4238ac201)" style="fill: #ff7f0e; opacity: 0.8"/>
   </g>
   <g id="patch_89">
    <path d="M 100.893289 173.52
L 102.883389 173.52
L 102.883389 173.52
L 100.893289 173.52
z
" clip-path="url(#pb4238ac201)" style="fill: #ff7f0e; opacity: 0.8"/>
   </g>
   <g id="patch_90">
    <path d="M 102.883389 173.52
L 104.87349 173.52
L 104.87349 173.52
L 102.883389 173.52
z
" clip-path="url(#pb4238ac201)" style="fill: #ff7f0e; opacity: 0.8"/>
   </g>
   <g id="patch_91">
    <path d="M 104.87349 173.52
L 106.86359 173.52
L 106.86359 173.52
L 104.87349 173.52
z
" clip-path="url(#pb4238ac201)" style="fill: #ff7f0e; opacity: 0.8"/>
   </g>
   <g id="patch_92">
    <path d="M 106.86359 173.52
L 108.853691 173.52
L 108.853691 173.52
L 106.86359 173.52
z
" clip-path="url(#pb4238ac201)" style="fill: #ff7f0e; opacity: 0.8"/>
   </g>
   <g id="patch_93">
    <path d="M 108.853691 173.52
L 110.843791 173.52
L 110.843791 173.52
L 108.853691 173.52
z
" clip-path="url(#pb4238ac201)" style="fill: #ff7f0e; opacity: 0.8"/>
   </g>
   <g id="patch_94">
    <path d="M 110.843791 173.52
L 112.833891 173.52
L 112.833891 173.52
L 110.843791 173.52
z
" clip-path="url(#pb4238ac201)" style="fill: #ff7f0e; opacity: 0.8"/>
   </g>
   <g id="patch_95">
    <path d="M 112.833891 173.52
L 114.823992 173.52
L 114.823992 173.52
L 112.833891 173.52
z
" clip-path="url(#pb4238ac201)" style="fill: #ff7f0e; opacity: 0.8"/>
   </g>
   <g id="patch_96">
    <path d="M 114.823992 173.52
L 116.814092 173.52
L 116.814092 173.142857
L 114.823992 173.142857
z
" clip-path="url(#pb4238ac201)" style="fill: #ff7f0e; opacity: 0.8"/>
   </g>
   <g id="patch_97">
    <path d="M 116.814092 173.52
L 118.804193 173.52
L 118.804193 173.52
L 116.814092 173.52
z
" clip-path="url(#pb4238ac201)" style="fill: #ff7f0e; opacity: 0.8"/>
   </g>
   <g id="patch_98">
    <path d="M 118.804193 173.52
L 120.794293 173.52
L 120.794293 173.52
L 118.804193 173.52
z
" clip-path="url(#pb4238ac201)" style="fill: #ff7f0e; opacity: 0.8"/>
   </g>
   <g id="patch_99">
    <path d="M 120.794293 173.52
L 122.784394 173.52
L 122.784394 173.142857
L 120.794293 173.142857
z
" clip-path="url(#pb4238ac201)" style="fill: #ff7f0e; opacity: 0.8"/>
   </g>
   <g id="patch_100">
    <path d="M 122.784394 173.52
L 124.774494 173.52
L 124.774494 173.52
L 122.784394 173.52
z
" clip-path="url(#pb4238ac201)" style="fill: #ff7f0e; opacity: 0.8"/>
   </g>
   <g id="patch_101">
    <path d="M 124.774494 173.52
L 126.764594 173.52
L 126.764594 173.52
L 124.774494 173.52
z
" clip-path="url(#pb4238ac201)" style="fill: #ff7f0e; opacity: 0.8"/>
   </g>
   <g id="patch_102">
    <path d="M 126.764594 173.52
L 128.754695 173.52
L 128.754695 172.388571
L 126.764594 172.388571
z
" clip-path="url(#pb4238ac201)" style="fill: #ff7f0e; opacity: 0.8"/>
   </g>
   <g id="patch_103">
    <path d="M 128.754695 173.52
L 130.744795 173.52
L 130.744795 172.011429
L 128.754695 172.011429
z
" clip-path="url(#pb4238ac201)" style="fill: #ff7f0e; opacity: 0.8"/>
   </g>
   <g id="patch_104">
    <path d="M 130.744795 173.52
L 132.734896 173.52
L 132.734896 167.862857
L 130.744795 167.862857
z
" clip-path="url(#pb4238ac201)" style="fill: #ff7f0e; opacity: 0.8"/>
   </g>
   <g id="patch_105">
    <path d="M 132.734896 173.52
L 134.724996 173.52
L 134.724996 162.205714
L 132.734896 162.205714
z
" clip-path="url(#pb4238ac201)" style="fill: #ff7f0e; opacity: 0.8"/>
   </g>
   <g id="patch_106">
    <path d="M 134.724996 173.52
L 136.715097 173.52
L 136.715097 160.32
L 134.724996 160.32
z
" clip-path="url(#pb4238ac201)" style="fill: #ff7f0e; opacity: 0.8"/>
   </g>
   <g id="patch_107">
    <path d="M 136.715097 173.52
L 138.705197 173.52
L 138.705197 153.908571
L 136.715097 153.908571
z
" clip-path="url(#pb4238ac201)" style="fill: #ff7f0e; opacity: 0.8"/>
   </g>
   <g id="patch_108">
    <path d="M 138.705197 173.52
L 140.695297 173.52
L 140.695297 155.794286
L 138.705197 155.794286
z
" clip-path="url(#pb4238ac201)" style="fill: #ff7f0e; opacity: 0.8"/>
   </g>
   <g id="patch_109">
    <path d="M 140.695297 173.52
L 142.685398 173.52
L 142.685398 163.714286
L 140.695297 163.714286
z
" clip-path="url(#pb4238ac201)" style="fill: #ff7f0e; opacity: 0.8"/>
   </g>
   <g id="patch_110">
    <path d="M 142.685398 173.52
L 144.675498 173.52
L 144.675498 161.828571
L 142.685398 161.828571
z
" clip-path="url(#pb4238ac201)" style="fill: #ff7f0e; opacity: 0.8"/>
   </g>
   <g id="patch_111">
    <path d="M 144.675498 173.52
L 146.665599 173.52
L 146.665599 159.565714
L 144.675498 159.565714
z
" clip-path="url(#pb4238ac201)" style="fill: #ff7f0e; opacity: 0.8"/>
   </g>
   <g id="patch_112">
    <path d="M 146.665599 173.52
L 148.655699 173.52
L 148.655699 165.222857
L 146.665599 165.222857
z
" clip-path="url(#pb4238ac201)" style="fill: #ff7f0e; opacity: 0.8"/>
   </g>
   <g id="patch_113">
    <path d="M 148.655699 173.52
L 150.6458 173.52
L 150.6458 161.828571
L 148.655699 161.828571
z
" clip-path="url(#pb4238ac201)" style="fill: #ff7f0e; opacity: 0.8"/>
   </g>
   <g id="patch_114">
    <path d="M 150.6458 173.52
L 152.6359 173.52
L 152.6359 166.731429
L 150.6458 166.731429
z
" clip-path="url(#pb4238ac201)" style="fill: #ff7f0e; opacity: 0.8"/>
   </g>
   <g id="patch_115">
    <path d="M 152.6359 173.52
L 154.626 173.52
L 154.626 165.222857
L 152.6359 165.222857
z
" clip-path="url(#pb4238ac201)" style="fill: #ff7f0e; opacity: 0.8"/>
   </g>
   <g id="patch_116">
    <path d="M 154.626 173.52
L 156.616101 173.52
L 156.616101 167.862857
L 154.626 167.862857
z
" clip-path="url(#pb4238ac201)" style="fill: #ff7f0e; opacity: 0.8"/>
   </g>
   <g id="patch_117">
    <path d="M 156.616101 173.52
L 158.606201 173.52
L 158.606201 167.485714
L 156.616101 167.485714
z
" clip-path="url(#pb4238ac201)" style="fill: #ff7f0e; opacity: 0.8"/>
   </g>
   <g id="patch_118">
    <path d="M 158.606201 173.52
L 160.596302 173.52
L 160.596302 170.125714
L 158.606201 170.125714
z
" clip-path="url(#pb4238ac201)" style="fill: #ff7f0e; opacity: 0.8"/>
   </g>
   <g id="patch_119">
    <path d="M 160.596302 173.52
L 162.586402 173.52
L 162.586402 169.371429
L 160.596302 169.371429
z
" clip-path="url(#pb4238ac201)" style="fill: #ff7f0e; opacity: 0.8"/>
   </g>
   <g id="patch_120">
    <path d="M 162.586402 173.52
L 164.576503 173.52
L 164.576503 170.502857
L 162.586402 170.502857
z
" clip-path="url(#pb4238ac201)" style="fill: #ff7f0e; opacity: 0.8"/>
   </g>
   <g id="patch_121">
    <path d="M 164.576503 173.52
L 166.566603 173.52
L 166.566603 168.994286
L 164.576503 168.994286
z
" clip-path="url(#pb4238ac201)" style="fill: #ff7f0e; opacity: 0.8"/>
   </g>
   <g id="patch_122">
    <path d="M 166.566603 173.52
L 168.556703 173.52
L 168.556703 167.108571
L 166.566603 167.108571
z
" clip-path="url(#pb4238ac201)" style="fill: #ff7f0e; opacity: 0.8"/>
   </g>
   <g id="patch_123">
    <path d="M 168.556703 173.52
L 170.546804 173.52
L 170.546804 168.994286
L 168.556703 168.994286
z
" clip-path="url(#pb4238ac201)" style="fill: #ff7f0e; opacity: 0.8"/>
   </g>
   <g id="patch_124">
    <path d="M 170.546804 173.52
L 172.536904 173.52
L 172.536904 165.222857
L 170.546804 165.222857
z
" clip-path="url(#pb4238ac201)" style="fill: #ff7f0e; opacity: 0.8"/>
   </g>
   <g id="patch_125">
    <path d="M 172.536904 173.52
L 174.527005 173.52
L 174.527005 165.6
L 172.536904 165.6
z
" clip-path="url(#pb4238ac201)" style="fill: #ff7f0e; opacity: 0.8"/>
   </g>
   <g id="patch_126">
    <path d="M 174.527005 173.52
L 176.517105 173.52
L 176.517105 169.371429
L 174.527005 169.371429
z
" clip-path="url(#pb4238ac201)" style="fill: #ff7f0e; opacity: 0.8"/>
   </g>
   <g id="patch_127">
    <path d="M 176.517105 173.52
L 178.507206 173.52
L 178.507206 167.108571
L 176.517105 167.108571
z
" clip-path="url(#pb4238ac201)" style="fill: #ff7f0e; opacity: 0.8"/>
   </g>
   <g id="patch_128">
    <path d="M 178.507206 173.52
L 180.497306 173.52
L 180.497306 170.125714
L 178.507206 170.125714
z
" clip-path="url(#pb4238ac201)" style="fill: #ff7f0e; opacity: 0.8"/>
   </g>
   <g id="patch_129">
    <path d="M 180.497306 173.52
L 182.487406 173.52
L 182.487406 165.222857
L 180.497306 165.222857
z
" clip-path="url(#pb4238ac201)" style="fill: #ff7f0e; opacity: 0.8"/>
   </g>
   <g id="patch_130">
    <path d="M 182.487406 173.52
L 184.477507 173.52
L 184.477507 15.12
L 182.487406 15.12
z
" clip-path="url(#pb4238ac201)" style="fill: #ff7f0e; opacity: 0.8"/>
   </g>
   <g id="matplotlib.axis_1">
    <g id="xtick_1">
     <g id="line2d_1">
      <defs>
       <path id="md4286908c9" d="M 0 0
L 0 3.5
" style="stroke: #000000; stroke-width: 0.8"/>
      </defs>
      <g>
       <use xlink:href="#md4286908c9" x="57.11108" y="173.52" style="stroke: #000000; stroke-width: 0.8"/>
      </g>
     </g>
     <g id="text_1">
      <!-- 0.0 -->
      <g transform="translate(49.159517 188.118438) scale(0.1 -0.1)">
       <defs>
        <path id="DejaVuSans-30" d="M 2034 4250
Q 1547 4250 1301 3770
Q 1056 3291 1056 2328
Q 1056 1369 1301 889
Q 1547 409 2034 409
Q 2525 409 2770 889
Q 3016 1369 3016 2328
Q 3016 3291 2770 3770
Q 2525 4250 2034 4250
z
M 2034 4750
Q 2819 4750 3233 4129
Q 3647 3509 3647 2328
Q 3647 1150 3233 529
Q 2819 -91 2034 -91
Q 1250 -91 836 529
Q 422 1150 422 2328
Q 422 3509 836 4129
Q 1250 4750 2034 4750
z
" transform="scale(0.015625)"/>
        <path id="DejaVuSans-2e" d="M 684 794
L 1344 794
L 1344 0
L 684 0
L 684 794
z
" transform="scale(0.015625)"/>
       </defs>
       <use xlink:href="#DejaVuSans-30"/>
       <use xlink:href="#DejaVuSans-2e" transform="translate(63.623047 0)"/>
       <use xlink:href="#DejaVuSans-30" transform="translate(95.410156 0)"/>
      </g>
     </g>
    </g>
    <g id="xtick_2">
     <g id="line2d_2">
      <g>
       <use xlink:href="#md4286908c9" x="96.913088" y="173.52" style="stroke: #000000; stroke-width: 0.8"/>
      </g>
     </g>
     <g id="text_2">
      <!-- 2.5 -->
      <g transform="translate(88.961526 188.118438) scale(0.1 -0.1)">
       <defs>
        <path id="DejaVuSans-32" d="M 1228 531
L 3431 531
L 3431 0
L 469 0
L 469 531
Q 828 903 1448 1529
Q 2069 2156 2228 2338
Q 2531 2678 2651 2914
Q 2772 3150 2772 3378
Q 2772 3750 2511 3984
Q 2250 4219 1831 4219
Q 1534 4219 1204 4116
Q 875 4013 500 3803
L 500 4441
Q 881 4594 1212 4672
Q 1544 4750 1819 4750
Q 2544 4750 2975 4387
Q 3406 4025 3406 3419
Q 3406 3131 3298 2873
Q 3191 2616 2906 2266
Q 2828 2175 2409 1742
Q 1991 1309 1228 531
z
" transform="scale(0.015625)"/>
        <path id="DejaVuSans-35" d="M 691 4666
L 3169 4666
L 3169 4134
L 1269 4134
L 1269 2991
Q 1406 3038 1543 3061
Q 1681 3084 1819 3084
Q 2600 3084 3056 2656
Q 3513 2228 3513 1497
Q 3513 744 3044 326
Q 2575 -91 1722 -91
Q 1428 -91 1123 -41
Q 819 9 494 109
L 494 744
Q 775 591 1075 516
Q 1375 441 1709 441
Q 2250 441 2565 725
Q 2881 1009 2881 1497
Q 2881 1984 2565 2268
Q 2250 2553 1709 2553
Q 1456 2553 1204 2497
Q 953 2441 691 2322
L 691 4666
z
" transform="scale(0.015625)"/>
       </defs>
       <use xlink:href="#DejaVuSans-32"/>
       <use xlink:href="#DejaVuSans-2e" transform="translate(63.623047 0)"/>
       <use xlink:href="#DejaVuSans-35" transform="translate(95.410156 0)"/>
      </g>
     </g>
    </g>
    <g id="xtick_3">
     <g id="line2d_3">
      <g>
       <use xlink:href="#md4286908c9" x="136.715097" y="173.52" style="stroke: #000000; stroke-width: 0.8"/>
      </g>
     </g>
     <g id="text_3">
      <!-- 5.0 -->
      <g transform="translate(128.763534 188.118438) scale(0.1 -0.1)">
       <use xlink:href="#DejaVuSans-35"/>
       <use xlink:href="#DejaVuSans-2e" transform="translate(63.623047 0)"/>
       <use xlink:href="#DejaVuSans-30" transform="translate(95.410156 0)"/>
      </g>
     </g>
    </g>
    <g id="xtick_4">
     <g id="line2d_4">
      <g>
       <use xlink:href="#md4286908c9" x="176.517105" y="173.52" style="stroke: #000000; stroke-width: 0.8"/>
      </g>
     </g>
     <g id="text_4">
      <!-- 7.5 -->
      <g transform="translate(168.565543 188.118438) scale(0.1 -0.1)">
       <defs>
        <path id="DejaVuSans-37" d="M 525 4666
L 3525 4666
L 3525 4397
L 1831 0
L 1172 0
L 2766 4134
L 525 4134
L 525 4666
z
" transform="scale(0.015625)"/>
       </defs>
       <use xlink:href="#DejaVuSans-37"/>
       <use xlink:href="#DejaVuSans-2e" transform="translate(63.623047 0)"/>
       <use xlink:href="#DejaVuSans-35" transform="translate(95.410156 0)"/>
      </g>
     </g>
    </g>
    <g id="xtick_5">
     <g id="line2d_5">
      <g>
       <use xlink:href="#md4286908c9" x="216.319114" y="173.52" style="stroke: #000000; stroke-width: 0.8"/>
      </g>
     </g>
     <g id="text_5">
      <!-- 10.0 -->
      <g transform="translate(205.186301 188.118438) scale(0.1 -0.1)">
       <defs>
        <path id="DejaVuSans-31" d="M 794 531
L 1825 531
L 1825 4091
L 703 3866
L 703 4441
L 1819 4666
L 2450 4666
L 2450 531
L 3481 531
L 3481 0
L 794 0
L 794 531
z
" transform="scale(0.015625)"/>
       </defs>
       <use xlink:href="#DejaVuSans-31"/>
       <use xlink:href="#DejaVuSans-30" transform="translate(63.623047 0)"/>
       <use xlink:href="#DejaVuSans-2e" transform="translate(127.246094 0)"/>
       <use xlink:href="#DejaVuSans-30" transform="translate(159.033203 0)"/>
      </g>
     </g>
    </g>
    <g id="xtick_6">
     <g id="line2d_6">
      <g>
       <use xlink:href="#md4286908c9" x="256.121122" y="173.52" style="stroke: #000000; stroke-width: 0.8"/>
      </g>
     </g>
     <g id="text_6">
      <!-- 12.5 -->
      <g transform="translate(244.98831 188.118438) scale(0.1 -0.1)">
       <use xlink:href="#DejaVuSans-31"/>
       <use xlink:href="#DejaVuSans-32" transform="translate(63.623047 0)"/>
       <use xlink:href="#DejaVuSans-2e" transform="translate(127.246094 0)"/>
       <use xlink:href="#DejaVuSans-35" transform="translate(159.033203 0)"/>
      </g>
     </g>
    </g>
    <g id="text_7">
     <!-- Normalized duration -->
     <g transform="translate(107.58125 201.796563) scale(0.1 -0.1)">
      <defs>
       <path id="DejaVuSans-4e" d="M 628 4666
L 1478 4666
L 3547 763
L 3547 4666
L 4159 4666
L 4159 0
L 3309 0
L 1241 3903
L 1241 0
L 628 0
L 628 4666
z
" transform="scale(0.015625)"/>
       <path id="DejaVuSans-6f" d="M 1959 3097
Q 1497 3097 1228 2736
Q 959 2375 959 1747
Q 959 1119 1226 758
Q 1494 397 1959 397
Q 2419 397 2687 759
Q 2956 1122 2956 1747
Q 2956 2369 2687 2733
Q 2419 3097 1959 3097
z
M 1959 3584
Q 2709 3584 3137 3096
Q 3566 2609 3566 1747
Q 3566 888 3137 398
Q 2709 -91 1959 -91
Q 1206 -91 779 398
Q 353 888 353 1747
Q 353 2609 779 3096
Q 1206 3584 1959 3584
z
" transform="scale(0.015625)"/>
       <path id="DejaVuSans-72" d="M 2631 2963
Q 2534 3019 2420 3045
Q 2306 3072 2169 3072
Q 1681 3072 1420 2755
Q 1159 2438 1159 1844
L 1159 0
L 581 0
L 581 3500
L 1159 3500
L 1159 2956
Q 1341 3275 1631 3429
Q 1922 3584 2338 3584
Q 2397 3584 2469 3576
Q 2541 3569 2628 3553
L 2631 2963
z
" transform="scale(0.015625)"/>
       <path id="DejaVuSans-6d" d="M 3328 2828
Q 3544 3216 3844 3400
Q 4144 3584 4550 3584
Q 5097 3584 5394 3201
Q 5691 2819 5691 2113
L 5691 0
L 5113 0
L 5113 2094
Q 5113 2597 4934 2840
Q 4756 3084 4391 3084
Q 3944 3084 3684 2787
Q 3425 2491 3425 1978
L 3425 0
L 2847 0
L 2847 2094
Q 2847 2600 2669 2842
Q 2491 3084 2119 3084
Q 1678 3084 1418 2786
Q 1159 2488 1159 1978
L 1159 0
L 581 0
L 581 3500
L 1159 3500
L 1159 2956
Q 1356 3278 1631 3431
Q 1906 3584 2284 3584
Q 2666 3584 2933 3390
Q 3200 3197 3328 2828
z
" transform="scale(0.015625)"/>
       <path id="DejaVuSans-61" d="M 2194 1759
Q 1497 1759 1228 1600
Q 959 1441 959 1056
Q 959 750 1161 570
Q 1363 391 1709 391
Q 2188 391 2477 730
Q 2766 1069 2766 1631
L 2766 1759
L 2194 1759
z
M 3341 1997
L 3341 0
L 2766 0
L 2766 531
Q 2569 213 2275 61
Q 1981 -91 1556 -91
Q 1019 -91 701 211
Q 384 513 384 1019
Q 384 1609 779 1909
Q 1175 2209 1959 2209
L 2766 2209
L 2766 2266
Q 2766 2663 2505 2880
Q 2244 3097 1772 3097
Q 1472 3097 1187 3025
Q 903 2953 641 2809
L 641 3341
Q 956 3463 1253 3523
Q 1550 3584 1831 3584
Q 2591 3584 2966 3190
Q 3341 2797 3341 1997
z
" transform="scale(0.015625)"/>
       <path id="DejaVuSans-6c" d="M 603 4863
L 1178 4863
L 1178 0
L 603 0
L 603 4863
z
" transform="scale(0.015625)"/>
       <path id="DejaVuSans-69" d="M 603 3500
L 1178 3500
L 1178 0
L 603 0
L 603 3500
z
M 603 4863
L 1178 4863
L 1178 4134
L 603 4134
L 603 4863
z
" transform="scale(0.015625)"/>
       <path id="DejaVuSans-7a" d="M 353 3500
L 3084 3500
L 3084 2975
L 922 459
L 3084 459
L 3084 0
L 275 0
L 275 525
L 2438 3041
L 353 3041
L 353 3500
z
" transform="scale(0.015625)"/>
       <path id="DejaVuSans-65" d="M 3597 1894
L 3597 1613
L 953 1613
Q 991 1019 1311 708
Q 1631 397 2203 397
Q 2534 397 2845 478
Q 3156 559 3463 722
L 3463 178
Q 3153 47 2828 -22
Q 2503 -91 2169 -91
Q 1331 -91 842 396
Q 353 884 353 1716
Q 353 2575 817 3079
Q 1281 3584 2069 3584
Q 2775 3584 3186 3129
Q 3597 2675 3597 1894
z
M 3022 2063
Q 3016 2534 2758 2815
Q 2500 3097 2075 3097
Q 1594 3097 1305 2825
Q 1016 2553 972 2059
L 3022 2063
z
" transform="scale(0.015625)"/>
       <path id="DejaVuSans-64" d="M 2906 2969
L 2906 4863
L 3481 4863
L 3481 0
L 2906 0
L 2906 525
Q 2725 213 2448 61
Q 2172 -91 1784 -91
Q 1150 -91 751 415
Q 353 922 353 1747
Q 353 2572 751 3078
Q 1150 3584 1784 3584
Q 2172 3584 2448 3432
Q 2725 3281 2906 2969
z
M 947 1747
Q 947 1113 1208 752
Q 1469 391 1925 391
Q 2381 391 2643 752
Q 2906 1113 2906 1747
Q 2906 2381 2643 2742
Q 2381 3103 1925 3103
Q 1469 3103 1208 2742
Q 947 2381 947 1747
z
" transform="scale(0.015625)"/>
       <path id="DejaVuSans-20" transform="scale(0.015625)"/>
       <path id="DejaVuSans-75" d="M 544 1381
L 544 3500
L 1119 3500
L 1119 1403
Q 1119 906 1312 657
Q 1506 409 1894 409
Q 2359 409 2629 706
Q 2900 1003 2900 1516
L 2900 3500
L 3475 3500
L 3475 0
L 2900 0
L 2900 538
Q 2691 219 2414 64
Q 2138 -91 1772 -91
Q 1169 -91 856 284
Q 544 659 544 1381
z
M 1991 3584
L 1991 3584
z
" transform="scale(0.015625)"/>
       <path id="DejaVuSans-74" d="M 1172 4494
L 1172 3500
L 2356 3500
L 2356 3053
L 1172 3053
L 1172 1153
Q 1172 725 1289 603
Q 1406 481 1766 481
L 2356 481
L 2356 0
L 1766 0
Q 1100 0 847 248
Q 594 497 594 1153
L 594 3053
L 172 3053
L 172 3500
L 594 3500
L 594 4494
L 1172 4494
z
" transform="scale(0.015625)"/>
       <path id="DejaVuSans-6e" d="M 3513 2113
L 3513 0
L 2938 0
L 2938 2094
Q 2938 2591 2744 2837
Q 2550 3084 2163 3084
Q 1697 3084 1428 2787
Q 1159 2491 1159 1978
L 1159 0
L 581 0
L 581 3500
L 1159 3500
L 1159 2956
Q 1366 3272 1645 3428
Q 1925 3584 2291 3584
Q 2894 3584 3203 3211
Q 3513 2838 3513 2113
z
" transform="scale(0.015625)"/>
      </defs>
      <use xlink:href="#DejaVuSans-4e"/>
      <use xlink:href="#DejaVuSans-6f" transform="translate(74.804688 0)"/>
      <use xlink:href="#DejaVuSans-72" transform="translate(135.986328 0)"/>
      <use xlink:href="#DejaVuSans-6d" transform="translate(175.349609 0)"/>
      <use xlink:href="#DejaVuSans-61" transform="translate(272.761719 0)"/>
      <use xlink:href="#DejaVuSans-6c" transform="translate(334.041016 0)"/>
      <use xlink:href="#DejaVuSans-69" transform="translate(361.824219 0)"/>
      <use xlink:href="#DejaVuSans-7a" transform="translate(389.607422 0)"/>
      <use xlink:href="#DejaVuSans-65" transform="translate(442.097656 0)"/>
      <use xlink:href="#DejaVuSans-64" transform="translate(503.621094 0)"/>
      <use xlink:href="#DejaVuSans-20" transform="translate(567.097656 0)"/>
      <use xlink:href="#DejaVuSans-64" transform="translate(598.884766 0)"/>
      <use xlink:href="#DejaVuSans-75" transform="translate(662.361328 0)"/>
      <use xlink:href="#DejaVuSans-72" transform="translate(725.740234 0)"/>
      <use xlink:href="#DejaVuSans-61" transform="translate(766.853516 0)"/>
      <use xlink:href="#DejaVuSans-74" transform="translate(828.132812 0)"/>
      <use xlink:href="#DejaVuSans-69" transform="translate(867.341797 0)"/>
      <use xlink:href="#DejaVuSans-6f" transform="translate(895.125 0)"/>
      <use xlink:href="#DejaVuSans-6e" transform="translate(956.306641 0)"/>
     </g>
    </g>
   </g>
   <g id="matplotlib.axis_2">
    <g id="ytick_1">
     <g id="line2d_7">
      <defs>
       <path id="mb8e5cdff67" d="M 0 0
L -3.5 0
" style="stroke: #000000; stroke-width: 0.8"/>
      </defs>
      <g>
       <use xlink:href="#mb8e5cdff67" x="46.965625" y="173.52" style="stroke: #000000; stroke-width: 0.8"/>
      </g>
     </g>
     <g id="text_8">
      <!-- 0 -->
      <g transform="translate(33.603125 177.319219) scale(0.1 -0.1)">
       <use xlink:href="#DejaVuSans-30"/>
      </g>
     </g>
    </g>
    <g id="ytick_2">
     <g id="line2d_8">
      <g>
       <use xlink:href="#mb8e5cdff67" x="46.965625" y="135.805714" style="stroke: #000000; stroke-width: 0.8"/>
      </g>
     </g>
     <g id="text_9">
      <!-- 100 -->
      <g transform="translate(20.878125 139.604933) scale(0.1 -0.1)">
       <use xlink:href="#DejaVuSans-31"/>
       <use xlink:href="#DejaVuSans-30" transform="translate(63.623047 0)"/>
       <use xlink:href="#DejaVuSans-30" transform="translate(127.246094 0)"/>
      </g>
     </g>
    </g>
    <g id="ytick_3">
     <g id="line2d_9">
      <g>
       <use xlink:href="#mb8e5cdff67" x="46.965625" y="98.091429" style="stroke: #000000; stroke-width: 0.8"/>
      </g>
     </g>
     <g id="text_10">
      <!-- 200 -->
      <g transform="translate(20.878125 101.890647) scale(0.1 -0.1)">
       <use xlink:href="#DejaVuSans-32"/>
       <use xlink:href="#DejaVuSans-30" transform="translate(63.623047 0)"/>
       <use xlink:href="#DejaVuSans-30" transform="translate(127.246094 0)"/>
      </g>
     </g>
    </g>
    <g id="ytick_4">
     <g id="line2d_10">
      <g>
       <use xlink:href="#mb8e5cdff67" x="46.965625" y="60.377143" style="stroke: #000000; stroke-width: 0.8"/>
      </g>
     </g>
     <g id="text_11">
      <!-- 300 -->
      <g transform="translate(20.878125 64.176362) scale(0.1 -0.1)">
       <defs>
        <path id="DejaVuSans-33" d="M 2597 2516
Q 3050 2419 3304 2112
Q 3559 1806 3559 1356
Q 3559 666 3084 287
Q 2609 -91 1734 -91
Q 1441 -91 1130 -33
Q 819 25 488 141
L 488 750
Q 750 597 1062 519
Q 1375 441 1716 441
Q 2309 441 2620 675
Q 2931 909 2931 1356
Q 2931 1769 2642 2001
Q 2353 2234 1838 2234
L 1294 2234
L 1294 2753
L 1863 2753
Q 2328 2753 2575 2939
Q 2822 3125 2822 3475
Q 2822 3834 2567 4026
Q 2313 4219 1838 4219
Q 1578 4219 1281 4162
Q 984 4106 628 3988
L 628 4550
Q 988 4650 1302 4700
Q 1616 4750 1894 4750
Q 2613 4750 3031 4423
Q 3450 4097 3450 3541
Q 3450 3153 3228 2886
Q 3006 2619 2597 2516
z
" transform="scale(0.015625)"/>
       </defs>
       <use xlink:href="#DejaVuSans-33"/>
       <use xlink:href="#DejaVuSans-30" transform="translate(63.623047 0)"/>
       <use xlink:href="#DejaVuSans-30" transform="translate(127.246094 0)"/>
      </g>
     </g>
    </g>
    <g id="ytick_5">
     <g id="line2d_11">
      <g>
       <use xlink:href="#mb8e5cdff67" x="46.965625" y="22.662857" style="stroke: #000000; stroke-width: 0.8"/>
      </g>
     </g>
     <g id="text_12">
      <!-- 400 -->
      <g transform="translate(20.878125 26.462076) scale(0.1 -0.1)">
       <defs>
        <path id="DejaVuSans-34" d="M 2419 4116
L 825 1625
L 2419 1625
L 2419 4116
z
M 2253 4666
L 3047 4666
L 3047 1625
L 3713 1625
L 3713 1100
L 3047 1100
L 3047 0
L 2419 0
L 2419 1100
L 313 1100
L 313 1709
L 2253 4666
z
" transform="scale(0.015625)"/>
       </defs>
       <use xlink:href="#DejaVuSans-34"/>
       <use xlink:href="#DejaVuSans-30" transform="translate(63.623047 0)"/>
       <use xlink:href="#DejaVuSans-30" transform="translate(127.246094 0)"/>
      </g>
     </g>
    </g>
    <g id="text_13">
     <!-- Frequency -->
     <g transform="translate(14.798437 116.189688) rotate(-90) scale(0.1 -0.1)">
      <defs>
       <path id="DejaVuSans-46" d="M 628 4666
L 3309 4666
L 3309 4134
L 1259 4134
L 1259 2759
L 3109 2759
L 3109 2228
L 1259 2228
L 1259 0
L 628 0
L 628 4666
z
" transform="scale(0.015625)"/>
       <path id="DejaVuSans-71" d="M 947 1747
Q 947 1113 1208 752
Q 1469 391 1925 391
Q 2381 391 2643 752
Q 2906 1113 2906 1747
Q 2906 2381 2643 2742
Q 2381 3103 1925 3103
Q 1469 3103 1208 2742
Q 947 2381 947 1747
z
M 2906 525
Q 2725 213 2448 61
Q 2172 -91 1784 -91
Q 1150 -91 751 415
Q 353 922 353 1747
Q 353 2572 751 3078
Q 1150 3584 1784 3584
Q 2172 3584 2448 3432
Q 2725 3281 2906 2969
L 2906 3500
L 3481 3500
L 3481 -1331
L 2906 -1331
L 2906 525
z
" transform="scale(0.015625)"/>
       <path id="DejaVuSans-63" d="M 3122 3366
L 3122 2828
Q 2878 2963 2633 3030
Q 2388 3097 2138 3097
Q 1578 3097 1268 2742
Q 959 2388 959 1747
Q 959 1106 1268 751
Q 1578 397 2138 397
Q 2388 397 2633 464
Q 2878 531 3122 666
L 3122 134
Q 2881 22 2623 -34
Q 2366 -91 2075 -91
Q 1284 -91 818 406
Q 353 903 353 1747
Q 353 2603 823 3093
Q 1294 3584 2113 3584
Q 2378 3584 2631 3529
Q 2884 3475 3122 3366
z
" transform="scale(0.015625)"/>
       <path id="DejaVuSans-79" d="M 2059 -325
Q 1816 -950 1584 -1140
Q 1353 -1331 966 -1331
L 506 -1331
L 506 -850
L 844 -850
Q 1081 -850 1212 -737
Q 1344 -625 1503 -206
L 1606 56
L 191 3500
L 800 3500
L 1894 763
L 2988 3500
L 3597 3500
L 2059 -325
z
" transform="scale(0.015625)"/>
      </defs>
      <use xlink:href="#DejaVuSans-46"/>
      <use xlink:href="#DejaVuSans-72" transform="translate(50.269531 0)"/>
      <use xlink:href="#DejaVuSans-65" transform="translate(89.132812 0)"/>
      <use xlink:href="#DejaVuSans-71" transform="translate(150.65625 0)"/>
      <use xlink:href="#DejaVuSans-75" transform="translate(214.132812 0)"/>
      <use xlink:href="#DejaVuSans-65" transform="translate(277.511719 0)"/>
      <use xlink:href="#DejaVuSans-6e" transform="translate(339.035156 0)"/>
      <use xlink:href="#DejaVuSans-63" transform="translate(402.414062 0)"/>
      <use xlink:href="#DejaVuSans-79" transform="translate(457.394531 0)"/>
     </g>
    </g>
   </g>
   <g id="line2d_12">
    <path d="M 73.031883 173.52
L 73.031883 7.2
" clip-path="url(#pb4238ac201)" style="fill: none; stroke: #1f77b4; stroke-opacity: 0.7; stroke-linecap: square"/>
   </g>
   <g id="line2d_13">
    <path d="M 81.787139 173.52
L 81.787139 7.2
" clip-path="url(#pb4238ac201)" style="fill: none; stroke-dasharray: 3.7,1.6; stroke-dashoffset: 0; stroke: #1f77b4; stroke-opacity: 0.1"/>
   </g>
   <g id="line2d_14">
    <path d="M 64.276627 173.52
L 64.276627 7.2
" clip-path="url(#pb4238ac201)" style="fill: none; stroke-dasharray: 3.7,1.6; stroke-dashoffset: 0; stroke: #1f77b4; stroke-opacity: 0.1"/>
   </g>
   <g id="line2d_15">
    <path d="M 198.400612 173.52
L 198.400612 7.2
" clip-path="url(#pb4238ac201)" style="fill: none; stroke: #ff7f0e; stroke-opacity: 0.7; stroke-linecap: square"/>
   </g>
   <g id="line2d_16">
    <path d="M 260.02017 173.52
L 260.02017 7.2
" clip-path="url(#pb4238ac201)" style="fill: none; stroke-dasharray: 3.7,1.6; stroke-dashoffset: 0; stroke: #ff7f0e; stroke-opacity: 0.1"/>
   </g>
   <g id="line2d_17">
    <path d="M 136.781054 173.52
L 136.781054 7.2
" clip-path="url(#pb4238ac201)" style="fill: none; stroke-dasharray: 3.7,1.6; stroke-dashoffset: 0; stroke: #ff7f0e; stroke-opacity: 0.1"/>
   </g>
   <g id="patch_131">
    <path d="M 46.965625 173.52
L 46.965625 7.2
" style="fill: none; stroke: #000000; stroke-width: 0.8; stroke-linejoin: miter; stroke-linecap: square"/>
   </g>
   <g id="patch_132">
    <path d="M 270.165625 173.52
L 270.165625 7.2
" style="fill: none; stroke: #000000; stroke-width: 0.8; stroke-linejoin: miter; stroke-linecap: square"/>
   </g>
   <g id="patch_133">
    <path d="M 46.965625 173.52
L 270.165625 173.52
" style="fill: none; stroke: #000000; stroke-width: 0.8; stroke-linejoin: miter; stroke-linecap: square"/>
   </g>
   <g id="patch_134">
    <path d="M 46.965625 7.2
L 270.165625 7.2
" style="fill: none; stroke: #000000; stroke-width: 0.8; stroke-linejoin: miter; stroke-linecap: square"/>
   </g>
   <g id="legend_1">
    <g id="patch_135">
     <path d="M 193.723437 44.55625
L 263.165625 44.55625
Q 265.165625 44.55625 265.165625 42.55625
L 265.165625 14.2
Q 265.165625 12.2 263.165625 12.2
L 193.723437 12.2
Q 191.723437 12.2 191.723437 14.2
L 191.723437 42.55625
Q 191.723437 44.55625 193.723437 44.55625
z
" style="fill: #ffffff; opacity: 0.8; stroke: #cccccc; stroke-linejoin: miter"/>
    </g>
    <g id="patch_136">
     <path d="M 195.723437 23.798438
L 215.723437 23.798438
L 215.723437 16.798438
L 195.723437 16.798438
z
" style="fill: #1f77b4; opacity: 0.8"/>
    </g>
    <g id="text_14">
     <!-- qiskit -->
     <g transform="translate(223.723437 23.798438) scale(0.1 -0.1)">
      <defs>
       <path id="DejaVuSans-73" d="M 2834 3397
L 2834 2853
Q 2591 2978 2328 3040
Q 2066 3103 1784 3103
Q 1356 3103 1142 2972
Q 928 2841 928 2578
Q 928 2378 1081 2264
Q 1234 2150 1697 2047
L 1894 2003
Q 2506 1872 2764 1633
Q 3022 1394 3022 966
Q 3022 478 2636 193
Q 2250 -91 1575 -91
Q 1294 -91 989 -36
Q 684 19 347 128
L 347 722
Q 666 556 975 473
Q 1284 391 1588 391
Q 1994 391 2212 530
Q 2431 669 2431 922
Q 2431 1156 2273 1281
Q 2116 1406 1581 1522
L 1381 1569
Q 847 1681 609 1914
Q 372 2147 372 2553
Q 372 3047 722 3315
Q 1072 3584 1716 3584
Q 2034 3584 2315 3537
Q 2597 3491 2834 3397
z
" transform="scale(0.015625)"/>
       <path id="DejaVuSans-6b" d="M 581 4863
L 1159 4863
L 1159 1991
L 2875 3500
L 3609 3500
L 1753 1863
L 3688 0
L 2938 0
L 1159 1709
L 1159 0
L 581 0
L 581 4863
z
" transform="scale(0.015625)"/>
      </defs>
      <use xlink:href="#DejaVuSans-71"/>
      <use xlink:href="#DejaVuSans-69" transform="translate(63.476562 0)"/>
      <use xlink:href="#DejaVuSans-73" transform="translate(91.259766 0)"/>
      <use xlink:href="#DejaVuSans-6b" transform="translate(143.359375 0)"/>
      <use xlink:href="#DejaVuSans-69" transform="translate(201.269531 0)"/>
      <use xlink:href="#DejaVuSans-74" transform="translate(229.052734 0)"/>
     </g>
    </g>
    <g id="patch_137">
     <path d="M 195.723437 38.476563
L 215.723437 38.476563
L 215.723437 31.476563
L 195.723437 31.476563
z
" style="fill: #ff7f0e; opacity: 0.8"/>
    </g>
    <g id="text_15">
     <!-- monolp -->
     <g transform="translate(223.723437 38.476563) scale(0.1 -0.1)">
      <defs>
       <path id="DejaVuSans-70" d="M 1159 525
L 1159 -1331
L 581 -1331
L 581 3500
L 1159 3500
L 1159 2969
Q 1341 3281 1617 3432
Q 1894 3584 2278 3584
Q 2916 3584 3314 3078
Q 3713 2572 3713 1747
Q 3713 922 3314 415
Q 2916 -91 2278 -91
Q 1894 -91 1617 61
Q 1341 213 1159 525
z
M 3116 1747
Q 3116 2381 2855 2742
Q 2594 3103 2138 3103
Q 1681 3103 1420 2742
Q 1159 2381 1159 1747
Q 1159 1113 1420 752
Q 1681 391 2138 391
Q 2594 391 2855 752
Q 3116 1113 3116 1747
z
" transform="scale(0.015625)"/>
      </defs>
      <use xlink:href="#DejaVuSans-6d"/>
      <use xlink:href="#DejaVuSans-6f" transform="translate(97.412109 0)"/>
      <use xlink:href="#DejaVuSans-6e" transform="translate(158.59375 0)"/>
      <use xlink:href="#DejaVuSans-6f" transform="translate(221.972656 0)"/>
      <use xlink:href="#DejaVuSans-6c" transform="translate(283.154297 0)"/>
      <use xlink:href="#DejaVuSans-70" transform="translate(310.9375 0)"/>
     </g>
    </g>
   </g>
  </g>
 </g>
 <defs>
  <clipPath id="pb4238ac201">
   <rect x="46.965625" y="7.2" width="223.2" height="166.32"/>
  </clipPath>
 </defs>
</svg>
