<?xml version="1.0" encoding="utf-8" standalone="no"?>
<!DOCTYPE svg PUBLIC "-//W3C//DTD SVG 1.1//EN"
  "http://www.w3.org/Graphics/SVG/1.1/DTD/svg11.dtd">
<svg xmlns:xlink="http://www.w3.org/1999/xlink" width="297.591136pt" height="280.512pt" viewBox="0 0 297.591136 280.512" xmlns="http://www.w3.org/2000/svg" version="1.1">
 <metadata>
  <rdf:RDF xmlns:dc="http://purl.org/dc/elements/1.1/" xmlns:cc="http://creativecommons.org/ns#" xmlns:rdf="http://www.w3.org/1999/02/22-rdf-syntax-ns#">
   <cc:Work>
    <dc:type rdf:resource="http://purl.org/dc/dcmitype/StillImage"/>
    <dc:date>2025-04-15T03:14:21.055832</dc:date>
    <dc:format>image/svg+xml</dc:format>
    <dc:creator>
     <cc:Agent>
      <dc:title>Matplotlib v3.10.1, https://matplotlib.org/</dc:title>
     </cc:Agent>
    </dc:creator>
   </cc:Work>
  </rdf:RDF>
 </metadata>
 <defs>
  <style type="text/css">*{stroke-linejoin: round; stroke-linecap: butt}</style>
 </defs>
 <g id="figure_1">
  <g id="patch_1">
   <path d="M 0 280.512 
L 297.591136 280.512 
L 297.591136 0 
L 0 0 
z
" style="fill: #ffffff"/>
  </g>
  <g id="patch_2">
   <path d="M 16.481917 273.312 
L 282.593917 273.312 
L 282.593917 7.2 
L 16.481917 7.2 
L 16.481917 273.312 
z
" style="fill: none"/>
  </g>
  <g id="pane3d_1">
   <g id="patch_3">
    <path d="M 33.509336 200.081763 
L 143.487983 154.105584 
L 143.211013 41.129058 
L 29.773498 78.639984 
" style="fill: none; opacity: 0"/>
   </g>
  </g>
  <g id="pane3d_2">
   <g id="patch_4">
    <path d="M 143.487983 154.105584 
L 271.14503 192.163771 
L 274.779228 72.166797 
L 143.211013 41.129058 
" style="fill: none; opacity: 0"/>
   </g>
  </g>
  <g id="pane3d_3">
   <g id="patch_5">
    <path d="M 33.509336 200.081763 
L 164.403455 245.152972 
L 271.14503 192.163771 
L 143.487983 154.105584 
" style="fill: none; opacity: 0"/>
   </g>
  </g>
  <g id="axis3d_1">
   <g id="line2d_1">
    <path d="M 33.509336 200.081763 
L 164.403455 245.152972 
" style="fill: none; stroke: #000000; stroke-width: 0.8; stroke-linecap: square"/>
   </g>
   <g id="xtick_1">
    <g id="line2d_2">
     <path d="M 34.463289 199.682966 
L 31.597535 200.880984 
" style="fill: none; stroke: #000000; stroke-width: 0.8; stroke-linecap: square"/>
    </g>
    <g id="text_1">
     <!-- 0 -->
     <g transform="translate(28.65718 210.101267) scale(0.1 -0.1)">
      <defs>
       <path id="DejaVuSans-30" d="M 2034 4250 
Q 1547 4250 1301 3770 
Q 1056 3291 1056 2328 
Q 1056 1369 1301 889 
Q 1547 409 2034 409 
Q 2525 409 2770 889 
Q 3016 1369 3016 2328 
Q 3016 3291 2770 3770 
Q 2525 4250 2034 4250 
z
M 2034 4750 
Q 2819 4750 3233 4129 
Q 3647 3509 3647 2328 
Q 3647 1150 3233 529 
Q 2819 -91 2034 -91 
Q 1250 -91 836 529 
Q 422 1150 422 2328 
Q 422 3509 836 4129 
Q 1250 4750 2034 4750 
z
" transform="scale(0.015625)"/>
      </defs>
      <use xlink:href="#DejaVuSans-30"/>
     </g>
    </g>
   </g>
   <g id="xtick_2">
    <g id="line2d_3">
     <path d="M 65.400808 210.322594 
L 62.547301 211.564513 
" style="fill: none; stroke: #000000; stroke-width: 0.8; stroke-linecap: square"/>
    </g>
   </g>
   <g id="xtick_3">
    <g id="line2d_4">
     <path d="M 97.481388 221.355328 
L 94.643002 222.643606 
" style="fill: none; stroke: #000000; stroke-width: 0.8; stroke-linecap: square"/>
    </g>
    <g id="text_2">
     <!-- $\pi/2$ -->
     <g transform="translate(87.155488 231.91102) scale(0.1 -0.1)">
      <defs>
       <path id="DejaVuSans-Oblique-3c0" d="M 584 3500 
L 3938 3500 
L 3825 2925 
L 3384 2925 
L 2966 775 
Q 2922 550 2981 450 
Q 3038 353 3209 353 
Q 3256 353 3325 363 
Q 3397 369 3419 372 
L 3338 -44 
Q 3222 -84 3103 -103 
Q 2981 -122 2866 -122 
Q 2491 -122 2388 81 
Q 2284 288 2391 838 
L 2797 2925 
L 1506 2925 
L 938 0 
L 350 0 
L 919 2925 
L 472 2925 
L 584 3500 
z
" transform="scale(0.015625)"/>
       <path id="DejaVuSans-2f" d="M 1625 4666 
L 2156 4666 
L 531 -594 
L 0 -594 
L 1625 4666 
z
" transform="scale(0.015625)"/>
       <path id="DejaVuSans-32" d="M 1228 531 
L 3431 531 
L 3431 0 
L 469 0 
L 469 531 
Q 828 903 1448 1529 
Q 2069 2156 2228 2338 
Q 2531 2678 2651 2914 
Q 2772 3150 2772 3378 
Q 2772 3750 2511 3984 
Q 2250 4219 1831 4219 
Q 1534 4219 1204 4116 
Q 875 4013 500 3803 
L 500 4441 
Q 881 4594 1212 4672 
Q 1544 4750 1819 4750 
Q 2544 4750 2975 4387 
Q 3406 4025 3406 3419 
Q 3406 3131 3298 2873 
Q 3191 2616 2906 2266 
Q 2828 2175 2409 1742 
Q 1991 1309 1228 531 
z
" transform="scale(0.015625)"/>
      </defs>
      <use xlink:href="#DejaVuSans-Oblique-3c0" transform="translate(0 0.78125)"/>
      <use xlink:href="#DejaVuSans-2f" transform="translate(60.205078 0.78125)"/>
      <use xlink:href="#DejaVuSans-32" transform="translate(90.271484 0.78125)"/>
     </g>
    </g>
   </g>
   <g id="xtick_4">
    <g id="line2d_5">
     <path d="M 130.76957 232.803366 
L 127.949481 234.140647 
" style="fill: none; stroke: #000000; stroke-width: 0.8; stroke-linecap: square"/>
    </g>
   </g>
   <g id="xtick_5">
    <g id="line2d_6">
     <path d="M 165.334849 244.690605 
L 162.53657 246.079741 
" style="fill: none; stroke: #000000; stroke-width: 0.8; stroke-linecap: square"/>
    </g>
    <g id="text_3">
     <!-- $\pi$ -->
     <g transform="translate(159.665484 255.396879) scale(0.1 -0.1)">
      <use xlink:href="#DejaVuSans-Oblique-3c0" transform="translate(0 0.3125)"/>
     </g>
    </g>
   </g>
   <g id="text_4">
    <!-- $c_1$ -->
    <g transform="translate(80.640688 237.949476) rotate(-340.999706) scale(0.1 -0.1)">
     <defs>
      <path id="DejaVuSans-Oblique-63" d="M 3431 3366 
L 3316 2797 
Q 3109 2947 2876 3022 
Q 2644 3097 2394 3097 
Q 2119 3097 1870 3000 
Q 1622 2903 1453 2725 
Q 1184 2453 1037 2087 
Q 891 1722 891 1331 
Q 891 859 1127 628 
Q 1363 397 1844 397 
Q 2081 397 2348 469 
Q 2616 541 2906 684 
L 2797 116 
Q 2547 13 2283 -39 
Q 2019 -91 1741 -91 
Q 1044 -91 669 257 
Q 294 606 294 1253 
Q 294 1797 489 2255 
Q 684 2713 1069 3078 
Q 1331 3328 1684 3456 
Q 2038 3584 2456 3584 
Q 2700 3584 2940 3529 
Q 3181 3475 3431 3366 
z
" transform="scale(0.015625)"/>
      <path id="DejaVuSans-31" d="M 794 531 
L 1825 531 
L 1825 4091 
L 703 3866 
L 703 4441 
L 1819 4666 
L 2450 4666 
L 2450 531 
L 3481 531 
L 3481 0 
L 794 0 
L 794 531 
z
" transform="scale(0.015625)"/>
     </defs>
     <use xlink:href="#DejaVuSans-Oblique-63"/>
     <use xlink:href="#DejaVuSans-31" transform="translate(54.980469 -16.40625) scale(0.7)"/>
    </g>
   </g>
  </g>
  <g id="axis3d_2">
   <g id="line2d_7">
    <path d="M 271.14503 192.163771 
L 164.403455 245.152972 
" style="fill: none; stroke: #000000; stroke-width: 0.8; stroke-linecap: square"/>
   </g>
   <g id="xtick_6">
    <g id="line2d_8">
     <path d="M 163.276588 244.764954 
L 166.661348 245.93044 
" style="fill: none; stroke: #000000; stroke-width: 0.8; stroke-linecap: square"/>
    </g>
    <g id="text_5">
     <!-- 0 -->
     <g transform="translate(168.465704 252.936617) scale(0.1 -0.1)">
      <use xlink:href="#DejaVuSans-30"/>
     </g>
    </g>
   </g>
   <g id="xtick_7">
    <g id="line2d_9">
     <path d="M 186.166124 233.419031 
L 189.531451 234.542986 
" style="fill: none; stroke: #000000; stroke-width: 0.8; stroke-linecap: square"/>
    </g>
   </g>
   <g id="xtick_8">
    <g id="line2d_10">
     <path d="M 208.247877 222.473511 
L 211.593019 223.558116 
" style="fill: none; stroke: #000000; stroke-width: 0.8; stroke-linecap: square"/>
    </g>
   </g>
   <g id="xtick_9">
    <g id="line2d_11">
     <path d="M 229.563866 211.907566 
L 232.888186 212.954853 
" style="fill: none; stroke: #000000; stroke-width: 0.8; stroke-linecap: square"/>
    </g>
   </g>
   <g id="xtick_10">
    <g id="line2d_12">
     <path d="M 250.153245 201.701788 
L 253.456204 202.713649 
" style="fill: none; stroke: #000000; stroke-width: 0.8; stroke-linecap: square"/>
    </g>
   </g>
   <g id="xtick_11">
    <g id="line2d_13">
     <path d="M 270.052545 191.83807 
L 273.333694 192.816274 
" style="fill: none; stroke: #000000; stroke-width: 0.8; stroke-linecap: square"/>
    </g>
    <g id="text_6">
     <!-- $\pi/2$ -->
     <g transform="translate(274.991136 199.463732) scale(0.1 -0.1)">
      <use xlink:href="#DejaVuSans-Oblique-3c0" transform="translate(0 0.78125)"/>
      <use xlink:href="#DejaVuSans-2f" transform="translate(60.205078 0.78125)"/>
      <use xlink:href="#DejaVuSans-32" transform="translate(90.271484 0.78125)"/>
     </g>
    </g>
   </g>
   <g id="text_7">
    <!-- $c_2$ -->
    <g transform="translate(223.646306 230.616567) rotate(-26.400958) scale(0.1 -0.1)">
     <use xlink:href="#DejaVuSans-Oblique-63"/>
     <use xlink:href="#DejaVuSans-32" transform="translate(54.980469 -16.40625) scale(0.7)"/>
    </g>
   </g>
  </g>
  <g id="axis3d_3">
   <g id="line2d_14">
    <path d="M 33.509336 200.081763 
L 29.773498 78.639984 
" style="fill: none; stroke: #000000; stroke-width: 0.8; stroke-linecap: square"/>
   </g>
   <g id="xtick_12">
    <g id="line2d_15">
     <path d="M 34.482372 200.416811 
L 31.566592 199.412811 
" style="fill: none; stroke: #000000; stroke-width: 0.8; stroke-linecap: square"/>
    </g>
    <g id="text_8">
     <!-- 0 -->
     <g transform="translate(20.19214 203.072867) scale(0.1 -0.1)">
      <use xlink:href="#DejaVuSans-30"/>
     </g>
    </g>
   </g>
   <g id="xtick_13">
    <g id="line2d_16">
     <path d="M 33.75893 176.708912 
L 30.826648 175.739577 
" style="fill: none; stroke: #000000; stroke-width: 0.8; stroke-linecap: square"/>
    </g>
   </g>
   <g id="xtick_14">
    <g id="line2d_17">
     <path d="M 33.026613 152.710137 
L 30.07764 151.776393 
" style="fill: none; stroke: #000000; stroke-width: 0.8; stroke-linecap: square"/>
    </g>
   </g>
   <g id="xtick_15">
    <g id="line2d_18">
     <path d="M 32.285255 128.415099 
L 29.319403 127.517902 
" style="fill: none; stroke: #000000; stroke-width: 0.8; stroke-linecap: square"/>
    </g>
   </g>
   <g id="xtick_16">
    <g id="line2d_19">
     <path d="M 31.534688 103.818278 
L 28.551763 102.958609 
" style="fill: none; stroke: #000000; stroke-width: 0.8; stroke-linecap: square"/>
    </g>
   </g>
   <g id="xtick_17">
    <g id="line2d_20">
     <path d="M 30.77474 78.914016 
L 27.774545 78.092886 
" style="fill: none; stroke: #000000; stroke-width: 0.8; stroke-linecap: square"/>
    </g>
    <g id="text_9">
     <!-- $\pi/2$ -->
     <g transform="translate(7.2 81.588886) scale(0.1 -0.1)">
      <use xlink:href="#DejaVuSans-Oblique-3c0" transform="translate(0 0.78125)"/>
      <use xlink:href="#DejaVuSans-2f" transform="translate(60.205078 0.78125)"/>
      <use xlink:href="#DejaVuSans-32" transform="translate(90.271484 0.78125)"/>
     </g>
    </g>
   </g>
   <g id="text_10">
    <!-- $c_3$ -->
    <g transform="translate(22.066589 145.814376) rotate(-90) scale(0.1 -0.1)">
     <defs>
      <path id="DejaVuSans-33" d="M 2597 2516 
Q 3050 2419 3304 2112 
Q 3559 1806 3559 1356 
Q 3559 666 3084 287 
Q 2609 -91 1734 -91 
Q 1441 -91 1130 -33 
Q 819 25 488 141 
L 488 750 
Q 750 597 1062 519 
Q 1375 441 1716 441 
Q 2309 441 2620 675 
Q 2931 909 2931 1356 
Q 2931 1769 2642 2001 
Q 2353 2234 1838 2234 
L 1294 2234 
L 1294 2753 
L 1863 2753 
Q 2328 2753 2575 2939 
Q 2822 3125 2822 3475 
Q 2822 3834 2567 4026 
Q 2313 4219 1838 4219 
Q 1578 4219 1281 4162 
Q 984 4106 628 3988 
L 628 4550 
Q 988 4650 1302 4700 
Q 1616 4750 1894 4750 
Q 2613 4750 3031 4423 
Q 3450 4097 3450 3541 
Q 3450 3153 3228 2886 
Q 3006 2619 2597 2516 
z
" transform="scale(0.015625)"/>
     </defs>
     <use xlink:href="#DejaVuSans-Oblique-63"/>
     <use xlink:href="#DejaVuSans-33" transform="translate(54.980469 -16.40625) scale(0.7)"/>
    </g>
   </g>
  </g>
  <g id="axes_1">
   <g id="line2d_21">
    <path d="M 33.509336 200.081763 
L 205.147678 172.488088 
" clip-path="url(#pe8dcf7cbf9)" style="fill: none; stroke-dasharray: 1.85,0.8; stroke-dashoffset: 0; stroke: #000000; stroke-width: 0.5"/>
   </g>
   <g id="line2d_22">
    <path d="M 186.018062 206.604614 
L 96.536593 221.784149 
" clip-path="url(#pe8dcf7cbf9)" style="fill: none; stroke-dasharray: 1.85,0.8; stroke-dashoffset: 0; stroke: #000000; stroke-width: 0.5"/>
   </g>
   <g id="line2d_23">
    <path d="M 121.39425 185.952823 
L 96.536593 221.784149 
" clip-path="url(#pe8dcf7cbf9)" style="fill: none; stroke-dasharray: 1.85,0.8; stroke-dashoffset: 0; stroke: #000000; stroke-width: 0.5"/>
   </g>
   <g id="line2d_24">
    <path d="M 120.918181 127.4143 
L 121.39425 185.952823 
" clip-path="url(#pe8dcf7cbf9)" style="fill: none; stroke-dasharray: 1.85,0.8; stroke-dashoffset: 0; stroke: #000000; stroke-width: 0.5"/>
   </g>
   <g id="line2d_25">
    <path d="M 120.918181 127.4143 
L 205.147678 172.488088 
" clip-path="url(#pe8dcf7cbf9)" style="fill: none; stroke-dasharray: 1.85,0.8; stroke-dashoffset: 0; stroke: #000000; stroke-width: 0.5"/>
   </g>
   <g id="Path3DCollection_1">
    <defs>
     <path id="C0_0_11a6657f00" d="M 0 2.236068 
C 0.593012 2.236068 1.161816 2.000462 1.581139 1.581139 
C 2.000462 1.161816 2.236068 0.593012 2.236068 -0 
C 2.236068 -0.593012 2.000462 -1.161816 1.581139 -1.581139 
C 1.161816 -2.000462 0.593012 -2.236068 0 -2.236068 
C -0.593012 -2.236068 -1.161816 -2.000462 -1.581139 -1.581139 
C -2.000462 -1.161816 -2.236068 -0.593012 -2.236068 0 
C -2.236068 0.593012 -2.000462 1.161816 -1.581139 1.581139 
C -1.161816 2.000462 -0.593012 2.236068 0 2.236068 
z
"/>
    </defs>
    <g clip-path="url(#pe8dcf7cbf9)">
     <use xlink:href="#C0_0_11a6657f00" x="184.839138" y="170.712312" style="fill: #1f77b4; fill-opacity: 0.3; stroke: #1f77b4; stroke-opacity: 0.3"/>
    </g>
    <g clip-path="url(#pe8dcf7cbf9)">
     <use xlink:href="#C0_0_11a6657f00" x="159.441654" y="186.039517" style="fill: #1f77b4; fill-opacity: 0.463839; stroke: #1f77b4; stroke-opacity: 0.463839"/>
    </g>
    <g clip-path="url(#pe8dcf7cbf9)">
     <use xlink:href="#C0_0_11a6657f00" x="114.419867" y="196.006119" style="fill: #1f77b4; fill-opacity: 0.680214; stroke: #1f77b4; stroke-opacity: 0.680214"/>
    </g>
    <g clip-path="url(#pe8dcf7cbf9)">
     <use xlink:href="#C0_0_11a6657f00" x="33.509336" y="200.081763" style="fill: #1f77b4; fill-opacity: 0.768697; stroke: #1f77b4; stroke-opacity: 0.768697"/>
    </g>
    <g clip-path="url(#pe8dcf7cbf9)">
     <use xlink:href="#C0_0_11a6657f00" x="64.450956" y="210.735994" style="fill: #1f77b4; stroke: #1f77b4"/>
    </g>
   </g>
   <g id="line2d_26">
    <path d="M 33.509336 200.081763 
L 64.450956 210.735994 
" clip-path="url(#pe8dcf7cbf9)" style="fill: none; stroke: #ffffff; stroke-width: 5; stroke-linecap: square"/>
   </g>
   <g id="line2d_27">
    <path d="M 64.450956 210.735994 
L 114.419867 196.006119 
" clip-path="url(#pe8dcf7cbf9)" style="fill: none; stroke: #ffffff; stroke-width: 5; stroke-linecap: square"/>
   </g>
   <g id="line2d_28">
    <path d="M 114.419867 196.006119 
L 159.441654 186.039517 
" clip-path="url(#pe8dcf7cbf9)" style="fill: none; stroke: #ffffff; stroke-width: 5; stroke-linecap: square"/>
   </g>
   <g id="line2d_29">
    <path d="M 159.441654 186.039517 
L 184.839138 170.712312 
" clip-path="url(#pe8dcf7cbf9)" style="fill: none; stroke-dasharray: 5,8.25; stroke-dashoffset: 0; stroke: #ffffff; stroke-width: 5"/>
   </g>
   <g id="line2d_30">
    <path d="M 33.509336 200.081763 
L 164.403455 245.152972 
" clip-path="url(#pe8dcf7cbf9)" style="fill: none; stroke: #000000; stroke-width: 0.5; stroke-linecap: square"/>
   </g>
   <g id="line2d_31">
    <path d="M 164.403455 245.152972 
L 205.147678 172.488088 
" clip-path="url(#pe8dcf7cbf9)" style="fill: none; stroke: #000000; stroke-width: 0.5; stroke-linecap: square"/>
   </g>
   <g id="line2d_32">
    <path d="M 205.147678 172.488088 
L 206.693415 56.104941 
" clip-path="url(#pe8dcf7cbf9)" style="fill: none; stroke: #000000; stroke-width: 0.5; stroke-linecap: square"/>
   </g>
   <g id="line2d_33">
    <path d="M 206.693415 56.104941 
L 164.403455 245.152972 
" clip-path="url(#pe8dcf7cbf9)" style="fill: none; stroke: #000000; stroke-width: 0.5; stroke-linecap: square"/>
   </g>
   <g id="line2d_34">
    <path d="M 206.693415 56.104941 
L 33.509336 200.081763 
" clip-path="url(#pe8dcf7cbf9)" style="fill: none; stroke: #000000; stroke-width: 0.5; stroke-linecap: square"/>
   </g>
   <g id="line2d_35">
    <path d="M 96.536593 221.784149 
L 186.529352 146.243983 
" clip-path="url(#pe8dcf7cbf9)" style="fill: none; stroke: #000000; stroke-width: 0.5; stroke-linecap: square"/>
   </g>
   <g id="line2d_36">
    <path d="M 96.536593 221.784149 
L 120.918181 127.4143 
" clip-path="url(#pe8dcf7cbf9)" style="fill: none; stroke: #000000; stroke-width: 0.5; stroke-linecap: square"/>
   </g>
   <g id="line2d_37">
    <path d="M 186.529352 146.243983 
L 120.918181 127.4143 
" clip-path="url(#pe8dcf7cbf9)" style="fill: none; stroke: #000000; stroke-width: 0.5; stroke-linecap: square"/>
   </g>
   <g id="line2d_38">
    <path d="M 186.529352 146.243983 
L 205.147678 172.488088 
" clip-path="url(#pe8dcf7cbf9)" style="fill: none; stroke: #000000; stroke-width: 0.5; stroke-linecap: square"/>
   </g>
   <g id="line2d_39">
    <path d="M 186.529352 146.243983 
L 186.018062 206.604614 
" clip-path="url(#pe8dcf7cbf9)" style="fill: none; stroke: #000000; stroke-width: 0.5; stroke-linecap: square"/>
   </g>
   <g id="line2d_40">
    <path d="M 33.509336 200.081763 
L 64.450956 210.735994 
" clip-path="url(#pe8dcf7cbf9)" style="fill: none; stroke: #1f77b4; stroke-width: 2; stroke-linecap: square"/>
   </g>
   <g id="line2d_41">
    <path d="M 64.450956 210.735994 
L 114.419867 196.006119 
" clip-path="url(#pe8dcf7cbf9)" style="fill: none; stroke: #1f77b4; stroke-width: 2; stroke-linecap: square"/>
   </g>
   <g id="line2d_42">
    <path d="M 114.419867 196.006119 
L 159.441654 186.039517 
" clip-path="url(#pe8dcf7cbf9)" style="fill: none; stroke: #1f77b4; stroke-width: 2; stroke-linecap: square"/>
   </g>
   <g id="line2d_43">
    <path d="M 159.441654 186.039517 
L 184.839138 170.712312 
" clip-path="url(#pe8dcf7cbf9)" style="fill: none; stroke-dasharray: 2,3.3; stroke-dashoffset: 0; stroke: #d62728; stroke-width: 2"/>
   </g>
   <g id="Path3DCollection_2">
    <defs>
     <path id="m6227db1253" d="M 0 3.535534 
C 0.937635 3.535534 1.836992 3.163008 2.5 2.5 
C 3.163008 1.836992 3.535534 0.937635 3.535534 0 
C 3.535534 -0.937635 3.163008 -1.836992 2.5 -2.5 
C 1.836992 -3.163008 0.937635 -3.535534 0 -3.535534 
C -0.937635 -3.535534 -1.836992 -3.163008 -2.5 -2.5 
C -3.163008 -1.836992 -3.535534 -0.937635 -3.535534 0 
C -3.535534 0.937635 -3.163008 1.836992 -2.5 2.5 
C -1.836992 3.163008 -0.937635 3.535534 0 3.535534 
z
" style="stroke: #ffffff"/>
    </defs>
    <g clip-path="url(#pe8dcf7cbf9)">
     <use xlink:href="#m6227db1253" x="64.450956" y="210.735994" style="fill: #1f77b4; stroke: #ffffff"/>
    </g>
   </g>
   <g id="Path3DCollection_3">
    <g clip-path="url(#pe8dcf7cbf9)">
     <use xlink:href="#m6227db1253" x="114.419867" y="196.006119" style="fill: #1f77b4; stroke: #ffffff"/>
    </g>
   </g>
   <g id="Path3DCollection_4">
    <g clip-path="url(#pe8dcf7cbf9)">
     <use xlink:href="#m6227db1253" x="159.441654" y="186.039517" style="fill: #1f77b4; stroke: #ffffff"/>
    </g>
   </g>
   <g id="Path3DCollection_5">
    <defs>
     <path id="mb1a6823d2b" d="M 0 3.535534 
C 0.937635 3.535534 1.836992 3.163008 2.5 2.5 
C 3.163008 1.836992 3.535534 0.937635 3.535534 0 
C 3.535534 -0.937635 3.163008 -1.836992 2.5 -2.5 
C 1.836992 -3.163008 0.937635 -3.535534 0 -3.535534 
C -0.937635 -3.535534 -1.836992 -3.163008 -2.5 -2.5 
C -3.163008 -1.836992 -3.535534 -0.937635 -3.535534 0 
C -3.535534 0.937635 -3.163008 1.836992 -2.5 2.5 
C -1.836992 3.163008 -0.937635 3.535534 0 3.535534 
z
" style="stroke: #ffffff"/>
    </defs>
    <g clip-path="url(#pe8dcf7cbf9)">
     <use xlink:href="#mb1a6823d2b" x="184.839138" y="170.712312" style="fill: #d62728; stroke: #ffffff"/>
    </g>
   </g>
   <g id="legend_1">
    <g id="patch_6">
     <path d="M 132.293917 48.4 
L 275.593917 48.4 
Q 277.593917 48.4 277.593917 46.4 
L 277.593917 14.2 
Q 277.593917 12.2 275.593917 12.2 
L 132.293917 12.2 
Q 130.293917 12.2 130.293917 14.2 
L 130.293917 46.4 
Q 130.293917 48.4 132.293917 48.4 
z
" style="fill: #ffffff; opacity: 0.8; stroke: #cccccc; stroke-linejoin: miter"/>
    </g>
    <g id="line2d_44">
     <path d="M 134.293917 22.220312 
L 144.293917 22.220312 
L 154.293917 22.220312 
" style="fill: none; stroke: #1f77b4; stroke-width: 3; stroke-linecap: square"/>
    </g>
    <g id="text_11">
     <!-- $\sqrt[2]{CX}$ -->
     <g transform="translate(162.293917 25.720312) scale(0.1 -0.1)">
      <defs>
       <path id="STIXSizeOneSym-Regular-221a" d="M 6970 9933 
L 3373 -1888 
L 3104 -1888 
L 1626 2918 
Q 1555 3149 1465 3251 
Q 1376 3354 1229 3354 
Q 1011 3354 794 3181 
L 717 3309 
L 1766 4115 
L 1926 4115 
L 3379 -602 
L 3405 -602 
L 6605 9933 
L 6970 9933 
z
" transform="scale(0.015625)"/>
       <path id="DejaVuSans-Oblique-43" d="M 4447 4306 
L 4319 3641 
Q 4019 3944 3683 4091 
Q 3347 4238 2956 4238 
Q 2422 4238 2017 3981 
Q 1613 3725 1319 3200 
Q 1131 2863 1032 2486 
Q 934 2109 934 1728 
Q 934 1091 1264 756 
Q 1594 422 2222 422 
Q 2656 422 3056 561 
Q 3456 700 3834 978 
L 3688 231 
Q 3316 72 2936 -9 
Q 2556 -91 2175 -91 
Q 1278 -91 773 396 
Q 269 884 269 1753 
Q 269 2309 461 2846 
Q 653 3384 1013 3828 
Q 1394 4300 1883 4525 
Q 2372 4750 3022 4750 
Q 3422 4750 3780 4639 
Q 4138 4528 4447 4306 
z
" transform="scale(0.015625)"/>
       <path id="DejaVuSans-Oblique-58" d="M 878 4666 
L 1516 4666 
L 2316 2981 
L 3763 4666 
L 4500 4666 
L 2578 2438 
L 3738 0 
L 3103 0 
L 2163 1966 
L 459 0 
L -275 0 
L 1906 2509 
L 878 4666 
z
" transform="scale(0.015625)"/>
      </defs>
      <use xlink:href="#DejaVuSans-32" transform="translate(0 63.71875) scale(0.49)"/>
      <use xlink:href="#STIXSizeOneSym-Regular-221a" transform="translate(0.588356 15.984375) scale(0.578716)"/>
      <use xlink:href="#DejaVuSans-Oblique-43" transform="translate(74.26223 0.53125)"/>
      <use xlink:href="#DejaVuSans-Oblique-58" transform="translate(144.086449 0.53125)"/>
      <path d="M 61.76223 99.5 
L 61.76223 105.75 
L 225.092308 105.75 
L 225.092308 99.5 
L 61.76223 99.5 
z
"/>
     </g>
    </g>
    <g id="line2d_45">
     <path d="M 134.293917 38.620312 
L 144.293917 38.620312 
L 154.293917 38.620312 
" style="fill: none; stroke-dasharray: 3,4.95; stroke-dashoffset: 0; stroke: #d62728; stroke-width: 3"/>
    </g>
    <g id="text_12">
     <!-- $\sqrt[3]{CX}$ -->
     <g transform="translate(162.293917 42.120312) scale(0.1 -0.1)">
      <use xlink:href="#DejaVuSans-33" transform="translate(0 63.71875) scale(0.49)"/>
      <use xlink:href="#STIXSizeOneSym-Regular-221a" transform="translate(0.588356 15.984375) scale(0.578716)"/>
      <use xlink:href="#DejaVuSans-Oblique-43" transform="translate(74.26223 0.53125)"/>
      <use xlink:href="#DejaVuSans-Oblique-58" transform="translate(144.086449 0.53125)"/>
      <path d="M 61.76223 99.5 
L 61.76223 105.75 
L 225.092308 105.75 
L 225.092308 99.5 
L 61.76223 99.5 
z
"/>
     </g>
    </g>
    <g id="line2d_46">
     <path d="M 204.893917 22.220312 
L 214.893917 22.220312 
L 224.893917 22.220312 
" style="fill: none; stroke-dasharray: 11.1,4.8; stroke-dashoffset: 0; stroke: #e377c2; stroke-width: 3"/>
    </g>
    <g id="text_13">
     <!-- $\sqrt[2]{iSWAP}$ -->
     <g transform="translate(232.893917 25.720312) scale(0.1 -0.1)">
      <defs>
       <path id="DejaVuSans-Oblique-69" d="M 1172 4863 
L 1747 4863 
L 1606 4134 
L 1031 4134 
L 1172 4863 
z
M 909 3500 
L 1484 3500 
L 800 0 
L 225 0 
L 909 3500 
z
" transform="scale(0.015625)"/>
       <path id="DejaVuSans-Oblique-53" d="M 3859 4513 
L 3738 3897 
Q 3422 4066 3111 4152 
Q 2800 4238 2509 4238 
Q 1944 4238 1609 3991 
Q 1275 3744 1275 3334 
Q 1275 3109 1398 2989 
Q 1522 2869 2034 2731 
L 2413 2638 
Q 3053 2472 3303 2217 
Q 3553 1963 3553 1503 
Q 3553 797 2998 353 
Q 2444 -91 1538 -91 
Q 1166 -91 791 -17 
Q 416 56 38 206 
L 166 856 
Q 513 641 861 531 
Q 1209 422 1556 422 
Q 2147 422 2503 684 
Q 2859 947 2859 1369 
Q 2859 1650 2717 1795 
Q 2575 1941 2106 2059 
L 1728 2156 
Q 1081 2325 845 2545 
Q 609 2766 609 3163 
Q 609 3859 1145 4304 
Q 1681 4750 2541 4750 
Q 2875 4750 3203 4690 
Q 3531 4631 3859 4513 
z
" transform="scale(0.015625)"/>
       <path id="DejaVuSans-Oblique-57" d="M 616 4666 
L 1228 4666 
L 1453 697 
L 3213 4666 
L 3916 4666 
L 4147 697 
L 5888 4666 
L 6528 4666 
L 4453 0 
L 3659 0 
L 3444 3891 
L 1697 0 
L 903 0 
L 616 4666 
z
" transform="scale(0.015625)"/>
       <path id="DejaVuSans-Oblique-41" d="M 2356 4666 
L 3072 4666 
L 3938 0 
L 3278 0 
L 3084 1197 
L 984 1197 
L 325 0 
L -341 0 
L 2356 4666 
z
M 2584 4044 
L 1275 1722 
L 2988 1722 
L 2584 4044 
z
" transform="scale(0.015625)"/>
       <path id="DejaVuSans-Oblique-50" d="M 1081 4666 
L 2541 4666 
Q 3178 4666 3512 4369 
Q 3847 4072 3847 3500 
Q 3847 2731 3353 2303 
Q 2859 1875 1966 1875 
L 1172 1875 
L 806 0 
L 172 0 
L 1081 4666 
z
M 1613 4147 
L 1275 2394 
L 2069 2394 
Q 2606 2394 2893 2669 
Q 3181 2944 3181 3456 
Q 3181 3784 2986 3965 
Q 2791 4147 2438 4147 
L 1613 4147 
z
" transform="scale(0.015625)"/>
      </defs>
      <use xlink:href="#DejaVuSans-32" transform="translate(0 64.98125) scale(0.49)"/>
      <use xlink:href="#STIXSizeOneSym-Regular-221a" transform="translate(0.05986 16.4375) scale(0.588275)"/>
      <use xlink:href="#DejaVuSans-Oblique-69" transform="translate(74.790726 0.765625)"/>
      <use xlink:href="#DejaVuSans-Oblique-53" transform="translate(102.573929 0.765625)"/>
      <use xlink:href="#DejaVuSans-Oblique-57" transform="translate(166.050491 0.765625)"/>
      <use xlink:href="#DejaVuSans-Oblique-41" transform="translate(264.927444 0.765625)"/>
      <use xlink:href="#DejaVuSans-Oblique-50" transform="translate(333.335648 0.765625)"/>
      <path d="M 62.290726 101.5 
L 62.290726 107.75 
L 406.138382 107.75 
L 406.138382 101.5 
L 62.290726 101.5 
z
"/>
     </g>
    </g>
    <g id="line2d_47">
     <path d="M 204.893917 38.820312 
L 214.893917 38.820312 
L 224.893917 38.820312 
" style="fill: none; stroke-dasharray: 19.2,4.8,3,4.8; stroke-dashoffset: 0; stroke: #17becf; stroke-width: 3"/>
    </g>
    <g id="text_14">
     <!-- $\sqrt[3]{iSWAP}$ -->
     <g transform="translate(232.893917 42.320312) scale(0.1 -0.1)">
      <use xlink:href="#DejaVuSans-33" transform="translate(0 64.98125) scale(0.49)"/>
      <use xlink:href="#STIXSizeOneSym-Regular-221a" transform="translate(0.05986 16.4375) scale(0.588275)"/>
      <use xlink:href="#DejaVuSans-Oblique-69" transform="translate(74.790726 0.765625)"/>
      <use xlink:href="#DejaVuSans-Oblique-53" transform="translate(102.573929 0.765625)"/>
      <use xlink:href="#DejaVuSans-Oblique-57" transform="translate(166.050491 0.765625)"/>
      <use xlink:href="#DejaVuSans-Oblique-41" transform="translate(264.927444 0.765625)"/>
      <use xlink:href="#DejaVuSans-Oblique-50" transform="translate(333.335648 0.765625)"/>
      <path d="M 62.290726 101.5 
L 62.290726 107.75 
L 406.138382 107.75 
L 406.138382 101.5 
L 62.290726 101.5 
z
"/>
     </g>
    </g>
   </g>
  </g>
 </g>
 <defs>
  <clipPath id="pe8dcf7cbf9">
   <rect x="16.481917" y="7.2" width="266.112" height="266.112"/>
  </clipPath>
 </defs>
</svg>
